G04 EAGLE Gerber RS-274X export*
G75*
%MOMM*%
%FSLAX34Y34*%
%LPD*%
%INBottom Copper*%
%IPPOS*%
%AMOC8*
5,1,8,0,0,1.08239X$1,22.5*%
G01*
G04 Define Apertures*
%ADD10P,1.64956X8X202.5*%
%ADD11P,1.29887X8X292.5*%
%ADD12C,1.270000*%
%ADD13C,0.503200*%
%ADD14C,0.406400*%
%ADD15C,0.304800*%
%ADD16C,0.553200*%
%ADD17C,0.508000*%
D10*
X158750Y29210D03*
X133350Y29210D03*
D11*
X236220Y93820D03*
X236220Y73820D03*
D12*
X58420Y199390D03*
X58420Y179390D03*
X58420Y159390D03*
X58420Y139390D03*
D13*
X509270Y130810D03*
D14*
X422910Y130810D01*
X410210Y143510D01*
D13*
X410210Y143510D03*
X438150Y209550D03*
X508000Y146050D03*
D15*
X478790Y175260D01*
X455930Y175260D01*
X444500Y186690D01*
X444500Y203200D01*
X438150Y209550D01*
D13*
X452120Y157480D03*
X459740Y157480D03*
X452120Y165100D03*
X575310Y161290D03*
X582930Y161290D03*
X582930Y153670D03*
X575310Y153670D03*
X463550Y203200D03*
X433070Y140970D03*
X589280Y53340D03*
X581660Y53340D03*
X585470Y46990D03*
X389890Y187960D03*
X389890Y200660D03*
X53340Y38100D03*
X101600Y38100D03*
X275590Y33020D03*
X334010Y49530D03*
X143510Y65302D03*
X191770Y208280D03*
X199390Y208280D03*
X344170Y21590D03*
X365760Y13970D03*
X288290Y115570D03*
X292100Y109220D03*
X306070Y16510D03*
X248920Y142240D03*
X577850Y46990D03*
X459740Y165100D03*
X476250Y62714D03*
X483870Y62714D03*
X431800Y88900D03*
X368946Y48382D03*
X237490Y203684D03*
D16*
X165100Y194310D03*
X203200Y78740D03*
D13*
X359410Y129540D03*
X332740Y109220D03*
X347221Y94491D03*
X307340Y68580D03*
X124460Y181610D03*
D14*
X124460Y208280D02*
X123190Y209550D01*
X124460Y208280D02*
X124460Y181610D01*
D13*
X123190Y209550D03*
X397510Y68580D03*
X476250Y56364D03*
X483870Y56364D03*
X434340Y181610D03*
X438150Y198120D03*
D15*
X446532Y170688D02*
X473202Y170688D01*
D13*
X513741Y138152D03*
D15*
X505738Y138152D02*
X473202Y170688D01*
X505738Y138152D02*
X513741Y138152D01*
X446532Y170688D02*
X439650Y177570D01*
X439650Y196620D02*
X438150Y198120D01*
X439650Y196620D02*
X439650Y177570D01*
D13*
X349250Y213360D03*
X248920Y157480D03*
X256540Y177800D03*
X383540Y13970D03*
X424180Y24130D03*
X269240Y142240D03*
X323850Y109220D03*
X457200Y190500D03*
X464820Y190500D03*
X464820Y182880D03*
X457200Y182880D03*
D16*
X165100Y134620D03*
D13*
X319585Y41095D03*
X326390Y68580D03*
X124460Y147320D03*
D14*
X124460Y121920D01*
X123190Y120650D01*
D13*
X123190Y120650D03*
X401196Y30356D03*
X497840Y38100D03*
X101600Y57150D03*
D17*
X203738Y57150D01*
D16*
X318770Y25400D03*
D17*
X273050Y57150D02*
X203738Y57150D01*
X273050Y57150D02*
X304800Y25400D01*
X318770Y25400D01*
D13*
X450850Y21590D03*
D14*
X411480Y76200D02*
X539750Y76200D01*
X411480Y76200D02*
X383540Y76200D01*
X363220Y76200D01*
X359410Y72390D01*
D13*
X359410Y72390D03*
X383540Y76200D03*
D14*
X539750Y76200D02*
X552450Y88900D01*
D13*
X553608Y144248D03*
D14*
X552450Y143090D01*
X552450Y88900D01*
D13*
X411480Y56364D03*
D14*
X411480Y76200D01*
D13*
X450850Y40640D03*
D14*
X537210Y82550D02*
X546100Y91440D01*
X537210Y82550D02*
X425450Y82550D01*
D13*
X425450Y82550D03*
X378460Y83542D03*
D14*
X413033Y82550D02*
X425450Y82550D01*
X413033Y82550D02*
X412525Y83058D01*
X378944Y83058D01*
X378460Y83542D01*
D13*
X547461Y148058D03*
D14*
X546100Y146697D01*
X546100Y91440D01*
D13*
X228600Y133350D03*
D15*
X233680Y128270D01*
X495300Y107950D02*
X499110Y104140D01*
D13*
X499110Y104140D03*
D15*
X335396Y128270D02*
X233680Y128270D01*
X355716Y107950D02*
X495300Y107950D01*
X355716Y107950D02*
X335396Y128270D01*
X501650Y113030D02*
X506730Y107950D01*
D13*
X506730Y107950D03*
X220980Y174776D03*
D15*
X244324Y174776D01*
X285750Y133350D01*
X337704Y133350D01*
X358024Y113030D01*
X501650Y113030D01*
D13*
X217170Y121920D03*
D15*
X218440Y123190D02*
X334010Y123190D01*
X218440Y123190D02*
X217170Y121920D01*
X334010Y123190D02*
X342900Y114300D01*
X354330Y102870D01*
D13*
X492760Y99060D03*
D15*
X488950Y102870D02*
X354330Y102870D01*
X488950Y102870D02*
X492760Y99060D01*
D13*
X397510Y41910D03*
D15*
X403860Y48260D01*
X406400Y50800D01*
X514350Y50800D01*
X520700Y57150D01*
D13*
X520700Y57150D03*
X212090Y180340D03*
D15*
X246380Y180340D01*
X250190Y176530D01*
X288290Y138430D01*
X326390Y138430D01*
X340360Y138430D01*
X506960Y117880D02*
X513080Y111760D01*
D13*
X513080Y111760D03*
D15*
X506960Y117880D02*
X360910Y117880D01*
X340360Y138430D01*
D16*
X299720Y116840D03*
D15*
X461010Y97790D02*
X469900Y88900D01*
X527050Y88900D01*
D16*
X527050Y88900D03*
D15*
X461010Y97790D02*
X352033Y97790D01*
X332983Y116840D02*
X299720Y116840D01*
X332983Y116840D02*
X352033Y97790D01*
D13*
X365760Y123190D03*
D16*
X533159Y96279D03*
D15*
X533159Y99191D01*
X509160Y123190D01*
X365760Y123190D01*
M02*
