G04 EAGLE Gerber RS-274X export*
G75*
%MOMM*%
%FSLAX34Y34*%
%LPD*%
%INSilkscreen Top*%
%IPPOS*%
%AMOC8*
5,1,8,0,0,1.08239X$1,22.5*%
G01*
G04 Define Apertures*
%ADD10C,0.203200*%
%ADD11C,0.101600*%
%ADD12C,0.127000*%
%ADD13C,0.152400*%
%ADD14C,0.025000*%
%ADD15C,0.500000*%
%ADD16C,0.120000*%
%ADD17C,0.200000*%
G36*
X362712Y161163D02*
X358648Y161163D01*
X358648Y163957D01*
X362712Y163957D01*
X362712Y161163D01*
G37*
G36*
X284649Y153670D02*
X283468Y153670D01*
X286469Y157769D01*
X283697Y161560D01*
X284879Y161560D01*
X287074Y158464D01*
X289208Y161560D01*
X290389Y161560D01*
X287690Y157808D01*
X290619Y153670D01*
X289437Y153670D01*
X287068Y157120D01*
X284649Y153670D01*
G37*
G36*
X319293Y176276D02*
X318229Y176276D01*
X318229Y179546D01*
X315194Y184166D01*
X316370Y184166D01*
X318772Y180409D01*
X321163Y184166D01*
X322339Y184166D01*
X319293Y179546D01*
X319293Y176276D01*
G37*
G36*
X373380Y229439D02*
X372308Y229439D01*
X372308Y231953D01*
X364716Y231953D01*
X366306Y229726D01*
X365116Y229726D01*
X363512Y232058D01*
X363512Y233221D01*
X372308Y233221D01*
X372308Y235623D01*
X373380Y235623D01*
X373380Y229439D01*
G37*
D10*
X316230Y172720D02*
X312420Y168910D01*
X316230Y172720D02*
X312420Y176530D01*
X316230Y172720D02*
X297180Y172720D01*
X297180Y153670D01*
X300990Y157480D01*
X297180Y153670D02*
X293370Y157480D01*
X295431Y172720D02*
X295433Y172803D01*
X295439Y172886D01*
X295449Y172969D01*
X295463Y173051D01*
X295480Y173132D01*
X295502Y173213D01*
X295527Y173292D01*
X295556Y173370D01*
X295589Y173447D01*
X295625Y173521D01*
X295665Y173594D01*
X295709Y173666D01*
X295755Y173735D01*
X295805Y173801D01*
X295858Y173865D01*
X295914Y173927D01*
X295973Y173986D01*
X296035Y174042D01*
X296099Y174095D01*
X296165Y174145D01*
X296234Y174191D01*
X296305Y174235D01*
X296379Y174275D01*
X296453Y174311D01*
X296530Y174344D01*
X296608Y174373D01*
X296687Y174398D01*
X296768Y174420D01*
X296849Y174437D01*
X296931Y174451D01*
X297014Y174461D01*
X297097Y174467D01*
X297180Y174469D01*
X297263Y174467D01*
X297346Y174461D01*
X297429Y174451D01*
X297511Y174437D01*
X297592Y174420D01*
X297673Y174398D01*
X297752Y174373D01*
X297830Y174344D01*
X297907Y174311D01*
X297981Y174275D01*
X298054Y174235D01*
X298126Y174191D01*
X298195Y174145D01*
X298261Y174095D01*
X298325Y174042D01*
X298387Y173986D01*
X298446Y173927D01*
X298502Y173865D01*
X298555Y173801D01*
X298605Y173735D01*
X298651Y173666D01*
X298695Y173595D01*
X298735Y173521D01*
X298771Y173447D01*
X298804Y173370D01*
X298833Y173292D01*
X298858Y173213D01*
X298880Y173132D01*
X298897Y173051D01*
X298911Y172969D01*
X298921Y172886D01*
X298927Y172803D01*
X298929Y172720D01*
X298927Y172637D01*
X298921Y172554D01*
X298911Y172471D01*
X298897Y172389D01*
X298880Y172308D01*
X298858Y172227D01*
X298833Y172148D01*
X298804Y172070D01*
X298771Y171993D01*
X298735Y171919D01*
X298695Y171846D01*
X298651Y171774D01*
X298605Y171705D01*
X298555Y171639D01*
X298502Y171575D01*
X298446Y171513D01*
X298387Y171454D01*
X298325Y171398D01*
X298261Y171345D01*
X298195Y171295D01*
X298126Y171249D01*
X298055Y171205D01*
X297981Y171165D01*
X297907Y171129D01*
X297830Y171096D01*
X297752Y171067D01*
X297673Y171042D01*
X297592Y171020D01*
X297511Y171003D01*
X297429Y170989D01*
X297346Y170979D01*
X297263Y170973D01*
X297180Y170971D01*
X297097Y170973D01*
X297014Y170979D01*
X296931Y170989D01*
X296849Y171003D01*
X296768Y171020D01*
X296687Y171042D01*
X296608Y171067D01*
X296530Y171096D01*
X296453Y171129D01*
X296379Y171165D01*
X296306Y171205D01*
X296234Y171249D01*
X296165Y171295D01*
X296099Y171345D01*
X296035Y171398D01*
X295973Y171454D01*
X295914Y171513D01*
X295858Y171575D01*
X295805Y171639D01*
X295755Y171705D01*
X295709Y171774D01*
X295665Y171845D01*
X295625Y171919D01*
X295589Y171993D01*
X295556Y172070D01*
X295527Y172148D01*
X295502Y172227D01*
X295480Y172308D01*
X295463Y172389D01*
X295449Y172471D01*
X295439Y172554D01*
X295433Y172637D01*
X295431Y172720D01*
D11*
X157819Y4318D02*
X155448Y4318D01*
X157819Y4318D02*
X157897Y4320D01*
X157974Y4326D01*
X158051Y4335D01*
X158127Y4348D01*
X158203Y4365D01*
X158278Y4386D01*
X158351Y4410D01*
X158424Y4438D01*
X158495Y4470D01*
X158564Y4505D01*
X158631Y4543D01*
X158697Y4584D01*
X158760Y4629D01*
X158821Y4677D01*
X158880Y4727D01*
X158936Y4781D01*
X158990Y4837D01*
X159040Y4896D01*
X159088Y4957D01*
X159133Y5020D01*
X159174Y5086D01*
X159212Y5153D01*
X159247Y5222D01*
X159279Y5293D01*
X159307Y5366D01*
X159331Y5439D01*
X159352Y5514D01*
X159369Y5590D01*
X159382Y5666D01*
X159391Y5743D01*
X159397Y5820D01*
X159399Y5898D01*
X159399Y6689D01*
X159397Y6767D01*
X159391Y6844D01*
X159382Y6921D01*
X159369Y6997D01*
X159352Y7073D01*
X159331Y7148D01*
X159307Y7221D01*
X159279Y7294D01*
X159247Y7365D01*
X159212Y7434D01*
X159174Y7501D01*
X159133Y7567D01*
X159088Y7630D01*
X159040Y7691D01*
X158990Y7750D01*
X158936Y7806D01*
X158880Y7860D01*
X158821Y7910D01*
X158760Y7958D01*
X158697Y8003D01*
X158631Y8044D01*
X158564Y8082D01*
X158495Y8117D01*
X158424Y8149D01*
X158351Y8177D01*
X158278Y8201D01*
X158203Y8222D01*
X158127Y8239D01*
X158051Y8252D01*
X157974Y8261D01*
X157897Y8267D01*
X157819Y8269D01*
X155448Y8269D01*
X155448Y11430D01*
X159399Y11430D01*
X162368Y11430D02*
X164739Y4318D01*
X167109Y11430D01*
X127649Y8269D02*
X126464Y8269D01*
X127649Y8269D02*
X127649Y4318D01*
X125278Y4318D01*
X125200Y4320D01*
X125123Y4326D01*
X125046Y4335D01*
X124970Y4348D01*
X124894Y4365D01*
X124819Y4386D01*
X124746Y4410D01*
X124673Y4438D01*
X124602Y4470D01*
X124533Y4505D01*
X124466Y4543D01*
X124400Y4584D01*
X124337Y4629D01*
X124276Y4677D01*
X124217Y4727D01*
X124161Y4781D01*
X124107Y4837D01*
X124057Y4896D01*
X124009Y4957D01*
X123964Y5020D01*
X123923Y5086D01*
X123885Y5153D01*
X123850Y5222D01*
X123818Y5293D01*
X123790Y5366D01*
X123766Y5439D01*
X123745Y5514D01*
X123728Y5590D01*
X123715Y5666D01*
X123706Y5743D01*
X123700Y5820D01*
X123698Y5898D01*
X123698Y9850D01*
X123700Y9928D01*
X123706Y10005D01*
X123715Y10082D01*
X123728Y10158D01*
X123745Y10234D01*
X123766Y10309D01*
X123790Y10382D01*
X123818Y10455D01*
X123850Y10526D01*
X123885Y10595D01*
X123923Y10662D01*
X123964Y10728D01*
X124009Y10791D01*
X124057Y10852D01*
X124107Y10911D01*
X124161Y10967D01*
X124217Y11021D01*
X124276Y11071D01*
X124337Y11119D01*
X124400Y11164D01*
X124466Y11205D01*
X124533Y11243D01*
X124602Y11278D01*
X124673Y11310D01*
X124746Y11338D01*
X124819Y11362D01*
X124894Y11383D01*
X124970Y11400D01*
X125046Y11413D01*
X125123Y11422D01*
X125200Y11428D01*
X125278Y11430D01*
X127649Y11430D01*
X131501Y11430D02*
X131501Y4318D01*
X135452Y4318D02*
X131501Y11430D01*
X135452Y11430D02*
X135452Y4318D01*
X139304Y4318D02*
X139304Y11430D01*
X141279Y11430D01*
X141365Y11428D01*
X141451Y11422D01*
X141537Y11413D01*
X141622Y11400D01*
X141707Y11383D01*
X141790Y11363D01*
X141873Y11339D01*
X141955Y11311D01*
X142035Y11280D01*
X142114Y11245D01*
X142191Y11207D01*
X142267Y11165D01*
X142341Y11121D01*
X142412Y11073D01*
X142482Y11022D01*
X142549Y10968D01*
X142614Y10911D01*
X142676Y10851D01*
X142736Y10789D01*
X142793Y10724D01*
X142847Y10657D01*
X142898Y10587D01*
X142946Y10516D01*
X142990Y10442D01*
X143032Y10366D01*
X143070Y10289D01*
X143105Y10210D01*
X143136Y10130D01*
X143164Y10048D01*
X143188Y9965D01*
X143208Y9882D01*
X143225Y9797D01*
X143238Y9712D01*
X143247Y9626D01*
X143253Y9540D01*
X143255Y9454D01*
X143255Y6294D01*
X143253Y6208D01*
X143247Y6122D01*
X143238Y6036D01*
X143225Y5951D01*
X143208Y5866D01*
X143188Y5783D01*
X143164Y5700D01*
X143136Y5618D01*
X143105Y5538D01*
X143070Y5459D01*
X143032Y5382D01*
X142990Y5306D01*
X142946Y5232D01*
X142898Y5161D01*
X142847Y5091D01*
X142793Y5024D01*
X142736Y4959D01*
X142676Y4897D01*
X142614Y4837D01*
X142549Y4780D01*
X142482Y4726D01*
X142412Y4675D01*
X142341Y4627D01*
X142267Y4583D01*
X142191Y4541D01*
X142114Y4503D01*
X142035Y4468D01*
X141955Y4437D01*
X141873Y4409D01*
X141790Y4385D01*
X141707Y4365D01*
X141622Y4348D01*
X141537Y4335D01*
X141451Y4326D01*
X141365Y4320D01*
X141279Y4318D01*
X139304Y4318D01*
X463889Y37338D02*
X463967Y37340D01*
X464044Y37346D01*
X464121Y37355D01*
X464197Y37368D01*
X464273Y37385D01*
X464348Y37406D01*
X464421Y37430D01*
X464494Y37458D01*
X464565Y37490D01*
X464634Y37525D01*
X464701Y37563D01*
X464767Y37604D01*
X464830Y37649D01*
X464891Y37697D01*
X464950Y37747D01*
X465006Y37801D01*
X465060Y37857D01*
X465110Y37916D01*
X465158Y37977D01*
X465203Y38040D01*
X465244Y38106D01*
X465282Y38173D01*
X465317Y38242D01*
X465349Y38313D01*
X465377Y38386D01*
X465401Y38459D01*
X465422Y38534D01*
X465439Y38610D01*
X465452Y38686D01*
X465461Y38763D01*
X465467Y38840D01*
X465469Y38918D01*
X463889Y37338D02*
X463774Y37340D01*
X463660Y37346D01*
X463546Y37356D01*
X463432Y37369D01*
X463319Y37387D01*
X463206Y37409D01*
X463094Y37434D01*
X462984Y37463D01*
X462874Y37496D01*
X462765Y37533D01*
X462658Y37573D01*
X462552Y37617D01*
X462448Y37665D01*
X462345Y37716D01*
X462245Y37771D01*
X462146Y37829D01*
X462049Y37891D01*
X461955Y37955D01*
X461862Y38023D01*
X461772Y38095D01*
X461685Y38169D01*
X461600Y38246D01*
X461518Y38326D01*
X461716Y42870D02*
X461718Y42948D01*
X461724Y43025D01*
X461733Y43102D01*
X461746Y43178D01*
X461763Y43254D01*
X461784Y43329D01*
X461808Y43402D01*
X461836Y43475D01*
X461868Y43546D01*
X461903Y43615D01*
X461941Y43682D01*
X461982Y43748D01*
X462027Y43811D01*
X462075Y43872D01*
X462125Y43931D01*
X462179Y43987D01*
X462235Y44041D01*
X462294Y44091D01*
X462355Y44139D01*
X462418Y44184D01*
X462484Y44225D01*
X462551Y44263D01*
X462620Y44298D01*
X462691Y44330D01*
X462764Y44358D01*
X462837Y44382D01*
X462912Y44403D01*
X462988Y44420D01*
X463064Y44433D01*
X463141Y44442D01*
X463219Y44448D01*
X463296Y44450D01*
X463402Y44448D01*
X463508Y44442D01*
X463613Y44433D01*
X463718Y44420D01*
X463823Y44403D01*
X463927Y44382D01*
X464030Y44358D01*
X464132Y44330D01*
X464233Y44298D01*
X464333Y44263D01*
X464431Y44224D01*
X464529Y44181D01*
X464624Y44136D01*
X464718Y44087D01*
X464810Y44034D01*
X464900Y43978D01*
X464988Y43919D01*
X465074Y43857D01*
X462506Y41487D02*
X462439Y41529D01*
X462374Y41574D01*
X462311Y41623D01*
X462250Y41674D01*
X462193Y41729D01*
X462138Y41786D01*
X462085Y41846D01*
X462036Y41908D01*
X461990Y41973D01*
X461948Y42039D01*
X461908Y42108D01*
X461872Y42179D01*
X461840Y42252D01*
X461811Y42326D01*
X461786Y42401D01*
X461765Y42477D01*
X461747Y42555D01*
X461734Y42633D01*
X461724Y42712D01*
X461718Y42791D01*
X461716Y42870D01*
X464679Y40301D02*
X464746Y40259D01*
X464811Y40214D01*
X464874Y40165D01*
X464935Y40114D01*
X464992Y40059D01*
X465047Y40002D01*
X465100Y39942D01*
X465149Y39880D01*
X465195Y39815D01*
X465237Y39749D01*
X465277Y39680D01*
X465313Y39609D01*
X465345Y39536D01*
X465374Y39462D01*
X465399Y39387D01*
X465420Y39311D01*
X465438Y39233D01*
X465451Y39155D01*
X465461Y39076D01*
X465467Y38997D01*
X465469Y38918D01*
X464679Y40301D02*
X462506Y41487D01*
X470143Y37338D02*
X471723Y37338D01*
X470143Y37338D02*
X470065Y37340D01*
X469988Y37346D01*
X469911Y37355D01*
X469835Y37368D01*
X469759Y37385D01*
X469684Y37406D01*
X469611Y37430D01*
X469538Y37458D01*
X469467Y37490D01*
X469398Y37525D01*
X469331Y37563D01*
X469265Y37604D01*
X469202Y37649D01*
X469141Y37697D01*
X469082Y37747D01*
X469026Y37801D01*
X468972Y37857D01*
X468922Y37916D01*
X468874Y37977D01*
X468829Y38040D01*
X468788Y38106D01*
X468750Y38173D01*
X468715Y38242D01*
X468683Y38313D01*
X468655Y38386D01*
X468631Y38459D01*
X468610Y38534D01*
X468593Y38610D01*
X468580Y38686D01*
X468571Y38763D01*
X468565Y38840D01*
X468563Y38918D01*
X468562Y38918D02*
X468562Y42870D01*
X468563Y42870D02*
X468565Y42948D01*
X468571Y43025D01*
X468580Y43102D01*
X468593Y43178D01*
X468610Y43254D01*
X468631Y43329D01*
X468655Y43402D01*
X468683Y43475D01*
X468715Y43546D01*
X468750Y43615D01*
X468788Y43682D01*
X468829Y43748D01*
X468874Y43811D01*
X468922Y43872D01*
X468972Y43931D01*
X469026Y43987D01*
X469082Y44041D01*
X469141Y44091D01*
X469202Y44139D01*
X469265Y44184D01*
X469331Y44225D01*
X469398Y44263D01*
X469467Y44298D01*
X469538Y44330D01*
X469611Y44358D01*
X469684Y44382D01*
X469759Y44403D01*
X469835Y44420D01*
X469911Y44433D01*
X469988Y44442D01*
X470065Y44448D01*
X470143Y44450D01*
X471723Y44450D01*
X474948Y44450D02*
X474948Y37338D01*
X478109Y37338D01*
X465469Y21138D02*
X465467Y21060D01*
X465461Y20983D01*
X465452Y20906D01*
X465439Y20830D01*
X465422Y20754D01*
X465401Y20679D01*
X465377Y20606D01*
X465349Y20533D01*
X465317Y20462D01*
X465282Y20393D01*
X465244Y20326D01*
X465203Y20260D01*
X465158Y20197D01*
X465110Y20136D01*
X465060Y20077D01*
X465006Y20021D01*
X464950Y19967D01*
X464891Y19917D01*
X464830Y19869D01*
X464767Y19824D01*
X464701Y19783D01*
X464634Y19745D01*
X464565Y19710D01*
X464494Y19678D01*
X464421Y19650D01*
X464348Y19626D01*
X464273Y19605D01*
X464197Y19588D01*
X464121Y19575D01*
X464044Y19566D01*
X463967Y19560D01*
X463889Y19558D01*
X463774Y19560D01*
X463660Y19566D01*
X463546Y19576D01*
X463432Y19589D01*
X463319Y19607D01*
X463206Y19629D01*
X463094Y19654D01*
X462984Y19683D01*
X462874Y19716D01*
X462765Y19753D01*
X462658Y19793D01*
X462552Y19837D01*
X462448Y19885D01*
X462345Y19936D01*
X462245Y19991D01*
X462146Y20049D01*
X462049Y20111D01*
X461955Y20175D01*
X461862Y20243D01*
X461772Y20315D01*
X461685Y20389D01*
X461600Y20466D01*
X461518Y20546D01*
X461716Y25090D02*
X461718Y25168D01*
X461724Y25245D01*
X461733Y25322D01*
X461746Y25398D01*
X461763Y25474D01*
X461784Y25549D01*
X461808Y25622D01*
X461836Y25695D01*
X461868Y25766D01*
X461903Y25835D01*
X461941Y25902D01*
X461982Y25968D01*
X462027Y26031D01*
X462075Y26092D01*
X462125Y26151D01*
X462179Y26207D01*
X462235Y26261D01*
X462294Y26311D01*
X462355Y26359D01*
X462418Y26404D01*
X462484Y26445D01*
X462551Y26483D01*
X462620Y26518D01*
X462691Y26550D01*
X462764Y26578D01*
X462837Y26602D01*
X462912Y26623D01*
X462988Y26640D01*
X463064Y26653D01*
X463141Y26662D01*
X463219Y26668D01*
X463296Y26670D01*
X463402Y26668D01*
X463508Y26662D01*
X463613Y26653D01*
X463718Y26640D01*
X463823Y26623D01*
X463927Y26602D01*
X464030Y26578D01*
X464132Y26550D01*
X464233Y26518D01*
X464333Y26483D01*
X464431Y26444D01*
X464529Y26401D01*
X464624Y26356D01*
X464718Y26307D01*
X464810Y26254D01*
X464900Y26198D01*
X464988Y26139D01*
X465074Y26077D01*
X462506Y23707D02*
X462439Y23749D01*
X462374Y23794D01*
X462311Y23843D01*
X462250Y23894D01*
X462193Y23949D01*
X462138Y24006D01*
X462085Y24066D01*
X462036Y24128D01*
X461990Y24193D01*
X461948Y24259D01*
X461908Y24328D01*
X461872Y24399D01*
X461840Y24472D01*
X461811Y24546D01*
X461786Y24621D01*
X461765Y24697D01*
X461747Y24775D01*
X461734Y24853D01*
X461724Y24932D01*
X461718Y25011D01*
X461716Y25090D01*
X464679Y22521D02*
X464746Y22479D01*
X464811Y22434D01*
X464874Y22385D01*
X464935Y22334D01*
X464992Y22279D01*
X465047Y22222D01*
X465100Y22162D01*
X465149Y22100D01*
X465195Y22035D01*
X465237Y21969D01*
X465277Y21900D01*
X465313Y21829D01*
X465345Y21756D01*
X465374Y21682D01*
X465399Y21607D01*
X465420Y21531D01*
X465438Y21453D01*
X465451Y21375D01*
X465461Y21296D01*
X465467Y21217D01*
X465469Y21138D01*
X464679Y22521D02*
X462506Y23707D01*
X468833Y26670D02*
X468833Y19558D01*
X468833Y26670D02*
X470809Y26670D01*
X470895Y26668D01*
X470981Y26662D01*
X471067Y26653D01*
X471152Y26640D01*
X471237Y26623D01*
X471320Y26603D01*
X471403Y26579D01*
X471485Y26551D01*
X471565Y26520D01*
X471644Y26485D01*
X471721Y26447D01*
X471797Y26405D01*
X471871Y26361D01*
X471942Y26313D01*
X472012Y26262D01*
X472079Y26208D01*
X472144Y26151D01*
X472206Y26091D01*
X472266Y26029D01*
X472323Y25964D01*
X472377Y25897D01*
X472428Y25827D01*
X472476Y25756D01*
X472520Y25682D01*
X472562Y25606D01*
X472600Y25529D01*
X472635Y25450D01*
X472666Y25370D01*
X472694Y25288D01*
X472718Y25205D01*
X472738Y25122D01*
X472755Y25037D01*
X472768Y24952D01*
X472777Y24866D01*
X472783Y24780D01*
X472785Y24694D01*
X472784Y24694D02*
X472784Y21534D01*
X472785Y21534D02*
X472783Y21448D01*
X472777Y21362D01*
X472768Y21276D01*
X472755Y21191D01*
X472738Y21106D01*
X472718Y21023D01*
X472694Y20940D01*
X472666Y20858D01*
X472635Y20778D01*
X472600Y20699D01*
X472562Y20622D01*
X472520Y20546D01*
X472476Y20472D01*
X472428Y20401D01*
X472377Y20331D01*
X472323Y20264D01*
X472266Y20199D01*
X472206Y20137D01*
X472144Y20077D01*
X472079Y20020D01*
X472012Y19966D01*
X471942Y19915D01*
X471871Y19867D01*
X471797Y19823D01*
X471721Y19781D01*
X471644Y19743D01*
X471565Y19708D01*
X471485Y19677D01*
X471403Y19649D01*
X471320Y19625D01*
X471237Y19605D01*
X471152Y19588D01*
X471067Y19575D01*
X470981Y19566D01*
X470895Y19560D01*
X470809Y19558D01*
X468833Y19558D01*
X475997Y19558D02*
X478368Y26670D01*
X480738Y19558D01*
X480146Y21336D02*
X476590Y21336D01*
D12*
X83492Y133985D02*
X79540Y133985D01*
X79540Y142875D01*
X83492Y142875D01*
X82504Y138924D02*
X79540Y138924D01*
X87253Y137442D02*
X93180Y137442D01*
X90216Y134479D02*
X90216Y140406D01*
X83492Y196215D02*
X79540Y196215D01*
X79540Y205105D01*
X83492Y205105D01*
X82504Y201154D02*
X79540Y201154D01*
X87253Y199672D02*
X93180Y199672D01*
X83859Y156281D02*
X83857Y156195D01*
X83851Y156109D01*
X83842Y156023D01*
X83829Y155938D01*
X83812Y155853D01*
X83792Y155770D01*
X83768Y155687D01*
X83740Y155605D01*
X83709Y155525D01*
X83674Y155446D01*
X83636Y155369D01*
X83594Y155293D01*
X83550Y155219D01*
X83502Y155148D01*
X83451Y155078D01*
X83397Y155011D01*
X83340Y154946D01*
X83280Y154884D01*
X83218Y154824D01*
X83153Y154767D01*
X83086Y154713D01*
X83016Y154662D01*
X82945Y154614D01*
X82871Y154570D01*
X82795Y154528D01*
X82718Y154490D01*
X82639Y154455D01*
X82559Y154424D01*
X82477Y154396D01*
X82394Y154372D01*
X82311Y154352D01*
X82226Y154335D01*
X82141Y154322D01*
X82055Y154313D01*
X81969Y154307D01*
X81883Y154305D01*
X81756Y154307D01*
X81630Y154313D01*
X81503Y154322D01*
X81377Y154336D01*
X81252Y154353D01*
X81127Y154374D01*
X81003Y154399D01*
X80879Y154428D01*
X80757Y154460D01*
X80635Y154496D01*
X80515Y154536D01*
X80396Y154579D01*
X80278Y154626D01*
X80162Y154677D01*
X80047Y154731D01*
X79934Y154788D01*
X79823Y154849D01*
X79714Y154913D01*
X79607Y154981D01*
X79501Y155051D01*
X79398Y155125D01*
X79298Y155202D01*
X79200Y155282D01*
X79104Y155365D01*
X79011Y155451D01*
X78920Y155540D01*
X79166Y161219D02*
X79168Y161305D01*
X79174Y161391D01*
X79183Y161477D01*
X79196Y161562D01*
X79213Y161647D01*
X79233Y161730D01*
X79257Y161813D01*
X79285Y161895D01*
X79316Y161975D01*
X79351Y162054D01*
X79389Y162131D01*
X79431Y162207D01*
X79475Y162281D01*
X79523Y162352D01*
X79574Y162422D01*
X79628Y162489D01*
X79685Y162554D01*
X79745Y162616D01*
X79807Y162676D01*
X79872Y162733D01*
X79939Y162787D01*
X80009Y162838D01*
X80080Y162886D01*
X80154Y162930D01*
X80230Y162972D01*
X80307Y163010D01*
X80386Y163045D01*
X80466Y163076D01*
X80548Y163104D01*
X80631Y163128D01*
X80714Y163148D01*
X80799Y163165D01*
X80884Y163178D01*
X80970Y163187D01*
X81056Y163193D01*
X81142Y163195D01*
X81261Y163193D01*
X81380Y163187D01*
X81499Y163178D01*
X81617Y163164D01*
X81735Y163147D01*
X81853Y163126D01*
X81969Y163101D01*
X82085Y163073D01*
X82200Y163041D01*
X82313Y163005D01*
X82426Y162965D01*
X82537Y162922D01*
X82647Y162876D01*
X82755Y162826D01*
X82861Y162772D01*
X82966Y162715D01*
X83068Y162655D01*
X83169Y162591D01*
X83268Y162524D01*
X83364Y162454D01*
X80155Y159491D02*
X80081Y159536D01*
X80009Y159585D01*
X79939Y159637D01*
X79872Y159692D01*
X79807Y159750D01*
X79745Y159810D01*
X79686Y159873D01*
X79629Y159939D01*
X79575Y160007D01*
X79524Y160077D01*
X79476Y160149D01*
X79431Y160224D01*
X79390Y160300D01*
X79352Y160378D01*
X79317Y160458D01*
X79286Y160539D01*
X79258Y160621D01*
X79234Y160704D01*
X79214Y160788D01*
X79197Y160874D01*
X79184Y160959D01*
X79175Y161046D01*
X79169Y161132D01*
X79167Y161219D01*
X82870Y158009D02*
X82944Y157964D01*
X83016Y157915D01*
X83086Y157863D01*
X83153Y157808D01*
X83218Y157750D01*
X83280Y157690D01*
X83340Y157627D01*
X83396Y157561D01*
X83450Y157493D01*
X83501Y157423D01*
X83549Y157351D01*
X83594Y157276D01*
X83635Y157200D01*
X83673Y157122D01*
X83708Y157042D01*
X83739Y156961D01*
X83767Y156879D01*
X83791Y156796D01*
X83811Y156712D01*
X83828Y156626D01*
X83841Y156541D01*
X83850Y156454D01*
X83856Y156368D01*
X83858Y156281D01*
X82870Y158009D02*
X80154Y159491D01*
X87874Y157762D02*
X93801Y157762D01*
X90837Y154799D02*
X90837Y160726D01*
X81883Y175895D02*
X81969Y175897D01*
X82055Y175903D01*
X82141Y175912D01*
X82226Y175925D01*
X82311Y175942D01*
X82394Y175962D01*
X82477Y175986D01*
X82559Y176014D01*
X82639Y176045D01*
X82718Y176080D01*
X82795Y176118D01*
X82871Y176160D01*
X82945Y176204D01*
X83016Y176252D01*
X83086Y176303D01*
X83153Y176357D01*
X83218Y176414D01*
X83280Y176474D01*
X83340Y176536D01*
X83397Y176601D01*
X83451Y176668D01*
X83502Y176738D01*
X83550Y176809D01*
X83594Y176883D01*
X83636Y176959D01*
X83674Y177036D01*
X83709Y177115D01*
X83740Y177195D01*
X83768Y177277D01*
X83792Y177360D01*
X83812Y177443D01*
X83829Y177528D01*
X83842Y177613D01*
X83851Y177699D01*
X83857Y177785D01*
X83859Y177871D01*
X81883Y175895D02*
X81756Y175897D01*
X81630Y175903D01*
X81503Y175912D01*
X81377Y175926D01*
X81252Y175943D01*
X81127Y175964D01*
X81003Y175989D01*
X80879Y176018D01*
X80757Y176050D01*
X80635Y176086D01*
X80515Y176126D01*
X80396Y176169D01*
X80278Y176216D01*
X80162Y176267D01*
X80047Y176321D01*
X79934Y176378D01*
X79823Y176439D01*
X79714Y176503D01*
X79607Y176571D01*
X79501Y176641D01*
X79398Y176715D01*
X79298Y176792D01*
X79200Y176872D01*
X79104Y176955D01*
X79011Y177041D01*
X78920Y177130D01*
X79166Y182809D02*
X79168Y182895D01*
X79174Y182981D01*
X79183Y183067D01*
X79196Y183152D01*
X79213Y183237D01*
X79233Y183320D01*
X79257Y183403D01*
X79285Y183485D01*
X79316Y183565D01*
X79351Y183644D01*
X79389Y183721D01*
X79431Y183797D01*
X79475Y183871D01*
X79523Y183942D01*
X79574Y184012D01*
X79628Y184079D01*
X79685Y184144D01*
X79745Y184206D01*
X79807Y184266D01*
X79872Y184323D01*
X79939Y184377D01*
X80009Y184428D01*
X80080Y184476D01*
X80154Y184520D01*
X80230Y184562D01*
X80307Y184600D01*
X80386Y184635D01*
X80466Y184666D01*
X80548Y184694D01*
X80631Y184718D01*
X80714Y184738D01*
X80799Y184755D01*
X80884Y184768D01*
X80970Y184777D01*
X81056Y184783D01*
X81142Y184785D01*
X81261Y184783D01*
X81380Y184777D01*
X81499Y184768D01*
X81617Y184754D01*
X81735Y184737D01*
X81853Y184716D01*
X81969Y184691D01*
X82085Y184663D01*
X82200Y184631D01*
X82313Y184595D01*
X82426Y184555D01*
X82537Y184512D01*
X82647Y184466D01*
X82755Y184416D01*
X82861Y184362D01*
X82966Y184305D01*
X83068Y184245D01*
X83169Y184181D01*
X83268Y184114D01*
X83364Y184044D01*
X80155Y181081D02*
X80081Y181126D01*
X80009Y181175D01*
X79939Y181227D01*
X79872Y181282D01*
X79807Y181340D01*
X79745Y181400D01*
X79686Y181463D01*
X79629Y181529D01*
X79575Y181597D01*
X79524Y181667D01*
X79476Y181739D01*
X79431Y181814D01*
X79390Y181890D01*
X79352Y181968D01*
X79317Y182048D01*
X79286Y182129D01*
X79258Y182211D01*
X79234Y182294D01*
X79214Y182378D01*
X79197Y182464D01*
X79184Y182549D01*
X79175Y182636D01*
X79169Y182722D01*
X79167Y182809D01*
X82870Y179599D02*
X82944Y179554D01*
X83016Y179505D01*
X83086Y179453D01*
X83153Y179398D01*
X83218Y179340D01*
X83280Y179280D01*
X83340Y179217D01*
X83396Y179151D01*
X83450Y179083D01*
X83501Y179013D01*
X83549Y178941D01*
X83594Y178866D01*
X83635Y178790D01*
X83673Y178712D01*
X83708Y178632D01*
X83739Y178551D01*
X83767Y178469D01*
X83791Y178386D01*
X83811Y178302D01*
X83828Y178216D01*
X83841Y178131D01*
X83850Y178044D01*
X83856Y177958D01*
X83858Y177871D01*
X82870Y179599D02*
X80154Y181081D01*
X87874Y179352D02*
X93801Y179352D01*
D11*
X281277Y68975D02*
X282463Y68975D01*
X282463Y65024D01*
X280092Y65024D01*
X280014Y65026D01*
X279937Y65032D01*
X279860Y65041D01*
X279784Y65054D01*
X279708Y65071D01*
X279633Y65092D01*
X279560Y65116D01*
X279487Y65144D01*
X279416Y65176D01*
X279347Y65211D01*
X279280Y65249D01*
X279214Y65290D01*
X279151Y65335D01*
X279090Y65383D01*
X279031Y65433D01*
X278975Y65487D01*
X278921Y65543D01*
X278871Y65602D01*
X278823Y65663D01*
X278778Y65726D01*
X278737Y65792D01*
X278699Y65859D01*
X278664Y65928D01*
X278632Y65999D01*
X278604Y66072D01*
X278580Y66145D01*
X278559Y66220D01*
X278542Y66296D01*
X278529Y66372D01*
X278520Y66449D01*
X278514Y66526D01*
X278512Y66604D01*
X278512Y70556D01*
X278514Y70634D01*
X278520Y70711D01*
X278529Y70788D01*
X278542Y70864D01*
X278559Y70940D01*
X278580Y71015D01*
X278604Y71088D01*
X278632Y71161D01*
X278664Y71232D01*
X278699Y71301D01*
X278737Y71368D01*
X278778Y71434D01*
X278823Y71497D01*
X278871Y71558D01*
X278921Y71617D01*
X278975Y71673D01*
X279031Y71727D01*
X279090Y71777D01*
X279151Y71825D01*
X279214Y71870D01*
X279280Y71911D01*
X279347Y71949D01*
X279416Y71984D01*
X279487Y72016D01*
X279560Y72044D01*
X279633Y72068D01*
X279708Y72089D01*
X279784Y72106D01*
X279860Y72119D01*
X279937Y72128D01*
X280014Y72134D01*
X280092Y72136D01*
X282463Y72136D01*
X286314Y72136D02*
X286314Y65024D01*
X290266Y65024D02*
X286314Y72136D01*
X290266Y72136D02*
X290266Y65024D01*
X294117Y65024D02*
X294117Y72136D01*
X296093Y72136D01*
X296179Y72134D01*
X296265Y72128D01*
X296351Y72119D01*
X296436Y72106D01*
X296521Y72089D01*
X296604Y72069D01*
X296687Y72045D01*
X296769Y72017D01*
X296849Y71986D01*
X296928Y71951D01*
X297005Y71913D01*
X297081Y71871D01*
X297155Y71827D01*
X297226Y71779D01*
X297296Y71728D01*
X297363Y71674D01*
X297428Y71617D01*
X297490Y71557D01*
X297550Y71495D01*
X297607Y71430D01*
X297661Y71363D01*
X297712Y71293D01*
X297760Y71222D01*
X297804Y71148D01*
X297846Y71072D01*
X297884Y70995D01*
X297919Y70916D01*
X297950Y70836D01*
X297978Y70754D01*
X298002Y70671D01*
X298022Y70588D01*
X298039Y70503D01*
X298052Y70418D01*
X298061Y70332D01*
X298067Y70246D01*
X298069Y70160D01*
X298068Y70160D02*
X298068Y67000D01*
X298069Y67000D02*
X298067Y66914D01*
X298061Y66828D01*
X298052Y66742D01*
X298039Y66657D01*
X298022Y66572D01*
X298002Y66489D01*
X297978Y66406D01*
X297950Y66324D01*
X297919Y66244D01*
X297884Y66165D01*
X297846Y66088D01*
X297804Y66012D01*
X297760Y65938D01*
X297712Y65867D01*
X297661Y65797D01*
X297607Y65730D01*
X297550Y65665D01*
X297490Y65603D01*
X297428Y65543D01*
X297363Y65486D01*
X297296Y65432D01*
X297226Y65381D01*
X297155Y65333D01*
X297081Y65289D01*
X297005Y65247D01*
X296928Y65209D01*
X296849Y65174D01*
X296769Y65143D01*
X296687Y65115D01*
X296604Y65091D01*
X296521Y65071D01*
X296436Y65054D01*
X296351Y65041D01*
X296265Y65032D01*
X296179Y65026D01*
X296093Y65024D01*
X294117Y65024D01*
D12*
X90593Y67592D02*
X84667Y67592D01*
X87630Y64629D02*
X87630Y70556D01*
X84667Y25682D02*
X90593Y25682D01*
D11*
X334879Y65024D02*
X336855Y65024D01*
X336942Y65026D01*
X337030Y65032D01*
X337117Y65041D01*
X337203Y65055D01*
X337289Y65072D01*
X337373Y65093D01*
X337457Y65118D01*
X337540Y65147D01*
X337621Y65179D01*
X337701Y65214D01*
X337779Y65253D01*
X337856Y65296D01*
X337930Y65342D01*
X338002Y65391D01*
X338072Y65443D01*
X338140Y65499D01*
X338205Y65557D01*
X338268Y65618D01*
X338327Y65682D01*
X338384Y65749D01*
X338438Y65817D01*
X338489Y65889D01*
X338536Y65962D01*
X338581Y66037D01*
X338622Y66115D01*
X338659Y66194D01*
X338693Y66274D01*
X338723Y66356D01*
X338750Y66439D01*
X338773Y66524D01*
X338792Y66609D01*
X338807Y66695D01*
X338819Y66782D01*
X338827Y66869D01*
X338831Y66956D01*
X338831Y67044D01*
X338827Y67131D01*
X338819Y67218D01*
X338807Y67305D01*
X338792Y67391D01*
X338773Y67476D01*
X338750Y67561D01*
X338723Y67644D01*
X338693Y67726D01*
X338659Y67806D01*
X338622Y67885D01*
X338581Y67963D01*
X338536Y68038D01*
X338489Y68111D01*
X338438Y68183D01*
X338384Y68251D01*
X338327Y68318D01*
X338268Y68382D01*
X338205Y68443D01*
X338140Y68501D01*
X338072Y68557D01*
X338002Y68609D01*
X337930Y68658D01*
X337856Y68704D01*
X337779Y68747D01*
X337701Y68786D01*
X337621Y68821D01*
X337540Y68853D01*
X337457Y68882D01*
X337373Y68907D01*
X337289Y68928D01*
X337203Y68945D01*
X337117Y68959D01*
X337030Y68968D01*
X336942Y68974D01*
X336855Y68976D01*
X337250Y72136D02*
X334879Y72136D01*
X337250Y72136D02*
X337329Y72134D01*
X337407Y72128D01*
X337485Y72118D01*
X337563Y72105D01*
X337640Y72087D01*
X337716Y72066D01*
X337790Y72041D01*
X337864Y72012D01*
X337936Y71980D01*
X338006Y71944D01*
X338074Y71904D01*
X338140Y71861D01*
X338204Y71815D01*
X338266Y71766D01*
X338325Y71714D01*
X338381Y71659D01*
X338435Y71601D01*
X338485Y71541D01*
X338533Y71478D01*
X338577Y71413D01*
X338618Y71346D01*
X338656Y71277D01*
X338690Y71206D01*
X338721Y71133D01*
X338748Y71059D01*
X338771Y70984D01*
X338790Y70908D01*
X338806Y70830D01*
X338818Y70752D01*
X338826Y70674D01*
X338830Y70595D01*
X338830Y70517D01*
X338826Y70438D01*
X338818Y70360D01*
X338806Y70282D01*
X338790Y70204D01*
X338771Y70128D01*
X338748Y70053D01*
X338721Y69979D01*
X338690Y69906D01*
X338656Y69835D01*
X338618Y69766D01*
X338577Y69699D01*
X338533Y69634D01*
X338485Y69571D01*
X338435Y69511D01*
X338381Y69453D01*
X338325Y69398D01*
X338266Y69346D01*
X338204Y69297D01*
X338140Y69251D01*
X338074Y69208D01*
X338006Y69168D01*
X337936Y69132D01*
X337864Y69100D01*
X337790Y69071D01*
X337716Y69046D01*
X337640Y69025D01*
X337563Y69007D01*
X337485Y68994D01*
X337407Y68984D01*
X337329Y68978D01*
X337250Y68976D01*
X337250Y68975D02*
X335669Y68975D01*
X341799Y72136D02*
X344170Y65024D01*
X346541Y72136D01*
X349510Y65024D02*
X351485Y65024D01*
X351572Y65026D01*
X351660Y65032D01*
X351747Y65041D01*
X351833Y65055D01*
X351919Y65072D01*
X352003Y65093D01*
X352087Y65118D01*
X352170Y65147D01*
X352251Y65179D01*
X352331Y65214D01*
X352409Y65253D01*
X352486Y65296D01*
X352560Y65342D01*
X352632Y65391D01*
X352702Y65443D01*
X352770Y65499D01*
X352835Y65557D01*
X352898Y65618D01*
X352957Y65682D01*
X353014Y65749D01*
X353068Y65817D01*
X353119Y65889D01*
X353166Y65962D01*
X353211Y66037D01*
X353252Y66115D01*
X353289Y66194D01*
X353323Y66274D01*
X353353Y66356D01*
X353380Y66439D01*
X353403Y66524D01*
X353422Y66609D01*
X353437Y66695D01*
X353449Y66782D01*
X353457Y66869D01*
X353461Y66956D01*
X353461Y67044D01*
X353457Y67131D01*
X353449Y67218D01*
X353437Y67305D01*
X353422Y67391D01*
X353403Y67476D01*
X353380Y67561D01*
X353353Y67644D01*
X353323Y67726D01*
X353289Y67806D01*
X353252Y67885D01*
X353211Y67963D01*
X353166Y68038D01*
X353119Y68111D01*
X353068Y68183D01*
X353014Y68251D01*
X352957Y68318D01*
X352898Y68382D01*
X352835Y68443D01*
X352770Y68501D01*
X352702Y68557D01*
X352632Y68609D01*
X352560Y68658D01*
X352486Y68704D01*
X352409Y68747D01*
X352331Y68786D01*
X352251Y68821D01*
X352170Y68853D01*
X352087Y68882D01*
X352003Y68907D01*
X351919Y68928D01*
X351833Y68945D01*
X351747Y68959D01*
X351660Y68968D01*
X351572Y68974D01*
X351485Y68976D01*
X351880Y72136D02*
X349510Y72136D01*
X351880Y72136D02*
X351959Y72134D01*
X352037Y72128D01*
X352115Y72118D01*
X352193Y72105D01*
X352270Y72087D01*
X352346Y72066D01*
X352420Y72041D01*
X352494Y72012D01*
X352566Y71980D01*
X352636Y71944D01*
X352704Y71904D01*
X352770Y71861D01*
X352834Y71815D01*
X352896Y71766D01*
X352955Y71714D01*
X353011Y71659D01*
X353065Y71601D01*
X353115Y71541D01*
X353163Y71478D01*
X353207Y71413D01*
X353248Y71346D01*
X353286Y71277D01*
X353320Y71206D01*
X353351Y71133D01*
X353378Y71059D01*
X353401Y70984D01*
X353420Y70908D01*
X353436Y70830D01*
X353448Y70752D01*
X353456Y70674D01*
X353460Y70595D01*
X353460Y70517D01*
X353456Y70438D01*
X353448Y70360D01*
X353436Y70282D01*
X353420Y70204D01*
X353401Y70128D01*
X353378Y70053D01*
X353351Y69979D01*
X353320Y69906D01*
X353286Y69835D01*
X353248Y69766D01*
X353207Y69699D01*
X353163Y69634D01*
X353115Y69571D01*
X353065Y69511D01*
X353011Y69453D01*
X352955Y69398D01*
X352896Y69346D01*
X352834Y69297D01*
X352770Y69251D01*
X352704Y69208D01*
X352636Y69168D01*
X352566Y69132D01*
X352494Y69100D01*
X352420Y69071D01*
X352346Y69046D01*
X352270Y69025D01*
X352193Y69007D01*
X352115Y68994D01*
X352037Y68984D01*
X351959Y68978D01*
X351880Y68976D01*
X351880Y68975D02*
X350300Y68975D01*
D12*
X506773Y43569D02*
X523773Y43569D01*
X523773Y27551D02*
X506773Y27551D01*
X509558Y24765D02*
X509558Y15875D01*
X509558Y24765D02*
X512027Y24765D01*
X512125Y24763D01*
X512223Y24757D01*
X512321Y24747D01*
X512418Y24734D01*
X512515Y24716D01*
X512611Y24695D01*
X512705Y24670D01*
X512799Y24641D01*
X512892Y24609D01*
X512983Y24572D01*
X513073Y24533D01*
X513161Y24489D01*
X513247Y24442D01*
X513332Y24392D01*
X513414Y24339D01*
X513494Y24282D01*
X513572Y24222D01*
X513647Y24159D01*
X513720Y24093D01*
X513790Y24024D01*
X513857Y23953D01*
X513922Y23879D01*
X513983Y23802D01*
X514042Y23723D01*
X514097Y23642D01*
X514149Y23559D01*
X514197Y23473D01*
X514242Y23386D01*
X514284Y23297D01*
X514322Y23207D01*
X514356Y23115D01*
X514387Y23022D01*
X514414Y22927D01*
X514437Y22832D01*
X514457Y22735D01*
X514472Y22639D01*
X514484Y22541D01*
X514492Y22443D01*
X514496Y22345D01*
X514496Y22247D01*
X514492Y22149D01*
X514484Y22051D01*
X514472Y21953D01*
X514457Y21857D01*
X514437Y21760D01*
X514414Y21665D01*
X514387Y21570D01*
X514356Y21477D01*
X514322Y21385D01*
X514284Y21295D01*
X514242Y21206D01*
X514197Y21119D01*
X514149Y21033D01*
X514097Y20950D01*
X514042Y20869D01*
X513983Y20790D01*
X513922Y20713D01*
X513857Y20639D01*
X513790Y20568D01*
X513720Y20499D01*
X513647Y20433D01*
X513572Y20370D01*
X513494Y20310D01*
X513414Y20253D01*
X513332Y20200D01*
X513247Y20150D01*
X513161Y20103D01*
X513073Y20059D01*
X512983Y20020D01*
X512892Y19983D01*
X512799Y19951D01*
X512705Y19922D01*
X512611Y19897D01*
X512515Y19876D01*
X512418Y19858D01*
X512321Y19845D01*
X512223Y19835D01*
X512125Y19829D01*
X512027Y19827D01*
X512027Y19826D02*
X509558Y19826D01*
X512521Y19826D02*
X514497Y15875D01*
X518626Y22789D02*
X521096Y24765D01*
X521096Y15875D01*
X523565Y15875D02*
X518626Y15875D01*
D13*
X416560Y154940D02*
X363220Y154940D01*
X363220Y220980D02*
X416560Y220980D01*
D12*
X404495Y233458D02*
X404497Y233550D01*
X404503Y233642D01*
X404512Y233733D01*
X404525Y233824D01*
X404542Y233914D01*
X404563Y234004D01*
X404587Y234092D01*
X404615Y234180D01*
X404647Y234266D01*
X404682Y234351D01*
X404721Y234434D01*
X404763Y234516D01*
X404808Y234596D01*
X404857Y234674D01*
X404909Y234750D01*
X404964Y234823D01*
X405022Y234895D01*
X405082Y234964D01*
X405146Y235030D01*
X405212Y235094D01*
X405281Y235154D01*
X405353Y235212D01*
X405426Y235267D01*
X405502Y235319D01*
X405580Y235368D01*
X405660Y235413D01*
X405742Y235455D01*
X405825Y235494D01*
X405910Y235529D01*
X405996Y235561D01*
X406084Y235589D01*
X406172Y235613D01*
X406262Y235634D01*
X406352Y235651D01*
X406443Y235664D01*
X406534Y235673D01*
X406626Y235679D01*
X406718Y235681D01*
X404495Y233458D02*
X404497Y233352D01*
X404503Y233247D01*
X404513Y233142D01*
X404526Y233037D01*
X404544Y232933D01*
X404565Y232830D01*
X404590Y232727D01*
X404619Y232625D01*
X404652Y232525D01*
X404688Y232426D01*
X404728Y232328D01*
X404772Y232232D01*
X404819Y232137D01*
X404869Y232045D01*
X404923Y231954D01*
X404981Y231865D01*
X405041Y231779D01*
X405105Y231695D01*
X405171Y231613D01*
X405241Y231533D01*
X405314Y231457D01*
X405389Y231383D01*
X405467Y231312D01*
X405548Y231244D01*
X405631Y231178D01*
X405717Y231116D01*
X405804Y231058D01*
X405894Y231002D01*
X405986Y230950D01*
X406080Y230901D01*
X406175Y230856D01*
X406272Y230814D01*
X406371Y230776D01*
X406470Y230742D01*
X408447Y234939D02*
X408378Y235008D01*
X408308Y235074D01*
X408234Y235137D01*
X408158Y235196D01*
X408080Y235253D01*
X408000Y235307D01*
X407917Y235357D01*
X407833Y235404D01*
X407746Y235447D01*
X407658Y235487D01*
X407569Y235523D01*
X407478Y235556D01*
X407386Y235585D01*
X407292Y235610D01*
X407198Y235631D01*
X407103Y235649D01*
X407007Y235662D01*
X406911Y235672D01*
X406815Y235678D01*
X406718Y235680D01*
X408446Y234939D02*
X413385Y230741D01*
X413385Y235680D01*
X404495Y138882D02*
X406471Y136412D01*
X404495Y138882D02*
X413385Y138882D01*
X413385Y141351D02*
X413385Y136412D01*
X408940Y145556D02*
X408765Y145558D01*
X408590Y145564D01*
X408416Y145575D01*
X408241Y145589D01*
X408068Y145608D01*
X407894Y145631D01*
X407721Y145658D01*
X407549Y145689D01*
X407378Y145724D01*
X407208Y145764D01*
X407038Y145807D01*
X406870Y145855D01*
X406703Y145906D01*
X406537Y145961D01*
X406372Y146021D01*
X406209Y146084D01*
X406048Y146151D01*
X405888Y146222D01*
X405730Y146297D01*
X405729Y146298D02*
X405651Y146327D01*
X405573Y146359D01*
X405498Y146396D01*
X405424Y146435D01*
X405352Y146478D01*
X405281Y146524D01*
X405214Y146574D01*
X405148Y146626D01*
X405085Y146681D01*
X405025Y146740D01*
X404967Y146801D01*
X404912Y146864D01*
X404860Y146930D01*
X404811Y146999D01*
X404766Y147069D01*
X404723Y147141D01*
X404684Y147216D01*
X404649Y147292D01*
X404617Y147369D01*
X404589Y147448D01*
X404564Y147529D01*
X404543Y147610D01*
X404526Y147692D01*
X404512Y147775D01*
X404503Y147858D01*
X404497Y147942D01*
X404495Y148026D01*
X404497Y148110D01*
X404503Y148194D01*
X404512Y148277D01*
X404526Y148360D01*
X404543Y148442D01*
X404564Y148523D01*
X404589Y148604D01*
X404617Y148683D01*
X404649Y148760D01*
X404684Y148836D01*
X404723Y148911D01*
X404766Y148983D01*
X404811Y149054D01*
X404860Y149122D01*
X404912Y149188D01*
X404967Y149251D01*
X405025Y149312D01*
X405085Y149371D01*
X405148Y149426D01*
X405214Y149478D01*
X405281Y149528D01*
X405352Y149574D01*
X405424Y149617D01*
X405498Y149656D01*
X405573Y149693D01*
X405651Y149725D01*
X405730Y149754D01*
X405888Y149829D01*
X406048Y149900D01*
X406209Y149967D01*
X406372Y150030D01*
X406537Y150090D01*
X406703Y150145D01*
X406870Y150196D01*
X407038Y150244D01*
X407208Y150287D01*
X407378Y150327D01*
X407549Y150362D01*
X407721Y150393D01*
X407894Y150420D01*
X408068Y150443D01*
X408241Y150462D01*
X408416Y150476D01*
X408590Y150487D01*
X408765Y150493D01*
X408940Y150495D01*
X408940Y145556D02*
X409115Y145558D01*
X409290Y145564D01*
X409464Y145575D01*
X409639Y145589D01*
X409812Y145608D01*
X409986Y145631D01*
X410159Y145658D01*
X410331Y145689D01*
X410502Y145724D01*
X410672Y145764D01*
X410842Y145807D01*
X411010Y145855D01*
X411177Y145906D01*
X411343Y145961D01*
X411508Y146021D01*
X411671Y146084D01*
X411832Y146151D01*
X411992Y146222D01*
X412150Y146297D01*
X412151Y146298D02*
X412229Y146327D01*
X412307Y146359D01*
X412382Y146396D01*
X412456Y146435D01*
X412529Y146478D01*
X412599Y146524D01*
X412666Y146574D01*
X412732Y146626D01*
X412795Y146682D01*
X412856Y146740D01*
X412913Y146801D01*
X412968Y146864D01*
X413020Y146930D01*
X413069Y146999D01*
X413114Y147069D01*
X413157Y147141D01*
X413196Y147216D01*
X413231Y147292D01*
X413263Y147370D01*
X413291Y147449D01*
X413316Y147529D01*
X413337Y147610D01*
X413354Y147692D01*
X413368Y147775D01*
X413377Y147858D01*
X413383Y147942D01*
X413385Y148026D01*
X412150Y149754D02*
X411992Y149829D01*
X411832Y149900D01*
X411671Y149967D01*
X411508Y150030D01*
X411343Y150090D01*
X411177Y150145D01*
X411010Y150196D01*
X410842Y150244D01*
X410672Y150287D01*
X410502Y150327D01*
X410331Y150362D01*
X410159Y150393D01*
X409986Y150420D01*
X409812Y150443D01*
X409639Y150462D01*
X409464Y150476D01*
X409290Y150487D01*
X409115Y150493D01*
X408940Y150495D01*
X412151Y149754D02*
X412229Y149725D01*
X412307Y149693D01*
X412382Y149656D01*
X412456Y149617D01*
X412529Y149574D01*
X412599Y149528D01*
X412666Y149478D01*
X412732Y149426D01*
X412795Y149370D01*
X412855Y149312D01*
X412913Y149251D01*
X412968Y149188D01*
X413020Y149122D01*
X413069Y149053D01*
X413114Y148983D01*
X413157Y148911D01*
X413196Y148836D01*
X413231Y148760D01*
X413263Y148683D01*
X413291Y148604D01*
X413316Y148523D01*
X413337Y148442D01*
X413354Y148360D01*
X413368Y148277D01*
X413377Y148194D01*
X413383Y148110D01*
X413385Y148026D01*
X411409Y146050D02*
X406471Y150001D01*
X368794Y150495D02*
X368794Y147532D01*
X368792Y147446D01*
X368786Y147360D01*
X368777Y147274D01*
X368764Y147189D01*
X368747Y147104D01*
X368727Y147021D01*
X368703Y146938D01*
X368675Y146856D01*
X368644Y146776D01*
X368609Y146697D01*
X368571Y146620D01*
X368529Y146544D01*
X368485Y146470D01*
X368437Y146399D01*
X368386Y146329D01*
X368332Y146262D01*
X368275Y146197D01*
X368215Y146135D01*
X368153Y146075D01*
X368088Y146018D01*
X368021Y145964D01*
X367951Y145913D01*
X367880Y145865D01*
X367806Y145821D01*
X367730Y145779D01*
X367653Y145741D01*
X367574Y145706D01*
X367494Y145675D01*
X367412Y145647D01*
X367329Y145623D01*
X367246Y145603D01*
X367161Y145586D01*
X367076Y145573D01*
X366990Y145564D01*
X366904Y145558D01*
X366818Y145556D01*
X366324Y145556D01*
X366324Y145557D02*
X366226Y145559D01*
X366128Y145565D01*
X366030Y145575D01*
X365933Y145588D01*
X365836Y145606D01*
X365740Y145627D01*
X365646Y145652D01*
X365552Y145681D01*
X365459Y145713D01*
X365368Y145750D01*
X365278Y145789D01*
X365190Y145833D01*
X365104Y145880D01*
X365019Y145930D01*
X364937Y145983D01*
X364857Y146040D01*
X364779Y146100D01*
X364704Y146163D01*
X364631Y146229D01*
X364561Y146298D01*
X364494Y146369D01*
X364429Y146443D01*
X364368Y146520D01*
X364309Y146599D01*
X364254Y146680D01*
X364202Y146763D01*
X364154Y146849D01*
X364109Y146936D01*
X364067Y147025D01*
X364029Y147115D01*
X363995Y147207D01*
X363964Y147300D01*
X363937Y147395D01*
X363914Y147490D01*
X363894Y147587D01*
X363879Y147683D01*
X363867Y147781D01*
X363859Y147879D01*
X363855Y147977D01*
X363855Y148075D01*
X363859Y148173D01*
X363867Y148271D01*
X363879Y148369D01*
X363894Y148465D01*
X363914Y148562D01*
X363937Y148657D01*
X363964Y148752D01*
X363995Y148845D01*
X364029Y148937D01*
X364067Y149027D01*
X364109Y149116D01*
X364154Y149203D01*
X364202Y149289D01*
X364254Y149372D01*
X364309Y149453D01*
X364368Y149532D01*
X364429Y149609D01*
X364494Y149683D01*
X364561Y149754D01*
X364631Y149823D01*
X364704Y149889D01*
X364779Y149952D01*
X364857Y150012D01*
X364937Y150069D01*
X365019Y150122D01*
X365104Y150172D01*
X365190Y150219D01*
X365278Y150263D01*
X365368Y150302D01*
X365459Y150339D01*
X365552Y150371D01*
X365646Y150400D01*
X365740Y150425D01*
X365836Y150446D01*
X365933Y150464D01*
X366030Y150477D01*
X366128Y150487D01*
X366226Y150493D01*
X366324Y150495D01*
X368794Y150495D01*
X368918Y150493D01*
X369042Y150487D01*
X369166Y150477D01*
X369289Y150464D01*
X369412Y150446D01*
X369534Y150425D01*
X369656Y150400D01*
X369777Y150371D01*
X369896Y150338D01*
X370015Y150302D01*
X370132Y150261D01*
X370248Y150218D01*
X370363Y150170D01*
X370476Y150119D01*
X370588Y150064D01*
X370697Y150006D01*
X370805Y149945D01*
X370911Y149880D01*
X371015Y149812D01*
X371116Y149740D01*
X371216Y149666D01*
X371312Y149588D01*
X371407Y149508D01*
X371499Y149424D01*
X371588Y149338D01*
X371674Y149249D01*
X371758Y149157D01*
X371838Y149062D01*
X371916Y148966D01*
X371990Y148866D01*
X372062Y148765D01*
X372130Y148661D01*
X372195Y148555D01*
X372256Y148447D01*
X372314Y148338D01*
X372369Y148226D01*
X372420Y148113D01*
X372468Y147998D01*
X372511Y147882D01*
X372552Y147765D01*
X372588Y147646D01*
X372621Y147527D01*
X372650Y147406D01*
X372675Y147284D01*
X372696Y147162D01*
X372714Y147039D01*
X372727Y146916D01*
X372737Y146792D01*
X372743Y146668D01*
X372745Y146544D01*
D13*
X340335Y207010D02*
X353035Y213360D01*
X340335Y219710D01*
D12*
X349941Y170669D02*
X350027Y170667D01*
X350113Y170661D01*
X350199Y170652D01*
X350284Y170639D01*
X350369Y170622D01*
X350452Y170602D01*
X350535Y170578D01*
X350617Y170550D01*
X350697Y170519D01*
X350776Y170484D01*
X350853Y170446D01*
X350929Y170404D01*
X351003Y170360D01*
X351074Y170312D01*
X351144Y170261D01*
X351211Y170207D01*
X351276Y170150D01*
X351338Y170090D01*
X351398Y170028D01*
X351455Y169963D01*
X351509Y169896D01*
X351560Y169826D01*
X351608Y169755D01*
X351652Y169681D01*
X351694Y169605D01*
X351732Y169528D01*
X351767Y169449D01*
X351798Y169369D01*
X351826Y169287D01*
X351850Y169204D01*
X351870Y169121D01*
X351887Y169036D01*
X351900Y168951D01*
X351909Y168865D01*
X351915Y168779D01*
X351917Y168693D01*
X351918Y168693D02*
X351916Y168566D01*
X351910Y168440D01*
X351901Y168313D01*
X351887Y168187D01*
X351870Y168062D01*
X351849Y167937D01*
X351824Y167812D01*
X351795Y167689D01*
X351763Y167566D01*
X351727Y167445D01*
X351687Y167324D01*
X351644Y167205D01*
X351597Y167088D01*
X351546Y166971D01*
X351492Y166857D01*
X351435Y166744D01*
X351374Y166633D01*
X351310Y166523D01*
X351242Y166416D01*
X351172Y166311D01*
X351098Y166208D01*
X351021Y166107D01*
X350941Y166009D01*
X350858Y165913D01*
X350772Y165820D01*
X350683Y165729D01*
X345003Y165976D02*
X344917Y165978D01*
X344831Y165984D01*
X344745Y165993D01*
X344660Y166006D01*
X344575Y166023D01*
X344492Y166043D01*
X344409Y166067D01*
X344327Y166095D01*
X344247Y166126D01*
X344168Y166161D01*
X344091Y166199D01*
X344015Y166241D01*
X343941Y166285D01*
X343870Y166333D01*
X343800Y166384D01*
X343733Y166438D01*
X343668Y166495D01*
X343606Y166555D01*
X343546Y166617D01*
X343489Y166682D01*
X343435Y166749D01*
X343384Y166819D01*
X343336Y166890D01*
X343292Y166964D01*
X343250Y167040D01*
X343212Y167117D01*
X343177Y167196D01*
X343146Y167276D01*
X343118Y167358D01*
X343094Y167441D01*
X343074Y167524D01*
X343057Y167609D01*
X343044Y167694D01*
X343035Y167780D01*
X343029Y167866D01*
X343027Y167952D01*
X343029Y168071D01*
X343035Y168190D01*
X343044Y168309D01*
X343058Y168427D01*
X343075Y168545D01*
X343096Y168663D01*
X343121Y168779D01*
X343149Y168895D01*
X343181Y169010D01*
X343217Y169123D01*
X343257Y169236D01*
X343300Y169347D01*
X343346Y169457D01*
X343396Y169565D01*
X343450Y169671D01*
X343507Y169776D01*
X343567Y169878D01*
X343631Y169979D01*
X343698Y170078D01*
X343768Y170174D01*
X346731Y166965D02*
X346686Y166891D01*
X346637Y166819D01*
X346585Y166749D01*
X346530Y166682D01*
X346472Y166617D01*
X346412Y166555D01*
X346349Y166496D01*
X346283Y166439D01*
X346215Y166385D01*
X346145Y166334D01*
X346073Y166286D01*
X345998Y166241D01*
X345922Y166200D01*
X345844Y166162D01*
X345764Y166127D01*
X345683Y166096D01*
X345601Y166068D01*
X345518Y166044D01*
X345434Y166024D01*
X345348Y166007D01*
X345263Y165994D01*
X345176Y165985D01*
X345090Y165979D01*
X345003Y165977D01*
X348213Y169680D02*
X348258Y169754D01*
X348307Y169826D01*
X348359Y169896D01*
X348414Y169963D01*
X348472Y170028D01*
X348532Y170090D01*
X348595Y170150D01*
X348661Y170206D01*
X348729Y170260D01*
X348799Y170311D01*
X348871Y170359D01*
X348946Y170404D01*
X349022Y170445D01*
X349100Y170483D01*
X349180Y170518D01*
X349261Y170549D01*
X349343Y170577D01*
X349426Y170601D01*
X349510Y170621D01*
X349596Y170638D01*
X349681Y170651D01*
X349768Y170660D01*
X349854Y170666D01*
X349941Y170668D01*
X348213Y169681D02*
X346731Y166964D01*
X343027Y174306D02*
X351917Y176282D01*
X345990Y178257D01*
X351917Y180233D01*
X343027Y182208D01*
X343027Y186456D02*
X351917Y186456D01*
X343027Y186456D02*
X343027Y188925D01*
X343029Y189022D01*
X343035Y189119D01*
X343044Y189215D01*
X343057Y189311D01*
X343074Y189407D01*
X343095Y189501D01*
X343120Y189595D01*
X343148Y189688D01*
X343180Y189780D01*
X343215Y189870D01*
X343254Y189959D01*
X343296Y190046D01*
X343342Y190131D01*
X343391Y190215D01*
X343443Y190297D01*
X343499Y190376D01*
X343557Y190454D01*
X343619Y190528D01*
X343683Y190601D01*
X343750Y190671D01*
X343820Y190738D01*
X343893Y190802D01*
X343967Y190864D01*
X344045Y190922D01*
X344124Y190978D01*
X344206Y191030D01*
X344290Y191079D01*
X344375Y191125D01*
X344462Y191167D01*
X344551Y191206D01*
X344641Y191241D01*
X344733Y191273D01*
X344826Y191301D01*
X344920Y191326D01*
X345014Y191347D01*
X345110Y191364D01*
X345206Y191377D01*
X345302Y191386D01*
X345399Y191392D01*
X345496Y191394D01*
X345496Y191395D02*
X349448Y191395D01*
X349448Y191394D02*
X349545Y191392D01*
X349642Y191386D01*
X349738Y191377D01*
X349834Y191364D01*
X349930Y191347D01*
X350024Y191326D01*
X350118Y191301D01*
X350211Y191273D01*
X350303Y191241D01*
X350393Y191206D01*
X350482Y191167D01*
X350569Y191125D01*
X350654Y191079D01*
X350738Y191030D01*
X350820Y190978D01*
X350899Y190922D01*
X350977Y190864D01*
X351051Y190802D01*
X351124Y190738D01*
X351194Y190671D01*
X351261Y190601D01*
X351325Y190528D01*
X351387Y190454D01*
X351445Y190376D01*
X351501Y190297D01*
X351553Y190215D01*
X351602Y190131D01*
X351648Y190046D01*
X351690Y189959D01*
X351729Y189870D01*
X351764Y189780D01*
X351796Y189688D01*
X351824Y189595D01*
X351849Y189501D01*
X351870Y189407D01*
X351887Y189311D01*
X351900Y189215D01*
X351909Y189119D01*
X351915Y189022D01*
X351917Y188925D01*
X351917Y186456D01*
X426120Y170040D02*
X426120Y152540D01*
X442102Y152540D02*
X442102Y170040D01*
X438556Y179248D02*
X438556Y181223D01*
X438556Y179248D02*
X438554Y179159D01*
X438548Y179071D01*
X438538Y178983D01*
X438524Y178895D01*
X438506Y178808D01*
X438485Y178722D01*
X438459Y178637D01*
X438430Y178554D01*
X438397Y178471D01*
X438360Y178391D01*
X438320Y178312D01*
X438276Y178235D01*
X438229Y178159D01*
X438179Y178087D01*
X438125Y178016D01*
X438068Y177948D01*
X438008Y177882D01*
X437946Y177820D01*
X437880Y177760D01*
X437812Y177703D01*
X437741Y177649D01*
X437669Y177599D01*
X437594Y177552D01*
X437516Y177508D01*
X437437Y177468D01*
X437357Y177431D01*
X437274Y177398D01*
X437191Y177369D01*
X437106Y177343D01*
X437020Y177322D01*
X436933Y177304D01*
X436845Y177290D01*
X436757Y177280D01*
X436669Y177274D01*
X436580Y177272D01*
X431642Y177272D01*
X431553Y177274D01*
X431465Y177280D01*
X431377Y177290D01*
X431289Y177304D01*
X431202Y177322D01*
X431116Y177343D01*
X431031Y177369D01*
X430948Y177398D01*
X430865Y177431D01*
X430785Y177468D01*
X430706Y177508D01*
X430629Y177552D01*
X430553Y177599D01*
X430481Y177649D01*
X430410Y177703D01*
X430342Y177760D01*
X430276Y177820D01*
X430214Y177882D01*
X430154Y177948D01*
X430097Y178016D01*
X430043Y178087D01*
X429993Y178159D01*
X429946Y178234D01*
X429902Y178312D01*
X429862Y178391D01*
X429825Y178471D01*
X429792Y178554D01*
X429763Y178637D01*
X429737Y178722D01*
X429716Y178808D01*
X429698Y178895D01*
X429684Y178983D01*
X429674Y179071D01*
X429668Y179159D01*
X429666Y179248D01*
X429666Y181223D01*
X431642Y184926D02*
X429666Y187396D01*
X438556Y187396D01*
X438556Y189865D02*
X438556Y184926D01*
X5810Y9850D02*
X5810Y7850D01*
X5810Y9850D02*
X5810Y84850D01*
X5810Y86850D01*
X80810Y86850D01*
X80810Y7850D01*
X5810Y7850D01*
D14*
X5810Y9850D02*
X3310Y9850D01*
X810Y7350D01*
X-9190Y7350D01*
X-9190Y34850D01*
X-9190Y39850D01*
X-9190Y54850D01*
X-9190Y59850D01*
X-9190Y87350D01*
X810Y87350D01*
X3310Y84850D01*
X5810Y84850D01*
X-9190Y34850D02*
X-49190Y34850D01*
X-49190Y39850D01*
X-9190Y39850D01*
X-9190Y54850D02*
X-49190Y54850D01*
X-49190Y59850D01*
X-9190Y59850D01*
D12*
X65810Y39850D02*
X65810Y7850D01*
X65810Y46664D02*
X65810Y48037D01*
X65810Y54850D02*
X65810Y86850D01*
X18341Y93961D02*
X18341Y100875D01*
X18342Y93961D02*
X18340Y93875D01*
X18334Y93789D01*
X18325Y93703D01*
X18312Y93618D01*
X18295Y93533D01*
X18275Y93450D01*
X18251Y93367D01*
X18223Y93285D01*
X18192Y93205D01*
X18157Y93126D01*
X18119Y93049D01*
X18077Y92973D01*
X18033Y92899D01*
X17985Y92828D01*
X17934Y92758D01*
X17880Y92691D01*
X17823Y92626D01*
X17763Y92564D01*
X17701Y92504D01*
X17636Y92447D01*
X17569Y92393D01*
X17499Y92342D01*
X17428Y92294D01*
X17354Y92250D01*
X17278Y92208D01*
X17201Y92170D01*
X17122Y92135D01*
X17042Y92104D01*
X16960Y92076D01*
X16877Y92052D01*
X16794Y92032D01*
X16709Y92015D01*
X16624Y92002D01*
X16538Y91993D01*
X16452Y91987D01*
X16366Y91985D01*
X15378Y91985D01*
X25520Y100876D02*
X25612Y100874D01*
X25704Y100868D01*
X25795Y100859D01*
X25886Y100846D01*
X25976Y100829D01*
X26066Y100808D01*
X26154Y100784D01*
X26242Y100756D01*
X26328Y100724D01*
X26413Y100689D01*
X26496Y100650D01*
X26578Y100608D01*
X26658Y100563D01*
X26736Y100514D01*
X26812Y100462D01*
X26885Y100407D01*
X26957Y100349D01*
X27026Y100289D01*
X27092Y100225D01*
X27156Y100159D01*
X27216Y100090D01*
X27274Y100018D01*
X27329Y99945D01*
X27381Y99869D01*
X27430Y99791D01*
X27475Y99711D01*
X27517Y99629D01*
X27556Y99546D01*
X27591Y99461D01*
X27623Y99375D01*
X27651Y99287D01*
X27675Y99199D01*
X27696Y99109D01*
X27713Y99019D01*
X27726Y98928D01*
X27735Y98837D01*
X27741Y98745D01*
X27743Y98653D01*
X25520Y100875D02*
X25414Y100873D01*
X25309Y100867D01*
X25204Y100857D01*
X25099Y100844D01*
X24995Y100826D01*
X24892Y100805D01*
X24789Y100780D01*
X24687Y100751D01*
X24587Y100718D01*
X24488Y100682D01*
X24390Y100642D01*
X24294Y100598D01*
X24199Y100551D01*
X24107Y100501D01*
X24016Y100447D01*
X23927Y100389D01*
X23841Y100329D01*
X23757Y100265D01*
X23675Y100199D01*
X23595Y100129D01*
X23519Y100056D01*
X23445Y99981D01*
X23374Y99903D01*
X23306Y99822D01*
X23240Y99739D01*
X23178Y99653D01*
X23120Y99566D01*
X23064Y99476D01*
X23012Y99384D01*
X22963Y99290D01*
X22918Y99195D01*
X22876Y99098D01*
X22838Y98999D01*
X22804Y98900D01*
X27001Y96924D02*
X27070Y96993D01*
X27136Y97063D01*
X27199Y97137D01*
X27258Y97213D01*
X27315Y97291D01*
X27369Y97371D01*
X27419Y97454D01*
X27466Y97538D01*
X27509Y97625D01*
X27549Y97713D01*
X27585Y97802D01*
X27618Y97893D01*
X27647Y97985D01*
X27672Y98079D01*
X27693Y98173D01*
X27711Y98268D01*
X27724Y98364D01*
X27734Y98460D01*
X27740Y98556D01*
X27742Y98653D01*
X27001Y96924D02*
X22803Y91985D01*
X27742Y91985D01*
D15*
X344232Y16210D03*
D16*
X346132Y21250D02*
X346132Y42250D01*
X370148Y42250D02*
X370148Y21250D01*
D12*
X350946Y53802D02*
X350946Y60223D01*
X350947Y53802D02*
X350949Y53704D01*
X350955Y53606D01*
X350965Y53508D01*
X350978Y53411D01*
X350996Y53314D01*
X351017Y53218D01*
X351042Y53124D01*
X351071Y53030D01*
X351103Y52937D01*
X351140Y52846D01*
X351179Y52756D01*
X351223Y52668D01*
X351270Y52582D01*
X351320Y52497D01*
X351373Y52415D01*
X351430Y52335D01*
X351490Y52257D01*
X351553Y52182D01*
X351619Y52109D01*
X351688Y52039D01*
X351759Y51972D01*
X351833Y51907D01*
X351910Y51846D01*
X351989Y51787D01*
X352070Y51732D01*
X352153Y51680D01*
X352239Y51632D01*
X352326Y51587D01*
X352415Y51545D01*
X352505Y51507D01*
X352597Y51473D01*
X352690Y51442D01*
X352785Y51415D01*
X352880Y51392D01*
X352977Y51372D01*
X353073Y51357D01*
X353171Y51345D01*
X353269Y51337D01*
X353367Y51333D01*
X353465Y51333D01*
X353563Y51337D01*
X353661Y51345D01*
X353759Y51357D01*
X353855Y51372D01*
X353952Y51392D01*
X354047Y51415D01*
X354142Y51442D01*
X354235Y51473D01*
X354327Y51507D01*
X354417Y51545D01*
X354506Y51587D01*
X354593Y51632D01*
X354679Y51680D01*
X354762Y51732D01*
X354843Y51787D01*
X354922Y51846D01*
X354999Y51907D01*
X355073Y51972D01*
X355144Y52039D01*
X355213Y52109D01*
X355279Y52182D01*
X355342Y52257D01*
X355402Y52335D01*
X355459Y52415D01*
X355512Y52497D01*
X355562Y52582D01*
X355609Y52668D01*
X355653Y52756D01*
X355692Y52846D01*
X355729Y52937D01*
X355761Y53030D01*
X355790Y53124D01*
X355815Y53218D01*
X355836Y53314D01*
X355854Y53411D01*
X355867Y53508D01*
X355877Y53606D01*
X355883Y53704D01*
X355885Y53802D01*
X355885Y60223D01*
X362371Y60223D02*
X360395Y53309D01*
X365334Y53309D01*
X363852Y55284D02*
X363852Y51333D01*
X375531Y40250D02*
X375531Y23250D01*
X391549Y23250D02*
X391549Y40250D01*
X376536Y51435D02*
X376536Y60325D01*
X379006Y60325D01*
X379104Y60323D01*
X379202Y60317D01*
X379300Y60307D01*
X379397Y60294D01*
X379494Y60276D01*
X379590Y60255D01*
X379684Y60230D01*
X379778Y60201D01*
X379871Y60169D01*
X379962Y60132D01*
X380052Y60093D01*
X380140Y60049D01*
X380226Y60002D01*
X380311Y59952D01*
X380393Y59899D01*
X380473Y59842D01*
X380551Y59782D01*
X380626Y59719D01*
X380699Y59653D01*
X380769Y59584D01*
X380836Y59513D01*
X380901Y59439D01*
X380962Y59362D01*
X381021Y59283D01*
X381076Y59202D01*
X381128Y59119D01*
X381176Y59033D01*
X381221Y58946D01*
X381263Y58857D01*
X381301Y58767D01*
X381335Y58675D01*
X381366Y58582D01*
X381393Y58487D01*
X381416Y58392D01*
X381436Y58295D01*
X381451Y58199D01*
X381463Y58101D01*
X381471Y58003D01*
X381475Y57905D01*
X381475Y57807D01*
X381471Y57709D01*
X381463Y57611D01*
X381451Y57513D01*
X381436Y57417D01*
X381416Y57320D01*
X381393Y57225D01*
X381366Y57130D01*
X381335Y57037D01*
X381301Y56945D01*
X381263Y56855D01*
X381221Y56766D01*
X381176Y56679D01*
X381128Y56593D01*
X381076Y56510D01*
X381021Y56429D01*
X380962Y56350D01*
X380901Y56273D01*
X380836Y56199D01*
X380769Y56128D01*
X380699Y56059D01*
X380626Y55993D01*
X380551Y55930D01*
X380473Y55870D01*
X380393Y55813D01*
X380311Y55760D01*
X380226Y55710D01*
X380140Y55663D01*
X380052Y55619D01*
X379962Y55580D01*
X379871Y55543D01*
X379778Y55511D01*
X379684Y55482D01*
X379590Y55457D01*
X379494Y55436D01*
X379397Y55418D01*
X379300Y55405D01*
X379202Y55395D01*
X379104Y55389D01*
X379006Y55387D01*
X379006Y55386D02*
X376536Y55386D01*
X379500Y55386D02*
X381475Y51435D01*
X385605Y53411D02*
X387580Y60325D01*
X385605Y53411D02*
X390544Y53411D01*
X389062Y55386D02*
X389062Y51435D01*
D13*
X169963Y142392D02*
X169963Y187350D01*
X221017Y187350D02*
X221017Y142392D01*
X221017Y161823D02*
X220908Y161825D01*
X220800Y161831D01*
X220691Y161840D01*
X220583Y161854D01*
X220476Y161871D01*
X220369Y161893D01*
X220263Y161918D01*
X220158Y161946D01*
X220054Y161979D01*
X219952Y162015D01*
X219851Y162055D01*
X219751Y162098D01*
X219653Y162145D01*
X219556Y162196D01*
X219462Y162250D01*
X219369Y162307D01*
X219279Y162367D01*
X219190Y162431D01*
X219104Y162498D01*
X219021Y162567D01*
X218940Y162640D01*
X218862Y162716D01*
X218786Y162794D01*
X218713Y162875D01*
X218644Y162958D01*
X218577Y163044D01*
X218513Y163133D01*
X218453Y163223D01*
X218396Y163316D01*
X218342Y163410D01*
X218291Y163507D01*
X218244Y163605D01*
X218201Y163705D01*
X218161Y163806D01*
X218125Y163908D01*
X218092Y164012D01*
X218064Y164117D01*
X218039Y164223D01*
X218017Y164330D01*
X218000Y164437D01*
X217986Y164545D01*
X217977Y164654D01*
X217971Y164762D01*
X217969Y164871D01*
X217971Y164980D01*
X217977Y165088D01*
X217986Y165197D01*
X218000Y165305D01*
X218017Y165412D01*
X218039Y165519D01*
X218064Y165625D01*
X218092Y165730D01*
X218125Y165834D01*
X218161Y165936D01*
X218201Y166037D01*
X218244Y166137D01*
X218291Y166235D01*
X218342Y166332D01*
X218396Y166426D01*
X218453Y166519D01*
X218513Y166609D01*
X218577Y166698D01*
X218644Y166784D01*
X218713Y166867D01*
X218786Y166948D01*
X218862Y167026D01*
X218940Y167102D01*
X219021Y167175D01*
X219104Y167244D01*
X219190Y167311D01*
X219279Y167375D01*
X219369Y167435D01*
X219462Y167492D01*
X219556Y167546D01*
X219653Y167597D01*
X219751Y167644D01*
X219851Y167687D01*
X219952Y167727D01*
X220054Y167763D01*
X220158Y167796D01*
X220263Y167824D01*
X220369Y167849D01*
X220476Y167871D01*
X220583Y167888D01*
X220691Y167902D01*
X220800Y167911D01*
X220908Y167917D01*
X221017Y167919D01*
D15*
X226581Y195522D03*
D12*
X206683Y209795D02*
X206683Y216216D01*
X206683Y209795D02*
X206685Y209697D01*
X206691Y209599D01*
X206701Y209501D01*
X206714Y209404D01*
X206732Y209307D01*
X206753Y209211D01*
X206778Y209117D01*
X206807Y209023D01*
X206839Y208930D01*
X206876Y208839D01*
X206915Y208749D01*
X206959Y208661D01*
X207006Y208575D01*
X207056Y208490D01*
X207109Y208408D01*
X207166Y208328D01*
X207226Y208250D01*
X207289Y208175D01*
X207355Y208102D01*
X207424Y208032D01*
X207495Y207965D01*
X207569Y207900D01*
X207646Y207839D01*
X207725Y207780D01*
X207806Y207725D01*
X207889Y207673D01*
X207975Y207625D01*
X208062Y207580D01*
X208151Y207538D01*
X208241Y207500D01*
X208333Y207466D01*
X208426Y207435D01*
X208521Y207408D01*
X208616Y207385D01*
X208713Y207365D01*
X208809Y207350D01*
X208907Y207338D01*
X209005Y207330D01*
X209103Y207326D01*
X209201Y207326D01*
X209299Y207330D01*
X209397Y207338D01*
X209495Y207350D01*
X209591Y207365D01*
X209688Y207385D01*
X209783Y207408D01*
X209878Y207435D01*
X209971Y207466D01*
X210063Y207500D01*
X210153Y207538D01*
X210242Y207580D01*
X210329Y207625D01*
X210415Y207673D01*
X210498Y207725D01*
X210579Y207780D01*
X210658Y207839D01*
X210735Y207900D01*
X210809Y207965D01*
X210880Y208032D01*
X210949Y208102D01*
X211015Y208175D01*
X211078Y208250D01*
X211138Y208328D01*
X211195Y208408D01*
X211248Y208490D01*
X211298Y208575D01*
X211345Y208661D01*
X211389Y208749D01*
X211428Y208839D01*
X211465Y208930D01*
X211497Y209023D01*
X211526Y209117D01*
X211551Y209211D01*
X211572Y209307D01*
X211590Y209404D01*
X211603Y209501D01*
X211613Y209599D01*
X211619Y209697D01*
X211621Y209795D01*
X211622Y209795D02*
X211622Y216216D01*
X216132Y212265D02*
X219095Y212265D01*
X219181Y212263D01*
X219267Y212257D01*
X219353Y212248D01*
X219438Y212235D01*
X219523Y212218D01*
X219606Y212198D01*
X219689Y212174D01*
X219771Y212146D01*
X219851Y212115D01*
X219930Y212080D01*
X220007Y212042D01*
X220083Y212000D01*
X220157Y211956D01*
X220228Y211908D01*
X220298Y211857D01*
X220365Y211803D01*
X220430Y211746D01*
X220492Y211686D01*
X220552Y211624D01*
X220609Y211559D01*
X220663Y211492D01*
X220714Y211422D01*
X220762Y211351D01*
X220806Y211277D01*
X220848Y211201D01*
X220886Y211124D01*
X220921Y211045D01*
X220952Y210965D01*
X220980Y210883D01*
X221004Y210800D01*
X221024Y210717D01*
X221041Y210632D01*
X221054Y210547D01*
X221063Y210461D01*
X221069Y210375D01*
X221071Y210289D01*
X221071Y209795D01*
X221070Y209795D02*
X221068Y209697D01*
X221062Y209599D01*
X221052Y209501D01*
X221039Y209404D01*
X221021Y209307D01*
X221000Y209211D01*
X220975Y209117D01*
X220946Y209023D01*
X220914Y208930D01*
X220877Y208839D01*
X220838Y208749D01*
X220794Y208661D01*
X220747Y208575D01*
X220697Y208490D01*
X220644Y208408D01*
X220587Y208328D01*
X220527Y208250D01*
X220464Y208175D01*
X220398Y208102D01*
X220329Y208032D01*
X220258Y207965D01*
X220184Y207900D01*
X220107Y207839D01*
X220028Y207780D01*
X219947Y207725D01*
X219864Y207673D01*
X219778Y207625D01*
X219691Y207580D01*
X219602Y207538D01*
X219512Y207500D01*
X219420Y207466D01*
X219327Y207435D01*
X219232Y207408D01*
X219137Y207385D01*
X219040Y207365D01*
X218944Y207350D01*
X218846Y207338D01*
X218748Y207330D01*
X218650Y207326D01*
X218552Y207326D01*
X218454Y207330D01*
X218356Y207338D01*
X218258Y207350D01*
X218162Y207365D01*
X218065Y207385D01*
X217970Y207408D01*
X217875Y207435D01*
X217782Y207466D01*
X217690Y207500D01*
X217600Y207538D01*
X217511Y207580D01*
X217424Y207625D01*
X217338Y207673D01*
X217255Y207725D01*
X217174Y207780D01*
X217095Y207839D01*
X217018Y207900D01*
X216944Y207965D01*
X216873Y208032D01*
X216804Y208102D01*
X216738Y208175D01*
X216675Y208250D01*
X216615Y208328D01*
X216558Y208408D01*
X216505Y208490D01*
X216455Y208575D01*
X216408Y208661D01*
X216364Y208749D01*
X216325Y208839D01*
X216288Y208930D01*
X216256Y209023D01*
X216227Y209117D01*
X216202Y209211D01*
X216181Y209307D01*
X216163Y209404D01*
X216150Y209501D01*
X216140Y209599D01*
X216134Y209697D01*
X216132Y209795D01*
X216132Y212265D01*
X216134Y212389D01*
X216140Y212513D01*
X216150Y212637D01*
X216163Y212760D01*
X216181Y212883D01*
X216202Y213005D01*
X216227Y213127D01*
X216256Y213248D01*
X216289Y213367D01*
X216325Y213486D01*
X216366Y213603D01*
X216409Y213719D01*
X216457Y213834D01*
X216508Y213947D01*
X216563Y214059D01*
X216621Y214168D01*
X216682Y214276D01*
X216747Y214382D01*
X216815Y214486D01*
X216887Y214587D01*
X216961Y214687D01*
X217039Y214783D01*
X217119Y214878D01*
X217203Y214970D01*
X217289Y215059D01*
X217378Y215145D01*
X217470Y215229D01*
X217565Y215309D01*
X217661Y215387D01*
X217761Y215461D01*
X217862Y215533D01*
X217966Y215601D01*
X218072Y215666D01*
X218180Y215727D01*
X218289Y215785D01*
X218401Y215840D01*
X218514Y215891D01*
X218629Y215939D01*
X218745Y215982D01*
X218862Y216023D01*
X218981Y216059D01*
X219100Y216092D01*
X219221Y216121D01*
X219343Y216146D01*
X219465Y216167D01*
X219588Y216185D01*
X219711Y216198D01*
X219835Y216208D01*
X219959Y216214D01*
X220083Y216216D01*
X247957Y193880D02*
X247957Y171880D01*
X227023Y171880D02*
X227023Y193880D01*
X260985Y177306D02*
X260985Y175331D01*
X260983Y175242D01*
X260977Y175154D01*
X260967Y175066D01*
X260953Y174978D01*
X260935Y174891D01*
X260914Y174805D01*
X260888Y174720D01*
X260859Y174637D01*
X260826Y174554D01*
X260789Y174474D01*
X260749Y174395D01*
X260705Y174318D01*
X260658Y174242D01*
X260608Y174170D01*
X260554Y174099D01*
X260497Y174031D01*
X260437Y173965D01*
X260375Y173903D01*
X260309Y173843D01*
X260241Y173786D01*
X260170Y173732D01*
X260098Y173682D01*
X260023Y173635D01*
X259945Y173591D01*
X259866Y173551D01*
X259786Y173514D01*
X259703Y173481D01*
X259620Y173452D01*
X259535Y173426D01*
X259449Y173405D01*
X259362Y173387D01*
X259274Y173373D01*
X259186Y173363D01*
X259098Y173357D01*
X259009Y173355D01*
X254071Y173355D01*
X253982Y173357D01*
X253894Y173363D01*
X253806Y173373D01*
X253718Y173387D01*
X253631Y173405D01*
X253545Y173426D01*
X253460Y173452D01*
X253377Y173481D01*
X253294Y173514D01*
X253214Y173551D01*
X253135Y173591D01*
X253058Y173635D01*
X252982Y173682D01*
X252910Y173732D01*
X252839Y173786D01*
X252771Y173843D01*
X252705Y173903D01*
X252643Y173965D01*
X252583Y174031D01*
X252526Y174099D01*
X252472Y174170D01*
X252422Y174242D01*
X252375Y174317D01*
X252331Y174395D01*
X252291Y174474D01*
X252254Y174554D01*
X252221Y174637D01*
X252192Y174720D01*
X252166Y174805D01*
X252145Y174891D01*
X252127Y174978D01*
X252113Y175066D01*
X252103Y175154D01*
X252097Y175242D01*
X252095Y175331D01*
X252095Y177306D01*
X254071Y181009D02*
X252095Y183478D01*
X260985Y183478D01*
X260985Y181009D02*
X260985Y185948D01*
X259009Y190153D02*
X252095Y192129D01*
X259009Y190153D02*
X259009Y195092D01*
X257034Y193610D02*
X260985Y193610D01*
X229499Y158610D02*
X229499Y141110D01*
X245481Y141110D02*
X245481Y158610D01*
X260985Y142869D02*
X260985Y140894D01*
X260983Y140805D01*
X260977Y140717D01*
X260967Y140629D01*
X260953Y140541D01*
X260935Y140454D01*
X260914Y140368D01*
X260888Y140283D01*
X260859Y140200D01*
X260826Y140117D01*
X260789Y140037D01*
X260749Y139958D01*
X260705Y139881D01*
X260658Y139805D01*
X260608Y139733D01*
X260554Y139662D01*
X260497Y139594D01*
X260437Y139528D01*
X260375Y139466D01*
X260309Y139406D01*
X260241Y139349D01*
X260170Y139295D01*
X260098Y139245D01*
X260023Y139198D01*
X259945Y139154D01*
X259866Y139114D01*
X259786Y139077D01*
X259703Y139044D01*
X259620Y139015D01*
X259535Y138989D01*
X259449Y138968D01*
X259362Y138950D01*
X259274Y138936D01*
X259186Y138926D01*
X259098Y138920D01*
X259009Y138918D01*
X254071Y138918D01*
X253982Y138920D01*
X253894Y138926D01*
X253806Y138936D01*
X253718Y138950D01*
X253631Y138968D01*
X253545Y138989D01*
X253460Y139015D01*
X253377Y139044D01*
X253294Y139077D01*
X253214Y139114D01*
X253135Y139154D01*
X253058Y139198D01*
X252982Y139245D01*
X252910Y139295D01*
X252839Y139349D01*
X252771Y139406D01*
X252705Y139466D01*
X252643Y139528D01*
X252583Y139594D01*
X252526Y139662D01*
X252472Y139733D01*
X252422Y139805D01*
X252375Y139880D01*
X252331Y139958D01*
X252291Y140037D01*
X252254Y140117D01*
X252221Y140200D01*
X252192Y140283D01*
X252166Y140368D01*
X252145Y140454D01*
X252127Y140541D01*
X252113Y140629D01*
X252103Y140717D01*
X252097Y140805D01*
X252095Y140894D01*
X252095Y142869D01*
X254071Y146572D02*
X252095Y149042D01*
X260985Y149042D01*
X260985Y151511D02*
X260985Y146572D01*
X260985Y155716D02*
X260985Y158186D01*
X260983Y158284D01*
X260977Y158382D01*
X260967Y158480D01*
X260954Y158577D01*
X260936Y158674D01*
X260915Y158770D01*
X260890Y158864D01*
X260861Y158958D01*
X260829Y159051D01*
X260792Y159142D01*
X260753Y159232D01*
X260709Y159320D01*
X260662Y159406D01*
X260612Y159491D01*
X260559Y159573D01*
X260502Y159653D01*
X260442Y159731D01*
X260379Y159806D01*
X260313Y159879D01*
X260244Y159949D01*
X260173Y160016D01*
X260099Y160081D01*
X260022Y160142D01*
X259943Y160201D01*
X259862Y160256D01*
X259779Y160308D01*
X259693Y160356D01*
X259606Y160401D01*
X259517Y160443D01*
X259427Y160481D01*
X259335Y160515D01*
X259242Y160546D01*
X259147Y160573D01*
X259052Y160596D01*
X258955Y160616D01*
X258859Y160631D01*
X258761Y160643D01*
X258663Y160651D01*
X258565Y160655D01*
X258467Y160655D01*
X258369Y160651D01*
X258271Y160643D01*
X258173Y160631D01*
X258077Y160616D01*
X257980Y160596D01*
X257885Y160573D01*
X257790Y160546D01*
X257697Y160515D01*
X257605Y160481D01*
X257515Y160443D01*
X257426Y160401D01*
X257339Y160356D01*
X257253Y160308D01*
X257170Y160256D01*
X257089Y160201D01*
X257010Y160142D01*
X256933Y160081D01*
X256859Y160016D01*
X256788Y159949D01*
X256719Y159879D01*
X256653Y159806D01*
X256590Y159731D01*
X256530Y159653D01*
X256473Y159573D01*
X256420Y159491D01*
X256370Y159406D01*
X256323Y159320D01*
X256279Y159232D01*
X256240Y159142D01*
X256203Y159051D01*
X256171Y158958D01*
X256142Y158864D01*
X256117Y158770D01*
X256096Y158674D01*
X256078Y158577D01*
X256065Y158480D01*
X256055Y158382D01*
X256049Y158284D01*
X256047Y158186D01*
X252095Y158679D02*
X252095Y155716D01*
X252095Y158679D02*
X252097Y158766D01*
X252103Y158854D01*
X252112Y158941D01*
X252126Y159027D01*
X252143Y159113D01*
X252164Y159197D01*
X252189Y159281D01*
X252218Y159364D01*
X252250Y159445D01*
X252285Y159525D01*
X252324Y159603D01*
X252367Y159680D01*
X252413Y159754D01*
X252462Y159826D01*
X252514Y159896D01*
X252570Y159964D01*
X252628Y160029D01*
X252689Y160092D01*
X252753Y160151D01*
X252820Y160208D01*
X252888Y160262D01*
X252960Y160313D01*
X253033Y160360D01*
X253108Y160405D01*
X253186Y160446D01*
X253265Y160483D01*
X253345Y160517D01*
X253427Y160547D01*
X253510Y160574D01*
X253595Y160597D01*
X253680Y160616D01*
X253766Y160631D01*
X253853Y160643D01*
X253940Y160651D01*
X254027Y160655D01*
X254115Y160655D01*
X254202Y160651D01*
X254289Y160643D01*
X254376Y160631D01*
X254462Y160616D01*
X254547Y160597D01*
X254632Y160574D01*
X254715Y160547D01*
X254797Y160517D01*
X254877Y160483D01*
X254956Y160446D01*
X255034Y160405D01*
X255109Y160360D01*
X255182Y160313D01*
X255254Y160262D01*
X255322Y160208D01*
X255389Y160151D01*
X255453Y160092D01*
X255514Y160029D01*
X255572Y159964D01*
X255628Y159896D01*
X255680Y159826D01*
X255729Y159754D01*
X255775Y159680D01*
X255818Y159603D01*
X255857Y159525D01*
X255892Y159445D01*
X255924Y159364D01*
X255953Y159281D01*
X255978Y159197D01*
X255999Y159113D01*
X256016Y159027D01*
X256030Y158941D01*
X256039Y158854D01*
X256045Y158766D01*
X256047Y158679D01*
X256046Y158679D02*
X256046Y156704D01*
X474980Y163830D02*
X474980Y63830D01*
X634980Y63830D01*
X634980Y163830D01*
X474980Y163830D01*
X497961Y57385D02*
X497961Y48495D01*
X502900Y48495D02*
X497961Y57385D01*
X502900Y57385D02*
X502900Y48495D01*
X507790Y48495D02*
X507790Y57385D01*
X510260Y57385D01*
X510358Y57383D01*
X510456Y57377D01*
X510554Y57367D01*
X510651Y57354D01*
X510748Y57336D01*
X510844Y57315D01*
X510938Y57290D01*
X511032Y57261D01*
X511125Y57229D01*
X511216Y57192D01*
X511306Y57153D01*
X511394Y57109D01*
X511480Y57062D01*
X511565Y57012D01*
X511647Y56959D01*
X511727Y56902D01*
X511805Y56842D01*
X511880Y56779D01*
X511953Y56713D01*
X512023Y56644D01*
X512090Y56573D01*
X512155Y56499D01*
X512216Y56422D01*
X512275Y56343D01*
X512330Y56262D01*
X512382Y56179D01*
X512430Y56093D01*
X512475Y56006D01*
X512517Y55917D01*
X512555Y55827D01*
X512589Y55735D01*
X512620Y55642D01*
X512647Y55547D01*
X512670Y55452D01*
X512690Y55355D01*
X512705Y55259D01*
X512717Y55161D01*
X512725Y55063D01*
X512729Y54965D01*
X512729Y54867D01*
X512725Y54769D01*
X512717Y54671D01*
X512705Y54573D01*
X512690Y54477D01*
X512670Y54380D01*
X512647Y54285D01*
X512620Y54190D01*
X512589Y54097D01*
X512555Y54005D01*
X512517Y53915D01*
X512475Y53826D01*
X512430Y53739D01*
X512382Y53653D01*
X512330Y53570D01*
X512275Y53489D01*
X512216Y53410D01*
X512155Y53333D01*
X512090Y53259D01*
X512023Y53188D01*
X511953Y53119D01*
X511880Y53053D01*
X511805Y52990D01*
X511727Y52930D01*
X511647Y52873D01*
X511565Y52820D01*
X511480Y52770D01*
X511394Y52723D01*
X511306Y52679D01*
X511216Y52640D01*
X511125Y52603D01*
X511032Y52571D01*
X510938Y52542D01*
X510844Y52517D01*
X510748Y52496D01*
X510651Y52478D01*
X510554Y52465D01*
X510456Y52455D01*
X510358Y52449D01*
X510260Y52447D01*
X510260Y52446D02*
X507790Y52446D01*
X510754Y52446D02*
X512729Y48495D01*
X517187Y48495D02*
X517187Y57385D01*
X521138Y57385D01*
X521138Y53434D02*
X517187Y53434D01*
X524784Y48495D02*
X527747Y48495D01*
X527836Y48497D01*
X527924Y48503D01*
X528012Y48513D01*
X528100Y48527D01*
X528187Y48545D01*
X528273Y48566D01*
X528358Y48592D01*
X528441Y48621D01*
X528524Y48654D01*
X528604Y48691D01*
X528683Y48731D01*
X528760Y48775D01*
X528836Y48822D01*
X528908Y48872D01*
X528979Y48926D01*
X529047Y48983D01*
X529113Y49043D01*
X529175Y49105D01*
X529235Y49171D01*
X529292Y49239D01*
X529346Y49310D01*
X529396Y49382D01*
X529443Y49457D01*
X529487Y49535D01*
X529527Y49614D01*
X529564Y49694D01*
X529597Y49777D01*
X529626Y49860D01*
X529652Y49945D01*
X529673Y50031D01*
X529691Y50118D01*
X529705Y50206D01*
X529715Y50294D01*
X529721Y50382D01*
X529723Y50471D01*
X529723Y51458D01*
X529721Y51544D01*
X529715Y51630D01*
X529706Y51716D01*
X529693Y51801D01*
X529676Y51886D01*
X529656Y51969D01*
X529632Y52052D01*
X529604Y52134D01*
X529573Y52214D01*
X529538Y52293D01*
X529500Y52370D01*
X529458Y52446D01*
X529414Y52520D01*
X529366Y52591D01*
X529315Y52661D01*
X529261Y52728D01*
X529204Y52793D01*
X529144Y52855D01*
X529082Y52915D01*
X529017Y52972D01*
X528950Y53026D01*
X528880Y53077D01*
X528809Y53125D01*
X528735Y53169D01*
X528659Y53211D01*
X528582Y53249D01*
X528503Y53284D01*
X528423Y53315D01*
X528341Y53343D01*
X528258Y53367D01*
X528175Y53387D01*
X528090Y53404D01*
X528005Y53417D01*
X527919Y53426D01*
X527833Y53432D01*
X527747Y53434D01*
X524784Y53434D01*
X524784Y57385D01*
X529723Y57385D01*
X536644Y57386D02*
X536736Y57384D01*
X536828Y57378D01*
X536919Y57369D01*
X537010Y57356D01*
X537100Y57339D01*
X537190Y57318D01*
X537278Y57294D01*
X537366Y57266D01*
X537452Y57234D01*
X537537Y57199D01*
X537620Y57160D01*
X537702Y57118D01*
X537782Y57073D01*
X537860Y57024D01*
X537936Y56972D01*
X538009Y56917D01*
X538081Y56859D01*
X538150Y56799D01*
X538216Y56735D01*
X538280Y56669D01*
X538340Y56600D01*
X538398Y56528D01*
X538453Y56455D01*
X538505Y56379D01*
X538554Y56301D01*
X538599Y56221D01*
X538641Y56139D01*
X538680Y56056D01*
X538715Y55971D01*
X538747Y55885D01*
X538775Y55797D01*
X538799Y55709D01*
X538820Y55619D01*
X538837Y55529D01*
X538850Y55438D01*
X538859Y55347D01*
X538865Y55255D01*
X538867Y55163D01*
X536644Y57385D02*
X536538Y57383D01*
X536433Y57377D01*
X536328Y57367D01*
X536223Y57354D01*
X536119Y57336D01*
X536016Y57315D01*
X535913Y57290D01*
X535811Y57261D01*
X535711Y57228D01*
X535612Y57192D01*
X535514Y57152D01*
X535418Y57108D01*
X535323Y57061D01*
X535231Y57011D01*
X535140Y56957D01*
X535051Y56899D01*
X534965Y56839D01*
X534881Y56775D01*
X534799Y56709D01*
X534719Y56639D01*
X534643Y56566D01*
X534569Y56491D01*
X534498Y56413D01*
X534430Y56332D01*
X534364Y56249D01*
X534302Y56163D01*
X534244Y56076D01*
X534188Y55986D01*
X534136Y55894D01*
X534087Y55800D01*
X534042Y55705D01*
X534000Y55608D01*
X533962Y55509D01*
X533928Y55410D01*
X538125Y53434D02*
X538194Y53503D01*
X538260Y53573D01*
X538323Y53647D01*
X538382Y53723D01*
X538439Y53801D01*
X538493Y53881D01*
X538543Y53964D01*
X538590Y54048D01*
X538633Y54135D01*
X538673Y54223D01*
X538709Y54312D01*
X538742Y54403D01*
X538771Y54495D01*
X538796Y54589D01*
X538817Y54683D01*
X538835Y54778D01*
X538848Y54874D01*
X538858Y54970D01*
X538864Y55066D01*
X538866Y55163D01*
X538126Y53434D02*
X533928Y48495D01*
X538867Y48495D01*
X543072Y50964D02*
X543074Y51062D01*
X543080Y51160D01*
X543090Y51258D01*
X543103Y51355D01*
X543121Y51452D01*
X543142Y51548D01*
X543167Y51642D01*
X543196Y51736D01*
X543228Y51829D01*
X543265Y51920D01*
X543304Y52010D01*
X543348Y52098D01*
X543395Y52184D01*
X543445Y52269D01*
X543498Y52351D01*
X543555Y52431D01*
X543615Y52509D01*
X543678Y52584D01*
X543744Y52657D01*
X543813Y52727D01*
X543884Y52794D01*
X543958Y52859D01*
X544035Y52920D01*
X544114Y52979D01*
X544195Y53034D01*
X544278Y53086D01*
X544364Y53134D01*
X544451Y53179D01*
X544540Y53221D01*
X544630Y53259D01*
X544722Y53293D01*
X544815Y53324D01*
X544910Y53351D01*
X545005Y53374D01*
X545102Y53394D01*
X545198Y53409D01*
X545296Y53421D01*
X545394Y53429D01*
X545492Y53433D01*
X545590Y53433D01*
X545688Y53429D01*
X545786Y53421D01*
X545884Y53409D01*
X545980Y53394D01*
X546077Y53374D01*
X546172Y53351D01*
X546267Y53324D01*
X546360Y53293D01*
X546452Y53259D01*
X546542Y53221D01*
X546631Y53179D01*
X546718Y53134D01*
X546804Y53086D01*
X546887Y53034D01*
X546968Y52979D01*
X547047Y52920D01*
X547124Y52859D01*
X547198Y52794D01*
X547269Y52727D01*
X547338Y52657D01*
X547404Y52584D01*
X547467Y52509D01*
X547527Y52431D01*
X547584Y52351D01*
X547637Y52269D01*
X547687Y52184D01*
X547734Y52098D01*
X547778Y52010D01*
X547817Y51920D01*
X547854Y51829D01*
X547886Y51736D01*
X547915Y51642D01*
X547940Y51548D01*
X547961Y51452D01*
X547979Y51355D01*
X547992Y51258D01*
X548002Y51160D01*
X548008Y51062D01*
X548010Y50964D01*
X548008Y50866D01*
X548002Y50768D01*
X547992Y50670D01*
X547979Y50573D01*
X547961Y50476D01*
X547940Y50380D01*
X547915Y50286D01*
X547886Y50192D01*
X547854Y50099D01*
X547817Y50008D01*
X547778Y49918D01*
X547734Y49830D01*
X547687Y49744D01*
X547637Y49659D01*
X547584Y49577D01*
X547527Y49497D01*
X547467Y49419D01*
X547404Y49344D01*
X547338Y49271D01*
X547269Y49201D01*
X547198Y49134D01*
X547124Y49069D01*
X547047Y49008D01*
X546968Y48949D01*
X546887Y48894D01*
X546804Y48842D01*
X546718Y48794D01*
X546631Y48749D01*
X546542Y48707D01*
X546452Y48669D01*
X546360Y48635D01*
X546267Y48604D01*
X546172Y48577D01*
X546077Y48554D01*
X545980Y48534D01*
X545884Y48519D01*
X545786Y48507D01*
X545688Y48499D01*
X545590Y48495D01*
X545492Y48495D01*
X545394Y48499D01*
X545296Y48507D01*
X545198Y48519D01*
X545102Y48534D01*
X545005Y48554D01*
X544910Y48577D01*
X544815Y48604D01*
X544722Y48635D01*
X544630Y48669D01*
X544540Y48707D01*
X544451Y48749D01*
X544364Y48794D01*
X544278Y48842D01*
X544195Y48894D01*
X544114Y48949D01*
X544035Y49008D01*
X543958Y49069D01*
X543884Y49134D01*
X543813Y49201D01*
X543744Y49271D01*
X543678Y49344D01*
X543615Y49419D01*
X543555Y49497D01*
X543498Y49577D01*
X543445Y49659D01*
X543395Y49744D01*
X543348Y49830D01*
X543304Y49918D01*
X543265Y50008D01*
X543228Y50099D01*
X543196Y50192D01*
X543167Y50286D01*
X543142Y50380D01*
X543121Y50476D01*
X543103Y50573D01*
X543090Y50670D01*
X543080Y50768D01*
X543074Y50866D01*
X543072Y50964D01*
X543565Y55409D02*
X543567Y55496D01*
X543573Y55584D01*
X543582Y55671D01*
X543596Y55757D01*
X543613Y55843D01*
X543634Y55927D01*
X543659Y56011D01*
X543688Y56094D01*
X543720Y56175D01*
X543755Y56255D01*
X543794Y56333D01*
X543837Y56410D01*
X543883Y56484D01*
X543932Y56556D01*
X543984Y56626D01*
X544040Y56694D01*
X544098Y56759D01*
X544159Y56822D01*
X544223Y56881D01*
X544290Y56938D01*
X544358Y56992D01*
X544430Y57043D01*
X544503Y57090D01*
X544578Y57135D01*
X544656Y57176D01*
X544735Y57213D01*
X544815Y57247D01*
X544897Y57277D01*
X544980Y57304D01*
X545065Y57327D01*
X545150Y57346D01*
X545236Y57361D01*
X545323Y57373D01*
X545410Y57381D01*
X545497Y57385D01*
X545585Y57385D01*
X545672Y57381D01*
X545759Y57373D01*
X545846Y57361D01*
X545932Y57346D01*
X546017Y57327D01*
X546102Y57304D01*
X546185Y57277D01*
X546267Y57247D01*
X546347Y57213D01*
X546426Y57176D01*
X546504Y57135D01*
X546579Y57090D01*
X546652Y57043D01*
X546724Y56992D01*
X546792Y56938D01*
X546859Y56881D01*
X546923Y56822D01*
X546984Y56759D01*
X547042Y56694D01*
X547098Y56626D01*
X547150Y56556D01*
X547199Y56484D01*
X547245Y56410D01*
X547288Y56333D01*
X547327Y56255D01*
X547362Y56175D01*
X547394Y56094D01*
X547423Y56011D01*
X547448Y55927D01*
X547469Y55843D01*
X547486Y55757D01*
X547500Y55671D01*
X547509Y55584D01*
X547515Y55496D01*
X547517Y55409D01*
X547515Y55322D01*
X547509Y55234D01*
X547500Y55147D01*
X547486Y55061D01*
X547469Y54975D01*
X547448Y54891D01*
X547423Y54807D01*
X547394Y54724D01*
X547362Y54643D01*
X547327Y54563D01*
X547288Y54485D01*
X547245Y54408D01*
X547199Y54334D01*
X547150Y54262D01*
X547098Y54192D01*
X547042Y54124D01*
X546984Y54059D01*
X546923Y53996D01*
X546859Y53937D01*
X546792Y53880D01*
X546724Y53826D01*
X546652Y53775D01*
X546579Y53728D01*
X546504Y53683D01*
X546426Y53642D01*
X546347Y53605D01*
X546267Y53571D01*
X546185Y53541D01*
X546102Y53514D01*
X546017Y53491D01*
X545932Y53472D01*
X545846Y53457D01*
X545759Y53445D01*
X545672Y53437D01*
X545585Y53433D01*
X545497Y53433D01*
X545410Y53437D01*
X545323Y53445D01*
X545236Y53457D01*
X545150Y53472D01*
X545065Y53491D01*
X544980Y53514D01*
X544897Y53541D01*
X544815Y53571D01*
X544735Y53605D01*
X544656Y53642D01*
X544578Y53683D01*
X544503Y53728D01*
X544430Y53775D01*
X544358Y53826D01*
X544290Y53880D01*
X544223Y53937D01*
X544159Y53996D01*
X544098Y54059D01*
X544040Y54124D01*
X543984Y54192D01*
X543932Y54262D01*
X543883Y54334D01*
X543837Y54408D01*
X543794Y54485D01*
X543755Y54563D01*
X543720Y54643D01*
X543688Y54724D01*
X543659Y54807D01*
X543634Y54891D01*
X543613Y54975D01*
X543596Y55061D01*
X543582Y55147D01*
X543573Y55234D01*
X543567Y55322D01*
X543565Y55409D01*
X552216Y48495D02*
X554685Y48495D01*
X554783Y48497D01*
X554881Y48503D01*
X554979Y48513D01*
X555076Y48526D01*
X555173Y48544D01*
X555269Y48565D01*
X555363Y48590D01*
X555457Y48619D01*
X555550Y48651D01*
X555641Y48688D01*
X555731Y48727D01*
X555819Y48771D01*
X555905Y48818D01*
X555990Y48868D01*
X556072Y48921D01*
X556152Y48978D01*
X556230Y49038D01*
X556305Y49101D01*
X556378Y49167D01*
X556448Y49236D01*
X556515Y49307D01*
X556580Y49381D01*
X556641Y49458D01*
X556700Y49537D01*
X556755Y49618D01*
X556807Y49701D01*
X556855Y49787D01*
X556900Y49874D01*
X556942Y49963D01*
X556980Y50053D01*
X557014Y50145D01*
X557045Y50238D01*
X557072Y50333D01*
X557095Y50428D01*
X557115Y50525D01*
X557130Y50621D01*
X557142Y50719D01*
X557150Y50817D01*
X557154Y50915D01*
X557154Y51013D01*
X557150Y51111D01*
X557142Y51209D01*
X557130Y51307D01*
X557115Y51403D01*
X557095Y51500D01*
X557072Y51595D01*
X557045Y51690D01*
X557014Y51783D01*
X556980Y51875D01*
X556942Y51965D01*
X556900Y52054D01*
X556855Y52141D01*
X556807Y52227D01*
X556755Y52310D01*
X556700Y52391D01*
X556641Y52470D01*
X556580Y52547D01*
X556515Y52621D01*
X556448Y52692D01*
X556378Y52761D01*
X556305Y52827D01*
X556230Y52890D01*
X556152Y52950D01*
X556072Y53007D01*
X555990Y53060D01*
X555905Y53110D01*
X555819Y53157D01*
X555731Y53201D01*
X555641Y53240D01*
X555550Y53277D01*
X555457Y53309D01*
X555363Y53338D01*
X555269Y53363D01*
X555173Y53384D01*
X555076Y53402D01*
X554979Y53415D01*
X554881Y53425D01*
X554783Y53431D01*
X554685Y53433D01*
X555179Y57385D02*
X552216Y57385D01*
X555179Y57385D02*
X555266Y57383D01*
X555354Y57377D01*
X555441Y57368D01*
X555527Y57354D01*
X555613Y57337D01*
X555697Y57316D01*
X555781Y57291D01*
X555864Y57262D01*
X555945Y57230D01*
X556025Y57195D01*
X556103Y57156D01*
X556180Y57113D01*
X556254Y57067D01*
X556326Y57018D01*
X556396Y56966D01*
X556464Y56910D01*
X556529Y56852D01*
X556592Y56791D01*
X556651Y56727D01*
X556708Y56660D01*
X556762Y56592D01*
X556813Y56520D01*
X556860Y56447D01*
X556905Y56372D01*
X556946Y56294D01*
X556983Y56215D01*
X557017Y56135D01*
X557047Y56053D01*
X557074Y55970D01*
X557097Y55885D01*
X557116Y55800D01*
X557131Y55714D01*
X557143Y55627D01*
X557151Y55540D01*
X557155Y55453D01*
X557155Y55365D01*
X557151Y55278D01*
X557143Y55191D01*
X557131Y55104D01*
X557116Y55018D01*
X557097Y54933D01*
X557074Y54848D01*
X557047Y54765D01*
X557017Y54683D01*
X556983Y54603D01*
X556946Y54524D01*
X556905Y54446D01*
X556860Y54371D01*
X556813Y54298D01*
X556762Y54226D01*
X556708Y54158D01*
X556651Y54091D01*
X556592Y54027D01*
X556529Y53966D01*
X556464Y53908D01*
X556396Y53852D01*
X556326Y53800D01*
X556254Y53751D01*
X556180Y53705D01*
X556103Y53662D01*
X556025Y53623D01*
X555945Y53588D01*
X555864Y53556D01*
X555781Y53527D01*
X555697Y53502D01*
X555613Y53481D01*
X555527Y53464D01*
X555441Y53450D01*
X555354Y53441D01*
X555266Y53435D01*
X555179Y53433D01*
X555179Y53434D02*
X553203Y53434D01*
X564076Y57386D02*
X564168Y57384D01*
X564260Y57378D01*
X564351Y57369D01*
X564442Y57356D01*
X564532Y57339D01*
X564622Y57318D01*
X564710Y57294D01*
X564798Y57266D01*
X564884Y57234D01*
X564969Y57199D01*
X565052Y57160D01*
X565134Y57118D01*
X565214Y57073D01*
X565292Y57024D01*
X565368Y56972D01*
X565441Y56917D01*
X565513Y56859D01*
X565582Y56799D01*
X565648Y56735D01*
X565712Y56669D01*
X565772Y56600D01*
X565830Y56528D01*
X565885Y56455D01*
X565937Y56379D01*
X565986Y56301D01*
X566031Y56221D01*
X566073Y56139D01*
X566112Y56056D01*
X566147Y55971D01*
X566179Y55885D01*
X566207Y55797D01*
X566231Y55709D01*
X566252Y55619D01*
X566269Y55529D01*
X566282Y55438D01*
X566291Y55347D01*
X566297Y55255D01*
X566299Y55163D01*
X564076Y57385D02*
X563970Y57383D01*
X563865Y57377D01*
X563760Y57367D01*
X563655Y57354D01*
X563551Y57336D01*
X563448Y57315D01*
X563345Y57290D01*
X563243Y57261D01*
X563143Y57228D01*
X563044Y57192D01*
X562946Y57152D01*
X562850Y57108D01*
X562755Y57061D01*
X562663Y57011D01*
X562572Y56957D01*
X562483Y56899D01*
X562397Y56839D01*
X562313Y56775D01*
X562231Y56709D01*
X562151Y56639D01*
X562075Y56566D01*
X562001Y56491D01*
X561930Y56413D01*
X561862Y56332D01*
X561796Y56249D01*
X561734Y56163D01*
X561676Y56076D01*
X561620Y55986D01*
X561568Y55894D01*
X561519Y55800D01*
X561474Y55705D01*
X561432Y55608D01*
X561394Y55509D01*
X561360Y55410D01*
X565557Y53434D02*
X565626Y53503D01*
X565692Y53573D01*
X565755Y53647D01*
X565814Y53723D01*
X565871Y53801D01*
X565925Y53881D01*
X565975Y53964D01*
X566022Y54048D01*
X566065Y54135D01*
X566105Y54223D01*
X566141Y54312D01*
X566174Y54403D01*
X566203Y54495D01*
X566228Y54589D01*
X566249Y54683D01*
X566267Y54778D01*
X566280Y54874D01*
X566290Y54970D01*
X566296Y55066D01*
X566298Y55163D01*
X565558Y53434D02*
X561360Y48495D01*
X566299Y48495D01*
D16*
X507101Y185560D02*
X507101Y203060D01*
X491119Y203060D02*
X491119Y185560D01*
D12*
X494112Y179705D02*
X494112Y170815D01*
X498063Y170815D01*
X506648Y177483D02*
X506646Y177575D01*
X506640Y177667D01*
X506631Y177758D01*
X506618Y177849D01*
X506601Y177939D01*
X506580Y178029D01*
X506556Y178117D01*
X506528Y178205D01*
X506496Y178291D01*
X506461Y178376D01*
X506422Y178459D01*
X506380Y178541D01*
X506335Y178621D01*
X506286Y178699D01*
X506234Y178775D01*
X506179Y178848D01*
X506121Y178920D01*
X506061Y178989D01*
X505997Y179055D01*
X505931Y179119D01*
X505862Y179179D01*
X505790Y179237D01*
X505717Y179292D01*
X505641Y179344D01*
X505563Y179393D01*
X505483Y179438D01*
X505401Y179480D01*
X505318Y179519D01*
X505233Y179554D01*
X505147Y179586D01*
X505059Y179614D01*
X504971Y179638D01*
X504881Y179659D01*
X504791Y179676D01*
X504700Y179689D01*
X504609Y179698D01*
X504517Y179704D01*
X504425Y179706D01*
X504425Y179705D02*
X504319Y179703D01*
X504214Y179697D01*
X504109Y179687D01*
X504004Y179674D01*
X503900Y179656D01*
X503797Y179635D01*
X503694Y179610D01*
X503592Y179581D01*
X503492Y179548D01*
X503393Y179512D01*
X503295Y179472D01*
X503199Y179428D01*
X503104Y179381D01*
X503012Y179331D01*
X502921Y179277D01*
X502832Y179219D01*
X502746Y179159D01*
X502662Y179095D01*
X502580Y179029D01*
X502500Y178959D01*
X502424Y178886D01*
X502350Y178811D01*
X502279Y178733D01*
X502211Y178652D01*
X502145Y178569D01*
X502083Y178483D01*
X502025Y178396D01*
X501969Y178306D01*
X501917Y178214D01*
X501868Y178120D01*
X501823Y178025D01*
X501781Y177928D01*
X501743Y177829D01*
X501709Y177730D01*
X505907Y175754D02*
X505976Y175823D01*
X506042Y175893D01*
X506105Y175967D01*
X506164Y176043D01*
X506221Y176121D01*
X506275Y176201D01*
X506325Y176284D01*
X506372Y176368D01*
X506415Y176455D01*
X506455Y176543D01*
X506491Y176632D01*
X506524Y176723D01*
X506553Y176815D01*
X506578Y176909D01*
X506599Y177003D01*
X506617Y177098D01*
X506630Y177194D01*
X506640Y177290D01*
X506646Y177386D01*
X506648Y177483D01*
X505907Y175754D02*
X501709Y170815D01*
X506648Y170815D01*
D16*
X508899Y185560D02*
X508899Y203060D01*
X524881Y203060D02*
X524881Y185560D01*
D12*
X513162Y179705D02*
X513162Y170815D01*
X517113Y170815D01*
X520759Y177729D02*
X523228Y179705D01*
X523228Y170815D01*
X520759Y170815D02*
X525698Y170815D01*
X490527Y183310D02*
X490527Y205310D01*
X469593Y205310D02*
X469593Y183310D01*
X475739Y168275D02*
X477715Y168275D01*
X475739Y168275D02*
X475653Y168277D01*
X475567Y168283D01*
X475481Y168292D01*
X475396Y168305D01*
X475311Y168322D01*
X475228Y168342D01*
X475145Y168366D01*
X475063Y168394D01*
X474983Y168425D01*
X474904Y168460D01*
X474827Y168498D01*
X474751Y168540D01*
X474677Y168584D01*
X474606Y168632D01*
X474536Y168683D01*
X474469Y168737D01*
X474404Y168794D01*
X474342Y168854D01*
X474282Y168916D01*
X474225Y168981D01*
X474171Y169048D01*
X474120Y169118D01*
X474072Y169189D01*
X474028Y169263D01*
X473986Y169339D01*
X473948Y169416D01*
X473913Y169495D01*
X473882Y169575D01*
X473854Y169657D01*
X473830Y169740D01*
X473810Y169823D01*
X473793Y169908D01*
X473780Y169993D01*
X473771Y170079D01*
X473765Y170165D01*
X473763Y170251D01*
X473764Y170251D02*
X473764Y175189D01*
X473763Y175189D02*
X473765Y175278D01*
X473771Y175366D01*
X473781Y175454D01*
X473795Y175542D01*
X473813Y175629D01*
X473834Y175715D01*
X473860Y175800D01*
X473889Y175883D01*
X473922Y175966D01*
X473959Y176046D01*
X473999Y176125D01*
X474043Y176202D01*
X474090Y176278D01*
X474140Y176350D01*
X474194Y176421D01*
X474251Y176489D01*
X474311Y176555D01*
X474373Y176617D01*
X474439Y176677D01*
X474507Y176734D01*
X474578Y176788D01*
X474650Y176838D01*
X474725Y176885D01*
X474803Y176929D01*
X474882Y176969D01*
X474962Y177006D01*
X475045Y177039D01*
X475128Y177068D01*
X475213Y177094D01*
X475299Y177115D01*
X475386Y177133D01*
X475474Y177147D01*
X475562Y177157D01*
X475650Y177163D01*
X475739Y177165D01*
X477715Y177165D01*
X484134Y177166D02*
X484226Y177164D01*
X484318Y177158D01*
X484409Y177149D01*
X484500Y177136D01*
X484590Y177119D01*
X484680Y177098D01*
X484768Y177074D01*
X484856Y177046D01*
X484942Y177014D01*
X485027Y176979D01*
X485110Y176940D01*
X485192Y176898D01*
X485272Y176853D01*
X485350Y176804D01*
X485426Y176752D01*
X485499Y176697D01*
X485571Y176639D01*
X485640Y176579D01*
X485706Y176515D01*
X485770Y176449D01*
X485830Y176380D01*
X485888Y176308D01*
X485943Y176235D01*
X485995Y176159D01*
X486044Y176081D01*
X486089Y176001D01*
X486131Y175919D01*
X486170Y175836D01*
X486205Y175751D01*
X486237Y175665D01*
X486265Y175577D01*
X486289Y175489D01*
X486310Y175399D01*
X486327Y175309D01*
X486340Y175218D01*
X486349Y175127D01*
X486355Y175035D01*
X486357Y174943D01*
X484134Y177165D02*
X484028Y177163D01*
X483923Y177157D01*
X483818Y177147D01*
X483713Y177134D01*
X483609Y177116D01*
X483506Y177095D01*
X483403Y177070D01*
X483301Y177041D01*
X483201Y177008D01*
X483102Y176972D01*
X483004Y176932D01*
X482908Y176888D01*
X482813Y176841D01*
X482721Y176791D01*
X482630Y176737D01*
X482541Y176679D01*
X482455Y176619D01*
X482371Y176555D01*
X482289Y176489D01*
X482209Y176419D01*
X482133Y176346D01*
X482059Y176271D01*
X481988Y176193D01*
X481920Y176112D01*
X481854Y176029D01*
X481792Y175943D01*
X481734Y175856D01*
X481678Y175766D01*
X481626Y175674D01*
X481577Y175580D01*
X481532Y175485D01*
X481490Y175388D01*
X481452Y175289D01*
X481418Y175190D01*
X485615Y173214D02*
X485684Y173283D01*
X485750Y173353D01*
X485813Y173427D01*
X485872Y173503D01*
X485929Y173581D01*
X485983Y173661D01*
X486033Y173744D01*
X486080Y173828D01*
X486123Y173915D01*
X486163Y174003D01*
X486199Y174092D01*
X486232Y174183D01*
X486261Y174275D01*
X486286Y174369D01*
X486307Y174463D01*
X486325Y174558D01*
X486338Y174654D01*
X486348Y174750D01*
X486354Y174846D01*
X486356Y174943D01*
X485616Y173214D02*
X481418Y168275D01*
X486356Y168275D01*
D13*
X458851Y113449D02*
X458851Y104991D01*
X440309Y104991D02*
X440309Y113449D01*
X449580Y87068D02*
X449650Y87066D01*
X449720Y87060D01*
X449789Y87051D01*
X449858Y87037D01*
X449926Y87020D01*
X449992Y86999D01*
X450058Y86975D01*
X450122Y86947D01*
X450184Y86915D01*
X450245Y86880D01*
X450304Y86842D01*
X450360Y86800D01*
X450414Y86756D01*
X450466Y86708D01*
X450514Y86658D01*
X450560Y86605D01*
X450603Y86550D01*
X450643Y86493D01*
X450680Y86433D01*
X450713Y86371D01*
X450743Y86308D01*
X450769Y86243D01*
X450792Y86177D01*
X450811Y86110D01*
X450826Y86041D01*
X450838Y85972D01*
X450846Y85903D01*
X450850Y85833D01*
X450850Y85763D01*
X450846Y85693D01*
X450838Y85624D01*
X450826Y85555D01*
X450811Y85486D01*
X450792Y85419D01*
X450769Y85353D01*
X450743Y85288D01*
X450713Y85225D01*
X450680Y85163D01*
X450643Y85103D01*
X450603Y85046D01*
X450560Y84991D01*
X450514Y84938D01*
X450466Y84888D01*
X450414Y84840D01*
X450360Y84796D01*
X450304Y84754D01*
X450245Y84716D01*
X450184Y84681D01*
X450122Y84649D01*
X450058Y84621D01*
X449992Y84597D01*
X449926Y84576D01*
X449858Y84559D01*
X449789Y84545D01*
X449720Y84536D01*
X449650Y84530D01*
X449580Y84528D01*
X449510Y84530D01*
X449440Y84536D01*
X449371Y84545D01*
X449302Y84559D01*
X449234Y84576D01*
X449168Y84597D01*
X449102Y84621D01*
X449038Y84649D01*
X448976Y84681D01*
X448915Y84716D01*
X448856Y84754D01*
X448800Y84796D01*
X448746Y84840D01*
X448694Y84888D01*
X448646Y84938D01*
X448600Y84991D01*
X448557Y85046D01*
X448517Y85103D01*
X448480Y85163D01*
X448447Y85225D01*
X448417Y85288D01*
X448391Y85353D01*
X448368Y85419D01*
X448349Y85486D01*
X448334Y85555D01*
X448322Y85624D01*
X448314Y85693D01*
X448310Y85763D01*
X448310Y85833D01*
X448314Y85903D01*
X448322Y85972D01*
X448334Y86041D01*
X448349Y86110D01*
X448368Y86177D01*
X448391Y86243D01*
X448417Y86308D01*
X448447Y86371D01*
X448480Y86433D01*
X448517Y86493D01*
X448557Y86550D01*
X448600Y86605D01*
X448646Y86658D01*
X448694Y86708D01*
X448746Y86756D01*
X448800Y86800D01*
X448856Y86842D01*
X448915Y86880D01*
X448976Y86915D01*
X449038Y86947D01*
X449102Y86975D01*
X449168Y86999D01*
X449234Y87020D01*
X449302Y87037D01*
X449371Y87051D01*
X449440Y87060D01*
X449510Y87066D01*
X449580Y87068D01*
D12*
X436245Y102543D02*
X427355Y108470D01*
X427355Y102543D02*
X436245Y108470D01*
X429331Y112181D02*
X427355Y114650D01*
X436245Y114650D01*
X436245Y112181D02*
X436245Y117120D01*
X440830Y91811D02*
X458330Y91811D01*
X458330Y75829D02*
X440830Y75829D01*
X445259Y61595D02*
X447235Y61595D01*
X445259Y61595D02*
X445173Y61597D01*
X445087Y61603D01*
X445001Y61612D01*
X444916Y61625D01*
X444831Y61642D01*
X444748Y61662D01*
X444665Y61686D01*
X444583Y61714D01*
X444503Y61745D01*
X444424Y61780D01*
X444347Y61818D01*
X444271Y61860D01*
X444197Y61904D01*
X444126Y61952D01*
X444056Y62003D01*
X443989Y62057D01*
X443924Y62114D01*
X443862Y62174D01*
X443802Y62236D01*
X443745Y62301D01*
X443691Y62368D01*
X443640Y62438D01*
X443592Y62509D01*
X443548Y62583D01*
X443506Y62659D01*
X443468Y62736D01*
X443433Y62815D01*
X443402Y62895D01*
X443374Y62977D01*
X443350Y63060D01*
X443330Y63143D01*
X443313Y63228D01*
X443300Y63313D01*
X443291Y63399D01*
X443285Y63485D01*
X443283Y63571D01*
X443284Y63571D02*
X443284Y68509D01*
X443283Y68509D02*
X443285Y68598D01*
X443291Y68686D01*
X443301Y68774D01*
X443315Y68862D01*
X443333Y68949D01*
X443354Y69035D01*
X443380Y69120D01*
X443409Y69203D01*
X443442Y69286D01*
X443479Y69366D01*
X443519Y69445D01*
X443563Y69522D01*
X443610Y69598D01*
X443660Y69670D01*
X443714Y69741D01*
X443771Y69809D01*
X443831Y69875D01*
X443893Y69937D01*
X443959Y69997D01*
X444027Y70054D01*
X444098Y70108D01*
X444170Y70158D01*
X444245Y70205D01*
X444323Y70249D01*
X444402Y70289D01*
X444482Y70326D01*
X444565Y70359D01*
X444648Y70388D01*
X444733Y70414D01*
X444819Y70435D01*
X444906Y70453D01*
X444994Y70467D01*
X445082Y70477D01*
X445170Y70483D01*
X445259Y70485D01*
X447235Y70485D01*
X452913Y70485D02*
X450938Y63571D01*
X455876Y63571D01*
X454395Y65546D02*
X454395Y61595D01*
X458330Y148961D02*
X440830Y148961D01*
X440830Y132979D02*
X458330Y132979D01*
X426915Y130175D02*
X424939Y130175D01*
X424853Y130177D01*
X424767Y130183D01*
X424681Y130192D01*
X424596Y130205D01*
X424511Y130222D01*
X424428Y130242D01*
X424345Y130266D01*
X424263Y130294D01*
X424183Y130325D01*
X424104Y130360D01*
X424027Y130398D01*
X423951Y130440D01*
X423877Y130484D01*
X423806Y130532D01*
X423736Y130583D01*
X423669Y130637D01*
X423604Y130694D01*
X423542Y130754D01*
X423482Y130816D01*
X423425Y130881D01*
X423371Y130948D01*
X423320Y131018D01*
X423272Y131089D01*
X423228Y131163D01*
X423186Y131239D01*
X423148Y131316D01*
X423113Y131395D01*
X423082Y131475D01*
X423054Y131557D01*
X423030Y131640D01*
X423010Y131723D01*
X422993Y131808D01*
X422980Y131893D01*
X422971Y131979D01*
X422965Y132065D01*
X422963Y132151D01*
X422964Y132151D02*
X422964Y137089D01*
X422963Y137089D02*
X422965Y137178D01*
X422971Y137266D01*
X422981Y137354D01*
X422995Y137442D01*
X423013Y137529D01*
X423034Y137615D01*
X423060Y137700D01*
X423089Y137783D01*
X423122Y137866D01*
X423159Y137946D01*
X423199Y138025D01*
X423243Y138102D01*
X423290Y138178D01*
X423340Y138250D01*
X423394Y138321D01*
X423451Y138389D01*
X423511Y138455D01*
X423573Y138517D01*
X423639Y138577D01*
X423707Y138634D01*
X423778Y138688D01*
X423850Y138738D01*
X423925Y138785D01*
X424003Y138829D01*
X424082Y138869D01*
X424162Y138906D01*
X424245Y138939D01*
X424328Y138968D01*
X424413Y138994D01*
X424499Y139015D01*
X424586Y139033D01*
X424674Y139047D01*
X424762Y139057D01*
X424850Y139063D01*
X424939Y139065D01*
X426915Y139065D01*
X430618Y130175D02*
X433087Y130175D01*
X433185Y130177D01*
X433283Y130183D01*
X433381Y130193D01*
X433478Y130206D01*
X433575Y130224D01*
X433671Y130245D01*
X433765Y130270D01*
X433859Y130299D01*
X433952Y130331D01*
X434043Y130368D01*
X434133Y130407D01*
X434221Y130451D01*
X434307Y130498D01*
X434392Y130548D01*
X434474Y130601D01*
X434554Y130658D01*
X434632Y130718D01*
X434707Y130781D01*
X434780Y130847D01*
X434850Y130916D01*
X434917Y130987D01*
X434982Y131061D01*
X435043Y131138D01*
X435102Y131217D01*
X435157Y131298D01*
X435209Y131381D01*
X435257Y131467D01*
X435302Y131554D01*
X435344Y131643D01*
X435382Y131733D01*
X435416Y131825D01*
X435447Y131918D01*
X435474Y132013D01*
X435497Y132108D01*
X435517Y132205D01*
X435532Y132301D01*
X435544Y132399D01*
X435552Y132497D01*
X435556Y132595D01*
X435556Y132693D01*
X435552Y132791D01*
X435544Y132889D01*
X435532Y132987D01*
X435517Y133083D01*
X435497Y133180D01*
X435474Y133275D01*
X435447Y133370D01*
X435416Y133463D01*
X435382Y133555D01*
X435344Y133645D01*
X435302Y133734D01*
X435257Y133821D01*
X435209Y133907D01*
X435157Y133990D01*
X435102Y134071D01*
X435043Y134150D01*
X434982Y134227D01*
X434917Y134301D01*
X434850Y134372D01*
X434780Y134441D01*
X434707Y134507D01*
X434632Y134570D01*
X434554Y134630D01*
X434474Y134687D01*
X434392Y134740D01*
X434307Y134790D01*
X434221Y134837D01*
X434133Y134881D01*
X434043Y134920D01*
X433952Y134957D01*
X433859Y134989D01*
X433765Y135018D01*
X433671Y135043D01*
X433575Y135064D01*
X433478Y135082D01*
X433381Y135095D01*
X433283Y135105D01*
X433185Y135111D01*
X433087Y135113D01*
X433581Y139065D02*
X430618Y139065D01*
X433581Y139065D02*
X433668Y139063D01*
X433756Y139057D01*
X433843Y139048D01*
X433929Y139034D01*
X434015Y139017D01*
X434099Y138996D01*
X434183Y138971D01*
X434266Y138942D01*
X434347Y138910D01*
X434427Y138875D01*
X434505Y138836D01*
X434582Y138793D01*
X434656Y138747D01*
X434728Y138698D01*
X434798Y138646D01*
X434866Y138590D01*
X434931Y138532D01*
X434994Y138471D01*
X435053Y138407D01*
X435110Y138340D01*
X435164Y138272D01*
X435215Y138200D01*
X435262Y138127D01*
X435307Y138052D01*
X435348Y137974D01*
X435385Y137895D01*
X435419Y137815D01*
X435449Y137733D01*
X435476Y137650D01*
X435499Y137565D01*
X435518Y137480D01*
X435533Y137394D01*
X435545Y137307D01*
X435553Y137220D01*
X435557Y137133D01*
X435557Y137045D01*
X435553Y136958D01*
X435545Y136871D01*
X435533Y136784D01*
X435518Y136698D01*
X435499Y136613D01*
X435476Y136528D01*
X435449Y136445D01*
X435419Y136363D01*
X435385Y136283D01*
X435348Y136204D01*
X435307Y136126D01*
X435262Y136051D01*
X435215Y135978D01*
X435164Y135906D01*
X435110Y135838D01*
X435053Y135771D01*
X434994Y135707D01*
X434931Y135646D01*
X434866Y135588D01*
X434798Y135532D01*
X434728Y135480D01*
X434656Y135431D01*
X434582Y135385D01*
X434505Y135342D01*
X434427Y135303D01*
X434347Y135268D01*
X434266Y135236D01*
X434183Y135207D01*
X434099Y135182D01*
X434015Y135161D01*
X433929Y135144D01*
X433843Y135130D01*
X433756Y135121D01*
X433668Y135115D01*
X433581Y135113D01*
X433581Y135114D02*
X431605Y135114D01*
D13*
X307086Y147349D02*
X307086Y150114D01*
X307086Y116586D02*
X309851Y116586D01*
X340614Y116586D02*
X340614Y119351D01*
X340614Y150114D02*
X337849Y150114D01*
X309851Y150114D02*
X307086Y150114D01*
X307086Y119351D02*
X307086Y116586D01*
X337849Y116586D02*
X340614Y116586D01*
X340614Y147349D02*
X340614Y150114D01*
D15*
X339855Y156113D03*
D12*
X343326Y142875D02*
X343326Y136454D01*
X343327Y136454D02*
X343329Y136356D01*
X343335Y136258D01*
X343345Y136160D01*
X343358Y136063D01*
X343376Y135966D01*
X343397Y135870D01*
X343422Y135776D01*
X343451Y135682D01*
X343483Y135589D01*
X343520Y135498D01*
X343559Y135408D01*
X343603Y135320D01*
X343650Y135234D01*
X343700Y135149D01*
X343753Y135067D01*
X343810Y134987D01*
X343870Y134909D01*
X343933Y134834D01*
X343999Y134761D01*
X344068Y134691D01*
X344139Y134624D01*
X344213Y134559D01*
X344290Y134498D01*
X344369Y134439D01*
X344450Y134384D01*
X344533Y134332D01*
X344619Y134284D01*
X344706Y134239D01*
X344795Y134197D01*
X344885Y134159D01*
X344977Y134125D01*
X345070Y134094D01*
X345165Y134067D01*
X345260Y134044D01*
X345357Y134024D01*
X345453Y134009D01*
X345551Y133997D01*
X345649Y133989D01*
X345747Y133985D01*
X345845Y133985D01*
X345943Y133989D01*
X346041Y133997D01*
X346139Y134009D01*
X346235Y134024D01*
X346332Y134044D01*
X346427Y134067D01*
X346522Y134094D01*
X346615Y134125D01*
X346707Y134159D01*
X346797Y134197D01*
X346886Y134239D01*
X346973Y134284D01*
X347059Y134332D01*
X347142Y134384D01*
X347223Y134439D01*
X347302Y134498D01*
X347379Y134559D01*
X347453Y134624D01*
X347524Y134691D01*
X347593Y134761D01*
X347659Y134834D01*
X347722Y134909D01*
X347782Y134987D01*
X347839Y135067D01*
X347892Y135149D01*
X347942Y135234D01*
X347989Y135320D01*
X348033Y135408D01*
X348072Y135498D01*
X348109Y135589D01*
X348141Y135682D01*
X348170Y135776D01*
X348195Y135870D01*
X348216Y135966D01*
X348234Y136063D01*
X348247Y136160D01*
X348257Y136258D01*
X348263Y136356D01*
X348265Y136454D01*
X348265Y142875D01*
X352775Y133985D02*
X355738Y133985D01*
X355827Y133987D01*
X355915Y133993D01*
X356003Y134003D01*
X356091Y134017D01*
X356178Y134035D01*
X356264Y134056D01*
X356349Y134082D01*
X356432Y134111D01*
X356515Y134144D01*
X356595Y134181D01*
X356674Y134221D01*
X356751Y134265D01*
X356827Y134312D01*
X356899Y134362D01*
X356970Y134416D01*
X357038Y134473D01*
X357104Y134533D01*
X357166Y134595D01*
X357226Y134661D01*
X357283Y134729D01*
X357337Y134800D01*
X357387Y134872D01*
X357434Y134947D01*
X357478Y135025D01*
X357518Y135104D01*
X357555Y135184D01*
X357588Y135267D01*
X357617Y135350D01*
X357643Y135435D01*
X357664Y135521D01*
X357682Y135608D01*
X357696Y135696D01*
X357706Y135784D01*
X357712Y135872D01*
X357714Y135961D01*
X357714Y136948D01*
X357712Y137034D01*
X357706Y137120D01*
X357697Y137206D01*
X357684Y137291D01*
X357667Y137376D01*
X357647Y137459D01*
X357623Y137542D01*
X357595Y137624D01*
X357564Y137704D01*
X357529Y137783D01*
X357491Y137860D01*
X357449Y137936D01*
X357405Y138010D01*
X357357Y138081D01*
X357306Y138151D01*
X357252Y138218D01*
X357195Y138283D01*
X357135Y138345D01*
X357073Y138405D01*
X357008Y138462D01*
X356941Y138516D01*
X356871Y138567D01*
X356800Y138615D01*
X356726Y138659D01*
X356650Y138701D01*
X356573Y138739D01*
X356494Y138774D01*
X356414Y138805D01*
X356332Y138833D01*
X356249Y138857D01*
X356166Y138877D01*
X356081Y138894D01*
X355996Y138907D01*
X355910Y138916D01*
X355824Y138922D01*
X355738Y138924D01*
X352775Y138924D01*
X352775Y142875D01*
X357714Y142875D01*
X296281Y140830D02*
X296281Y123330D01*
X280299Y123330D02*
X280299Y140830D01*
X274955Y128465D02*
X274955Y126489D01*
X274953Y126400D01*
X274947Y126312D01*
X274937Y126224D01*
X274923Y126136D01*
X274905Y126049D01*
X274884Y125963D01*
X274858Y125878D01*
X274829Y125795D01*
X274796Y125712D01*
X274759Y125632D01*
X274719Y125553D01*
X274675Y125476D01*
X274628Y125400D01*
X274578Y125328D01*
X274524Y125257D01*
X274467Y125189D01*
X274407Y125123D01*
X274345Y125061D01*
X274279Y125001D01*
X274211Y124944D01*
X274140Y124890D01*
X274068Y124840D01*
X273993Y124793D01*
X273915Y124749D01*
X273836Y124709D01*
X273756Y124672D01*
X273673Y124639D01*
X273590Y124610D01*
X273505Y124584D01*
X273419Y124563D01*
X273332Y124545D01*
X273244Y124531D01*
X273156Y124521D01*
X273068Y124515D01*
X272979Y124513D01*
X272979Y124514D02*
X268041Y124514D01*
X268041Y124513D02*
X267952Y124515D01*
X267864Y124521D01*
X267776Y124531D01*
X267688Y124545D01*
X267601Y124563D01*
X267515Y124584D01*
X267430Y124610D01*
X267347Y124639D01*
X267264Y124672D01*
X267184Y124709D01*
X267105Y124749D01*
X267028Y124793D01*
X266952Y124840D01*
X266880Y124890D01*
X266809Y124944D01*
X266741Y125001D01*
X266675Y125061D01*
X266613Y125123D01*
X266553Y125189D01*
X266496Y125257D01*
X266442Y125328D01*
X266392Y125400D01*
X266345Y125475D01*
X266301Y125553D01*
X266261Y125632D01*
X266224Y125712D01*
X266191Y125795D01*
X266162Y125878D01*
X266136Y125963D01*
X266115Y126049D01*
X266097Y126136D01*
X266083Y126224D01*
X266073Y126312D01*
X266067Y126400D01*
X266065Y126489D01*
X266065Y128465D01*
X272486Y132168D02*
X272388Y132170D01*
X272290Y132176D01*
X272192Y132186D01*
X272095Y132199D01*
X271998Y132217D01*
X271902Y132238D01*
X271808Y132263D01*
X271714Y132292D01*
X271621Y132324D01*
X271530Y132361D01*
X271440Y132400D01*
X271352Y132444D01*
X271266Y132491D01*
X271181Y132541D01*
X271099Y132594D01*
X271019Y132651D01*
X270941Y132711D01*
X270866Y132774D01*
X270793Y132840D01*
X270723Y132909D01*
X270656Y132980D01*
X270591Y133054D01*
X270530Y133131D01*
X270471Y133210D01*
X270416Y133291D01*
X270364Y133374D01*
X270316Y133460D01*
X270271Y133547D01*
X270229Y133636D01*
X270191Y133726D01*
X270157Y133818D01*
X270126Y133911D01*
X270099Y134006D01*
X270076Y134101D01*
X270056Y134198D01*
X270041Y134294D01*
X270029Y134392D01*
X270021Y134490D01*
X270017Y134588D01*
X270017Y134686D01*
X270021Y134784D01*
X270029Y134882D01*
X270041Y134980D01*
X270056Y135076D01*
X270076Y135173D01*
X270099Y135268D01*
X270126Y135363D01*
X270157Y135456D01*
X270191Y135548D01*
X270229Y135638D01*
X270271Y135727D01*
X270316Y135814D01*
X270364Y135900D01*
X270416Y135983D01*
X270471Y136064D01*
X270530Y136143D01*
X270591Y136220D01*
X270656Y136294D01*
X270723Y136365D01*
X270793Y136434D01*
X270866Y136500D01*
X270941Y136563D01*
X271019Y136623D01*
X271099Y136680D01*
X271181Y136733D01*
X271266Y136783D01*
X271352Y136830D01*
X271440Y136874D01*
X271530Y136913D01*
X271621Y136950D01*
X271714Y136982D01*
X271808Y137011D01*
X271902Y137036D01*
X271998Y137057D01*
X272095Y137075D01*
X272192Y137088D01*
X272290Y137098D01*
X272388Y137104D01*
X272486Y137106D01*
X272584Y137104D01*
X272682Y137098D01*
X272780Y137088D01*
X272877Y137075D01*
X272974Y137057D01*
X273070Y137036D01*
X273164Y137011D01*
X273258Y136982D01*
X273351Y136950D01*
X273442Y136913D01*
X273532Y136874D01*
X273620Y136830D01*
X273706Y136783D01*
X273791Y136733D01*
X273873Y136680D01*
X273953Y136623D01*
X274031Y136563D01*
X274106Y136500D01*
X274179Y136434D01*
X274249Y136365D01*
X274316Y136294D01*
X274381Y136220D01*
X274442Y136143D01*
X274501Y136064D01*
X274556Y135983D01*
X274608Y135900D01*
X274656Y135814D01*
X274701Y135727D01*
X274743Y135638D01*
X274781Y135548D01*
X274815Y135456D01*
X274846Y135363D01*
X274873Y135268D01*
X274896Y135173D01*
X274916Y135076D01*
X274931Y134980D01*
X274943Y134882D01*
X274951Y134784D01*
X274955Y134686D01*
X274955Y134588D01*
X274951Y134490D01*
X274943Y134392D01*
X274931Y134294D01*
X274916Y134198D01*
X274896Y134101D01*
X274873Y134006D01*
X274846Y133911D01*
X274815Y133818D01*
X274781Y133726D01*
X274743Y133636D01*
X274701Y133547D01*
X274656Y133460D01*
X274608Y133374D01*
X274556Y133291D01*
X274501Y133210D01*
X274442Y133131D01*
X274381Y133054D01*
X274316Y132980D01*
X274249Y132909D01*
X274179Y132840D01*
X274106Y132774D01*
X274031Y132711D01*
X273953Y132651D01*
X273873Y132594D01*
X273791Y132541D01*
X273706Y132491D01*
X273620Y132444D01*
X273532Y132400D01*
X273442Y132361D01*
X273351Y132324D01*
X273258Y132292D01*
X273164Y132263D01*
X273070Y132238D01*
X272974Y132217D01*
X272877Y132199D01*
X272780Y132186D01*
X272682Y132176D01*
X272584Y132170D01*
X272486Y132168D01*
X268041Y132661D02*
X267954Y132663D01*
X267866Y132669D01*
X267779Y132678D01*
X267693Y132692D01*
X267607Y132709D01*
X267523Y132730D01*
X267439Y132755D01*
X267356Y132784D01*
X267275Y132816D01*
X267195Y132851D01*
X267117Y132890D01*
X267040Y132933D01*
X266966Y132979D01*
X266894Y133028D01*
X266824Y133080D01*
X266756Y133136D01*
X266691Y133194D01*
X266628Y133255D01*
X266569Y133319D01*
X266512Y133386D01*
X266458Y133454D01*
X266407Y133526D01*
X266360Y133599D01*
X266315Y133674D01*
X266274Y133752D01*
X266237Y133831D01*
X266203Y133911D01*
X266173Y133993D01*
X266146Y134076D01*
X266123Y134161D01*
X266104Y134246D01*
X266089Y134332D01*
X266077Y134419D01*
X266069Y134506D01*
X266065Y134593D01*
X266065Y134681D01*
X266069Y134768D01*
X266077Y134855D01*
X266089Y134942D01*
X266104Y135028D01*
X266123Y135113D01*
X266146Y135198D01*
X266173Y135281D01*
X266203Y135363D01*
X266237Y135443D01*
X266274Y135522D01*
X266315Y135600D01*
X266360Y135675D01*
X266407Y135748D01*
X266458Y135820D01*
X266512Y135888D01*
X266569Y135955D01*
X266628Y136019D01*
X266691Y136080D01*
X266756Y136138D01*
X266824Y136194D01*
X266894Y136246D01*
X266966Y136295D01*
X267040Y136341D01*
X267117Y136384D01*
X267195Y136423D01*
X267275Y136458D01*
X267356Y136490D01*
X267439Y136519D01*
X267523Y136544D01*
X267607Y136565D01*
X267693Y136582D01*
X267779Y136596D01*
X267866Y136605D01*
X267954Y136611D01*
X268041Y136613D01*
X268128Y136611D01*
X268216Y136605D01*
X268303Y136596D01*
X268389Y136582D01*
X268475Y136565D01*
X268559Y136544D01*
X268643Y136519D01*
X268726Y136490D01*
X268807Y136458D01*
X268887Y136423D01*
X268965Y136384D01*
X269042Y136341D01*
X269116Y136295D01*
X269188Y136246D01*
X269258Y136194D01*
X269326Y136138D01*
X269391Y136080D01*
X269454Y136019D01*
X269513Y135955D01*
X269570Y135888D01*
X269624Y135820D01*
X269675Y135748D01*
X269722Y135675D01*
X269767Y135600D01*
X269808Y135522D01*
X269845Y135443D01*
X269879Y135363D01*
X269909Y135281D01*
X269936Y135198D01*
X269959Y135113D01*
X269978Y135028D01*
X269993Y134942D01*
X270005Y134855D01*
X270013Y134768D01*
X270017Y134681D01*
X270017Y134593D01*
X270013Y134506D01*
X270005Y134419D01*
X269993Y134332D01*
X269978Y134246D01*
X269959Y134161D01*
X269936Y134076D01*
X269909Y133993D01*
X269879Y133911D01*
X269845Y133831D01*
X269808Y133752D01*
X269767Y133674D01*
X269722Y133599D01*
X269675Y133526D01*
X269624Y133454D01*
X269570Y133386D01*
X269513Y133319D01*
X269454Y133255D01*
X269391Y133194D01*
X269326Y133136D01*
X269258Y133080D01*
X269188Y133028D01*
X269116Y132979D01*
X269042Y132933D01*
X268965Y132890D01*
X268887Y132851D01*
X268807Y132816D01*
X268726Y132784D01*
X268643Y132755D01*
X268559Y132730D01*
X268475Y132709D01*
X268389Y132692D01*
X268303Y132678D01*
X268216Y132669D01*
X268128Y132663D01*
X268041Y132661D01*
X419489Y40250D02*
X419489Y23250D01*
X403471Y23250D02*
X403471Y40250D01*
X404476Y51435D02*
X404476Y60325D01*
X406946Y60325D01*
X407044Y60323D01*
X407142Y60317D01*
X407240Y60307D01*
X407337Y60294D01*
X407434Y60276D01*
X407530Y60255D01*
X407624Y60230D01*
X407718Y60201D01*
X407811Y60169D01*
X407902Y60132D01*
X407992Y60093D01*
X408080Y60049D01*
X408166Y60002D01*
X408251Y59952D01*
X408333Y59899D01*
X408413Y59842D01*
X408491Y59782D01*
X408566Y59719D01*
X408639Y59653D01*
X408709Y59584D01*
X408776Y59513D01*
X408841Y59439D01*
X408902Y59362D01*
X408961Y59283D01*
X409016Y59202D01*
X409068Y59119D01*
X409116Y59033D01*
X409161Y58946D01*
X409203Y58857D01*
X409241Y58767D01*
X409275Y58675D01*
X409306Y58582D01*
X409333Y58487D01*
X409356Y58392D01*
X409376Y58295D01*
X409391Y58199D01*
X409403Y58101D01*
X409411Y58003D01*
X409415Y57905D01*
X409415Y57807D01*
X409411Y57709D01*
X409403Y57611D01*
X409391Y57513D01*
X409376Y57417D01*
X409356Y57320D01*
X409333Y57225D01*
X409306Y57130D01*
X409275Y57037D01*
X409241Y56945D01*
X409203Y56855D01*
X409161Y56766D01*
X409116Y56679D01*
X409068Y56593D01*
X409016Y56510D01*
X408961Y56429D01*
X408902Y56350D01*
X408841Y56273D01*
X408776Y56199D01*
X408709Y56128D01*
X408639Y56059D01*
X408566Y55993D01*
X408491Y55930D01*
X408413Y55870D01*
X408333Y55813D01*
X408251Y55760D01*
X408166Y55710D01*
X408080Y55663D01*
X407992Y55619D01*
X407902Y55580D01*
X407811Y55543D01*
X407718Y55511D01*
X407624Y55482D01*
X407530Y55457D01*
X407434Y55436D01*
X407337Y55418D01*
X407240Y55405D01*
X407142Y55395D01*
X407044Y55389D01*
X406946Y55387D01*
X406946Y55386D02*
X404476Y55386D01*
X407440Y55386D02*
X409415Y51435D01*
X413545Y51435D02*
X416508Y51435D01*
X416597Y51437D01*
X416685Y51443D01*
X416773Y51453D01*
X416861Y51467D01*
X416948Y51485D01*
X417034Y51506D01*
X417119Y51532D01*
X417202Y51561D01*
X417285Y51594D01*
X417365Y51631D01*
X417444Y51671D01*
X417521Y51715D01*
X417597Y51762D01*
X417669Y51812D01*
X417740Y51866D01*
X417808Y51923D01*
X417874Y51983D01*
X417936Y52045D01*
X417996Y52111D01*
X418053Y52179D01*
X418107Y52250D01*
X418157Y52322D01*
X418204Y52397D01*
X418248Y52475D01*
X418288Y52554D01*
X418325Y52634D01*
X418358Y52717D01*
X418387Y52800D01*
X418413Y52885D01*
X418434Y52971D01*
X418452Y53058D01*
X418466Y53146D01*
X418476Y53234D01*
X418482Y53322D01*
X418484Y53411D01*
X418484Y54398D01*
X418482Y54484D01*
X418476Y54570D01*
X418467Y54656D01*
X418454Y54741D01*
X418437Y54826D01*
X418417Y54909D01*
X418393Y54992D01*
X418365Y55074D01*
X418334Y55154D01*
X418299Y55233D01*
X418261Y55310D01*
X418219Y55386D01*
X418175Y55460D01*
X418127Y55531D01*
X418076Y55601D01*
X418022Y55668D01*
X417965Y55733D01*
X417905Y55795D01*
X417843Y55855D01*
X417778Y55912D01*
X417711Y55966D01*
X417641Y56017D01*
X417570Y56065D01*
X417496Y56109D01*
X417420Y56151D01*
X417343Y56189D01*
X417264Y56224D01*
X417184Y56255D01*
X417102Y56283D01*
X417019Y56307D01*
X416936Y56327D01*
X416851Y56344D01*
X416766Y56357D01*
X416680Y56366D01*
X416594Y56372D01*
X416508Y56374D01*
X413545Y56374D01*
X413545Y60325D01*
X418484Y60325D01*
X441079Y40250D02*
X441079Y23250D01*
X425061Y23250D02*
X425061Y40250D01*
X426066Y51435D02*
X426066Y60325D01*
X428536Y60325D01*
X428634Y60323D01*
X428732Y60317D01*
X428830Y60307D01*
X428927Y60294D01*
X429024Y60276D01*
X429120Y60255D01*
X429214Y60230D01*
X429308Y60201D01*
X429401Y60169D01*
X429492Y60132D01*
X429582Y60093D01*
X429670Y60049D01*
X429756Y60002D01*
X429841Y59952D01*
X429923Y59899D01*
X430003Y59842D01*
X430081Y59782D01*
X430156Y59719D01*
X430229Y59653D01*
X430299Y59584D01*
X430366Y59513D01*
X430431Y59439D01*
X430492Y59362D01*
X430551Y59283D01*
X430606Y59202D01*
X430658Y59119D01*
X430706Y59033D01*
X430751Y58946D01*
X430793Y58857D01*
X430831Y58767D01*
X430865Y58675D01*
X430896Y58582D01*
X430923Y58487D01*
X430946Y58392D01*
X430966Y58295D01*
X430981Y58199D01*
X430993Y58101D01*
X431001Y58003D01*
X431005Y57905D01*
X431005Y57807D01*
X431001Y57709D01*
X430993Y57611D01*
X430981Y57513D01*
X430966Y57417D01*
X430946Y57320D01*
X430923Y57225D01*
X430896Y57130D01*
X430865Y57037D01*
X430831Y56945D01*
X430793Y56855D01*
X430751Y56766D01*
X430706Y56679D01*
X430658Y56593D01*
X430606Y56510D01*
X430551Y56429D01*
X430492Y56350D01*
X430431Y56273D01*
X430366Y56199D01*
X430299Y56128D01*
X430229Y56059D01*
X430156Y55993D01*
X430081Y55930D01*
X430003Y55870D01*
X429923Y55813D01*
X429841Y55760D01*
X429756Y55710D01*
X429670Y55663D01*
X429582Y55619D01*
X429492Y55580D01*
X429401Y55543D01*
X429308Y55511D01*
X429214Y55482D01*
X429120Y55457D01*
X429024Y55436D01*
X428927Y55418D01*
X428830Y55405D01*
X428732Y55395D01*
X428634Y55389D01*
X428536Y55387D01*
X428536Y55386D02*
X426066Y55386D01*
X429030Y55386D02*
X431005Y51435D01*
X435135Y56374D02*
X438098Y56374D01*
X438184Y56372D01*
X438270Y56366D01*
X438356Y56357D01*
X438441Y56344D01*
X438526Y56327D01*
X438609Y56307D01*
X438692Y56283D01*
X438774Y56255D01*
X438854Y56224D01*
X438933Y56189D01*
X439010Y56151D01*
X439086Y56109D01*
X439160Y56065D01*
X439231Y56017D01*
X439301Y55966D01*
X439368Y55912D01*
X439433Y55855D01*
X439495Y55795D01*
X439555Y55733D01*
X439612Y55668D01*
X439666Y55601D01*
X439717Y55531D01*
X439765Y55460D01*
X439809Y55386D01*
X439851Y55310D01*
X439889Y55233D01*
X439924Y55154D01*
X439955Y55074D01*
X439983Y54992D01*
X440007Y54909D01*
X440027Y54826D01*
X440044Y54741D01*
X440057Y54656D01*
X440066Y54570D01*
X440072Y54484D01*
X440074Y54398D01*
X440074Y53904D01*
X440073Y53904D02*
X440071Y53806D01*
X440065Y53708D01*
X440055Y53610D01*
X440042Y53513D01*
X440024Y53416D01*
X440003Y53320D01*
X439978Y53226D01*
X439949Y53132D01*
X439917Y53039D01*
X439880Y52948D01*
X439841Y52858D01*
X439797Y52770D01*
X439750Y52684D01*
X439700Y52599D01*
X439647Y52517D01*
X439590Y52437D01*
X439530Y52359D01*
X439467Y52284D01*
X439401Y52211D01*
X439332Y52141D01*
X439261Y52074D01*
X439187Y52009D01*
X439110Y51948D01*
X439031Y51889D01*
X438950Y51834D01*
X438867Y51782D01*
X438781Y51734D01*
X438694Y51689D01*
X438605Y51647D01*
X438515Y51609D01*
X438423Y51575D01*
X438330Y51544D01*
X438235Y51517D01*
X438140Y51494D01*
X438043Y51474D01*
X437947Y51459D01*
X437849Y51447D01*
X437751Y51439D01*
X437653Y51435D01*
X437555Y51435D01*
X437457Y51439D01*
X437359Y51447D01*
X437261Y51459D01*
X437165Y51474D01*
X437068Y51494D01*
X436973Y51517D01*
X436878Y51544D01*
X436785Y51575D01*
X436693Y51609D01*
X436603Y51647D01*
X436514Y51689D01*
X436427Y51734D01*
X436341Y51782D01*
X436258Y51834D01*
X436177Y51889D01*
X436098Y51948D01*
X436021Y52009D01*
X435947Y52074D01*
X435876Y52141D01*
X435807Y52211D01*
X435741Y52284D01*
X435678Y52359D01*
X435618Y52437D01*
X435561Y52517D01*
X435508Y52599D01*
X435458Y52684D01*
X435411Y52770D01*
X435367Y52858D01*
X435328Y52948D01*
X435291Y53039D01*
X435259Y53132D01*
X435230Y53226D01*
X435205Y53320D01*
X435184Y53416D01*
X435166Y53513D01*
X435153Y53610D01*
X435143Y53708D01*
X435137Y53806D01*
X435135Y53904D01*
X435135Y56374D01*
X435137Y56498D01*
X435143Y56622D01*
X435153Y56746D01*
X435166Y56869D01*
X435184Y56992D01*
X435205Y57114D01*
X435230Y57236D01*
X435259Y57357D01*
X435292Y57476D01*
X435328Y57595D01*
X435369Y57712D01*
X435412Y57828D01*
X435460Y57943D01*
X435511Y58056D01*
X435566Y58168D01*
X435624Y58277D01*
X435685Y58385D01*
X435750Y58491D01*
X435818Y58595D01*
X435890Y58696D01*
X435964Y58796D01*
X436042Y58892D01*
X436122Y58987D01*
X436206Y59079D01*
X436292Y59168D01*
X436381Y59254D01*
X436473Y59338D01*
X436568Y59418D01*
X436664Y59496D01*
X436764Y59570D01*
X436865Y59642D01*
X436969Y59710D01*
X437075Y59775D01*
X437183Y59836D01*
X437292Y59894D01*
X437404Y59949D01*
X437517Y60000D01*
X437632Y60048D01*
X437748Y60091D01*
X437865Y60132D01*
X437984Y60168D01*
X438103Y60201D01*
X438224Y60230D01*
X438346Y60255D01*
X438468Y60276D01*
X438591Y60294D01*
X438714Y60307D01*
X438838Y60317D01*
X438962Y60323D01*
X439086Y60325D01*
X308470Y91069D02*
X290970Y91069D01*
X290970Y107051D02*
X308470Y107051D01*
X297375Y81915D02*
X295399Y81915D01*
X295313Y81917D01*
X295227Y81923D01*
X295141Y81932D01*
X295056Y81945D01*
X294971Y81962D01*
X294888Y81982D01*
X294805Y82006D01*
X294723Y82034D01*
X294643Y82065D01*
X294564Y82100D01*
X294487Y82138D01*
X294411Y82180D01*
X294337Y82224D01*
X294266Y82272D01*
X294196Y82323D01*
X294129Y82377D01*
X294064Y82434D01*
X294002Y82494D01*
X293942Y82556D01*
X293885Y82621D01*
X293831Y82688D01*
X293780Y82758D01*
X293732Y82829D01*
X293688Y82903D01*
X293646Y82979D01*
X293608Y83056D01*
X293573Y83135D01*
X293542Y83215D01*
X293514Y83297D01*
X293490Y83380D01*
X293470Y83463D01*
X293453Y83548D01*
X293440Y83633D01*
X293431Y83719D01*
X293425Y83805D01*
X293423Y83891D01*
X293424Y83891D02*
X293424Y88829D01*
X293423Y88829D02*
X293425Y88918D01*
X293431Y89006D01*
X293441Y89094D01*
X293455Y89182D01*
X293473Y89269D01*
X293494Y89355D01*
X293520Y89440D01*
X293549Y89523D01*
X293582Y89606D01*
X293619Y89686D01*
X293659Y89765D01*
X293703Y89842D01*
X293750Y89918D01*
X293800Y89990D01*
X293854Y90061D01*
X293911Y90129D01*
X293971Y90195D01*
X294033Y90257D01*
X294099Y90317D01*
X294167Y90374D01*
X294238Y90428D01*
X294310Y90478D01*
X294385Y90525D01*
X294463Y90569D01*
X294542Y90609D01*
X294622Y90646D01*
X294705Y90679D01*
X294788Y90708D01*
X294873Y90734D01*
X294959Y90755D01*
X295046Y90773D01*
X295134Y90787D01*
X295222Y90797D01*
X295310Y90803D01*
X295399Y90805D01*
X297375Y90805D01*
X303053Y85866D02*
X306016Y85866D01*
X303053Y85866D02*
X302967Y85868D01*
X302881Y85874D01*
X302795Y85883D01*
X302710Y85896D01*
X302625Y85913D01*
X302542Y85933D01*
X302459Y85957D01*
X302377Y85985D01*
X302297Y86016D01*
X302218Y86051D01*
X302141Y86089D01*
X302065Y86131D01*
X301991Y86175D01*
X301920Y86223D01*
X301850Y86274D01*
X301783Y86328D01*
X301718Y86385D01*
X301656Y86445D01*
X301596Y86507D01*
X301539Y86572D01*
X301485Y86639D01*
X301434Y86709D01*
X301386Y86780D01*
X301342Y86854D01*
X301300Y86930D01*
X301262Y87007D01*
X301227Y87086D01*
X301196Y87166D01*
X301168Y87248D01*
X301144Y87331D01*
X301124Y87414D01*
X301107Y87499D01*
X301094Y87584D01*
X301085Y87670D01*
X301079Y87756D01*
X301077Y87842D01*
X301078Y87842D02*
X301078Y88336D01*
X301080Y88434D01*
X301086Y88532D01*
X301096Y88630D01*
X301109Y88727D01*
X301127Y88824D01*
X301148Y88920D01*
X301173Y89014D01*
X301202Y89108D01*
X301234Y89201D01*
X301271Y89292D01*
X301310Y89382D01*
X301354Y89470D01*
X301401Y89556D01*
X301451Y89641D01*
X301504Y89723D01*
X301561Y89803D01*
X301621Y89881D01*
X301684Y89956D01*
X301750Y90029D01*
X301819Y90099D01*
X301890Y90166D01*
X301964Y90231D01*
X302041Y90292D01*
X302120Y90351D01*
X302201Y90406D01*
X302284Y90458D01*
X302370Y90506D01*
X302457Y90551D01*
X302546Y90593D01*
X302636Y90631D01*
X302728Y90665D01*
X302821Y90696D01*
X302916Y90723D01*
X303011Y90746D01*
X303108Y90766D01*
X303204Y90781D01*
X303302Y90793D01*
X303400Y90801D01*
X303498Y90805D01*
X303596Y90805D01*
X303694Y90801D01*
X303792Y90793D01*
X303890Y90781D01*
X303986Y90766D01*
X304083Y90746D01*
X304178Y90723D01*
X304273Y90696D01*
X304366Y90665D01*
X304458Y90631D01*
X304548Y90593D01*
X304637Y90551D01*
X304724Y90506D01*
X304810Y90458D01*
X304893Y90406D01*
X304974Y90351D01*
X305053Y90292D01*
X305130Y90231D01*
X305204Y90166D01*
X305275Y90099D01*
X305344Y90029D01*
X305410Y89956D01*
X305473Y89881D01*
X305533Y89803D01*
X305590Y89723D01*
X305643Y89641D01*
X305693Y89556D01*
X305740Y89470D01*
X305784Y89382D01*
X305823Y89292D01*
X305860Y89201D01*
X305892Y89108D01*
X305921Y89014D01*
X305946Y88920D01*
X305967Y88824D01*
X305985Y88727D01*
X305998Y88630D01*
X306008Y88532D01*
X306014Y88434D01*
X306016Y88336D01*
X306016Y85866D01*
X306014Y85742D01*
X306008Y85618D01*
X305998Y85494D01*
X305985Y85371D01*
X305967Y85248D01*
X305946Y85126D01*
X305921Y85004D01*
X305892Y84883D01*
X305859Y84764D01*
X305823Y84645D01*
X305782Y84528D01*
X305739Y84412D01*
X305691Y84297D01*
X305640Y84184D01*
X305585Y84072D01*
X305527Y83963D01*
X305466Y83855D01*
X305401Y83749D01*
X305333Y83645D01*
X305261Y83544D01*
X305187Y83444D01*
X305109Y83348D01*
X305029Y83253D01*
X304945Y83161D01*
X304859Y83072D01*
X304770Y82986D01*
X304678Y82902D01*
X304583Y82822D01*
X304487Y82744D01*
X304387Y82670D01*
X304286Y82598D01*
X304182Y82530D01*
X304076Y82465D01*
X303968Y82404D01*
X303859Y82346D01*
X303747Y82291D01*
X303634Y82240D01*
X303519Y82192D01*
X303403Y82149D01*
X303286Y82108D01*
X303167Y82072D01*
X303048Y82039D01*
X302927Y82010D01*
X302805Y81985D01*
X302683Y81964D01*
X302560Y81946D01*
X302437Y81933D01*
X302313Y81923D01*
X302189Y81917D01*
X302065Y81915D01*
X318910Y107051D02*
X336410Y107051D01*
X336410Y91069D02*
X318910Y91069D01*
X320037Y81915D02*
X322013Y81915D01*
X320037Y81915D02*
X319951Y81917D01*
X319865Y81923D01*
X319779Y81932D01*
X319694Y81945D01*
X319609Y81962D01*
X319526Y81982D01*
X319443Y82006D01*
X319361Y82034D01*
X319281Y82065D01*
X319202Y82100D01*
X319125Y82138D01*
X319049Y82180D01*
X318975Y82224D01*
X318904Y82272D01*
X318834Y82323D01*
X318767Y82377D01*
X318702Y82434D01*
X318640Y82494D01*
X318580Y82556D01*
X318523Y82621D01*
X318469Y82688D01*
X318418Y82758D01*
X318370Y82829D01*
X318326Y82903D01*
X318284Y82979D01*
X318246Y83056D01*
X318211Y83135D01*
X318180Y83215D01*
X318152Y83297D01*
X318128Y83380D01*
X318108Y83463D01*
X318091Y83548D01*
X318078Y83633D01*
X318069Y83719D01*
X318063Y83805D01*
X318061Y83891D01*
X318062Y83891D02*
X318062Y88829D01*
X318061Y88829D02*
X318063Y88918D01*
X318069Y89006D01*
X318079Y89094D01*
X318093Y89182D01*
X318111Y89269D01*
X318132Y89355D01*
X318158Y89440D01*
X318187Y89523D01*
X318220Y89606D01*
X318257Y89686D01*
X318297Y89765D01*
X318341Y89842D01*
X318388Y89918D01*
X318438Y89990D01*
X318492Y90061D01*
X318549Y90129D01*
X318609Y90195D01*
X318671Y90257D01*
X318737Y90317D01*
X318805Y90374D01*
X318876Y90428D01*
X318948Y90478D01*
X319023Y90525D01*
X319101Y90569D01*
X319180Y90609D01*
X319260Y90646D01*
X319343Y90679D01*
X319426Y90708D01*
X319511Y90734D01*
X319597Y90755D01*
X319684Y90773D01*
X319772Y90787D01*
X319860Y90797D01*
X319948Y90803D01*
X320037Y90805D01*
X322013Y90805D01*
X325716Y88829D02*
X328185Y90805D01*
X328185Y81915D01*
X325716Y81915D02*
X330654Y81915D01*
X334860Y86360D02*
X334862Y86535D01*
X334868Y86710D01*
X334879Y86884D01*
X334893Y87059D01*
X334912Y87232D01*
X334935Y87406D01*
X334962Y87579D01*
X334993Y87751D01*
X335028Y87922D01*
X335068Y88092D01*
X335111Y88262D01*
X335159Y88430D01*
X335210Y88597D01*
X335265Y88763D01*
X335325Y88928D01*
X335388Y89091D01*
X335455Y89252D01*
X335526Y89412D01*
X335601Y89570D01*
X335601Y89571D02*
X335630Y89649D01*
X335662Y89727D01*
X335699Y89802D01*
X335738Y89876D01*
X335781Y89948D01*
X335827Y90019D01*
X335877Y90086D01*
X335929Y90152D01*
X335984Y90215D01*
X336043Y90275D01*
X336104Y90333D01*
X336167Y90388D01*
X336233Y90440D01*
X336302Y90489D01*
X336372Y90534D01*
X336444Y90577D01*
X336519Y90616D01*
X336595Y90651D01*
X336672Y90683D01*
X336751Y90711D01*
X336832Y90736D01*
X336913Y90757D01*
X336995Y90774D01*
X337078Y90788D01*
X337161Y90797D01*
X337245Y90803D01*
X337329Y90805D01*
X337413Y90803D01*
X337497Y90797D01*
X337580Y90788D01*
X337663Y90774D01*
X337745Y90757D01*
X337826Y90736D01*
X337907Y90711D01*
X337986Y90683D01*
X338063Y90651D01*
X338139Y90616D01*
X338214Y90577D01*
X338286Y90534D01*
X338357Y90489D01*
X338425Y90440D01*
X338491Y90388D01*
X338554Y90333D01*
X338615Y90275D01*
X338674Y90215D01*
X338729Y90152D01*
X338781Y90086D01*
X338831Y90019D01*
X338877Y89948D01*
X338920Y89876D01*
X338959Y89802D01*
X338996Y89727D01*
X339028Y89649D01*
X339057Y89570D01*
X339058Y89570D02*
X339133Y89412D01*
X339204Y89252D01*
X339271Y89091D01*
X339334Y88928D01*
X339394Y88763D01*
X339449Y88597D01*
X339500Y88430D01*
X339548Y88262D01*
X339591Y88092D01*
X339631Y87922D01*
X339666Y87751D01*
X339697Y87579D01*
X339724Y87406D01*
X339747Y87232D01*
X339766Y87059D01*
X339780Y86884D01*
X339791Y86710D01*
X339797Y86535D01*
X339799Y86360D01*
X334860Y86360D02*
X334862Y86185D01*
X334868Y86010D01*
X334879Y85836D01*
X334893Y85661D01*
X334912Y85488D01*
X334935Y85314D01*
X334962Y85141D01*
X334993Y84969D01*
X335028Y84798D01*
X335068Y84628D01*
X335111Y84458D01*
X335159Y84290D01*
X335210Y84123D01*
X335265Y83957D01*
X335325Y83792D01*
X335388Y83629D01*
X335455Y83468D01*
X335526Y83308D01*
X335601Y83150D01*
X335601Y83149D02*
X335630Y83071D01*
X335662Y82993D01*
X335699Y82918D01*
X335738Y82844D01*
X335781Y82771D01*
X335827Y82701D01*
X335877Y82634D01*
X335929Y82568D01*
X335985Y82505D01*
X336043Y82445D01*
X336104Y82387D01*
X336167Y82332D01*
X336233Y82280D01*
X336302Y82231D01*
X336372Y82186D01*
X336444Y82143D01*
X336519Y82104D01*
X336595Y82069D01*
X336672Y82037D01*
X336751Y82009D01*
X336832Y81984D01*
X336913Y81963D01*
X336995Y81946D01*
X337078Y81932D01*
X337161Y81923D01*
X337245Y81917D01*
X337329Y81915D01*
X339057Y83150D02*
X339132Y83308D01*
X339203Y83468D01*
X339270Y83629D01*
X339333Y83792D01*
X339393Y83957D01*
X339448Y84123D01*
X339499Y84290D01*
X339547Y84458D01*
X339590Y84628D01*
X339630Y84798D01*
X339665Y84969D01*
X339696Y85141D01*
X339723Y85314D01*
X339746Y85488D01*
X339765Y85661D01*
X339779Y85836D01*
X339790Y86010D01*
X339796Y86185D01*
X339798Y86360D01*
X339057Y83149D02*
X339028Y83071D01*
X338996Y82993D01*
X338959Y82918D01*
X338920Y82844D01*
X338877Y82772D01*
X338831Y82701D01*
X338781Y82634D01*
X338729Y82568D01*
X338674Y82505D01*
X338615Y82445D01*
X338554Y82387D01*
X338491Y82332D01*
X338425Y82280D01*
X338357Y82231D01*
X338286Y82186D01*
X338214Y82143D01*
X338139Y82104D01*
X338063Y82069D01*
X337986Y82037D01*
X337907Y82009D01*
X337826Y81984D01*
X337745Y81963D01*
X337663Y81946D01*
X337580Y81932D01*
X337497Y81923D01*
X337413Y81917D01*
X337329Y81915D01*
X335353Y83891D02*
X339305Y88829D01*
D15*
X261800Y50560D03*
D16*
X266840Y48660D02*
X284340Y48660D01*
X284340Y17380D02*
X266840Y17380D01*
D12*
X268396Y54894D02*
X268396Y61315D01*
X268397Y54894D02*
X268399Y54796D01*
X268405Y54698D01*
X268415Y54600D01*
X268428Y54503D01*
X268446Y54406D01*
X268467Y54310D01*
X268492Y54216D01*
X268521Y54122D01*
X268553Y54029D01*
X268590Y53938D01*
X268629Y53848D01*
X268673Y53760D01*
X268720Y53674D01*
X268770Y53589D01*
X268823Y53507D01*
X268880Y53427D01*
X268940Y53349D01*
X269003Y53274D01*
X269069Y53201D01*
X269138Y53131D01*
X269209Y53064D01*
X269283Y52999D01*
X269360Y52938D01*
X269439Y52879D01*
X269520Y52824D01*
X269603Y52772D01*
X269689Y52724D01*
X269776Y52679D01*
X269865Y52637D01*
X269955Y52599D01*
X270047Y52565D01*
X270140Y52534D01*
X270235Y52507D01*
X270330Y52484D01*
X270427Y52464D01*
X270523Y52449D01*
X270621Y52437D01*
X270719Y52429D01*
X270817Y52425D01*
X270915Y52425D01*
X271013Y52429D01*
X271111Y52437D01*
X271209Y52449D01*
X271305Y52464D01*
X271402Y52484D01*
X271497Y52507D01*
X271592Y52534D01*
X271685Y52565D01*
X271777Y52599D01*
X271867Y52637D01*
X271956Y52679D01*
X272043Y52724D01*
X272129Y52772D01*
X272212Y52824D01*
X272293Y52879D01*
X272372Y52938D01*
X272449Y52999D01*
X272523Y53064D01*
X272594Y53131D01*
X272663Y53201D01*
X272729Y53274D01*
X272792Y53349D01*
X272852Y53427D01*
X272909Y53507D01*
X272962Y53589D01*
X273012Y53674D01*
X273059Y53760D01*
X273103Y53848D01*
X273142Y53938D01*
X273179Y54029D01*
X273211Y54122D01*
X273240Y54216D01*
X273265Y54310D01*
X273286Y54406D01*
X273304Y54503D01*
X273317Y54600D01*
X273327Y54698D01*
X273333Y54796D01*
X273335Y54894D01*
X273335Y61315D01*
X277845Y52425D02*
X280314Y52425D01*
X280412Y52427D01*
X280510Y52433D01*
X280608Y52443D01*
X280705Y52456D01*
X280802Y52474D01*
X280898Y52495D01*
X280992Y52520D01*
X281086Y52549D01*
X281179Y52581D01*
X281270Y52618D01*
X281360Y52657D01*
X281448Y52701D01*
X281534Y52748D01*
X281619Y52798D01*
X281701Y52851D01*
X281781Y52908D01*
X281859Y52968D01*
X281934Y53031D01*
X282007Y53097D01*
X282077Y53166D01*
X282144Y53237D01*
X282209Y53311D01*
X282270Y53388D01*
X282329Y53467D01*
X282384Y53548D01*
X282436Y53631D01*
X282484Y53717D01*
X282529Y53804D01*
X282571Y53893D01*
X282609Y53983D01*
X282643Y54075D01*
X282674Y54168D01*
X282701Y54263D01*
X282724Y54358D01*
X282744Y54455D01*
X282759Y54551D01*
X282771Y54649D01*
X282779Y54747D01*
X282783Y54845D01*
X282783Y54943D01*
X282779Y55041D01*
X282771Y55139D01*
X282759Y55237D01*
X282744Y55333D01*
X282724Y55430D01*
X282701Y55525D01*
X282674Y55620D01*
X282643Y55713D01*
X282609Y55805D01*
X282571Y55895D01*
X282529Y55984D01*
X282484Y56071D01*
X282436Y56157D01*
X282384Y56240D01*
X282329Y56321D01*
X282270Y56400D01*
X282209Y56477D01*
X282144Y56551D01*
X282077Y56622D01*
X282007Y56691D01*
X281934Y56757D01*
X281859Y56820D01*
X281781Y56880D01*
X281701Y56937D01*
X281619Y56990D01*
X281534Y57040D01*
X281448Y57087D01*
X281360Y57131D01*
X281270Y57170D01*
X281179Y57207D01*
X281086Y57239D01*
X280992Y57268D01*
X280898Y57293D01*
X280802Y57314D01*
X280705Y57332D01*
X280608Y57345D01*
X280510Y57355D01*
X280412Y57361D01*
X280314Y57363D01*
X280808Y61315D02*
X277845Y61315D01*
X280808Y61315D02*
X280895Y61313D01*
X280983Y61307D01*
X281070Y61298D01*
X281156Y61284D01*
X281242Y61267D01*
X281326Y61246D01*
X281410Y61221D01*
X281493Y61192D01*
X281574Y61160D01*
X281654Y61125D01*
X281732Y61086D01*
X281809Y61043D01*
X281883Y60997D01*
X281955Y60948D01*
X282025Y60896D01*
X282093Y60840D01*
X282158Y60782D01*
X282221Y60721D01*
X282280Y60657D01*
X282337Y60590D01*
X282391Y60522D01*
X282442Y60450D01*
X282489Y60377D01*
X282534Y60302D01*
X282575Y60224D01*
X282612Y60145D01*
X282646Y60065D01*
X282676Y59983D01*
X282703Y59900D01*
X282726Y59815D01*
X282745Y59730D01*
X282760Y59644D01*
X282772Y59557D01*
X282780Y59470D01*
X282784Y59383D01*
X282784Y59295D01*
X282780Y59208D01*
X282772Y59121D01*
X282760Y59034D01*
X282745Y58948D01*
X282726Y58863D01*
X282703Y58778D01*
X282676Y58695D01*
X282646Y58613D01*
X282612Y58533D01*
X282575Y58454D01*
X282534Y58376D01*
X282489Y58301D01*
X282442Y58228D01*
X282391Y58156D01*
X282337Y58088D01*
X282280Y58021D01*
X282221Y57957D01*
X282158Y57896D01*
X282093Y57838D01*
X282025Y57782D01*
X281955Y57730D01*
X281883Y57681D01*
X281809Y57635D01*
X281732Y57592D01*
X281654Y57553D01*
X281574Y57518D01*
X281493Y57486D01*
X281410Y57457D01*
X281326Y57432D01*
X281242Y57411D01*
X281156Y57394D01*
X281070Y57380D01*
X280983Y57371D01*
X280895Y57365D01*
X280808Y57363D01*
X280808Y57364D02*
X278833Y57364D01*
D13*
X138557Y86766D02*
X138557Y93574D01*
X138557Y106934D02*
X117983Y106934D01*
X117983Y96291D01*
X117983Y73406D02*
X138557Y73406D01*
X117983Y73406D02*
X117983Y84049D01*
D12*
X121593Y114864D02*
X121593Y121285D01*
X121593Y114864D02*
X121595Y114766D01*
X121601Y114668D01*
X121611Y114570D01*
X121624Y114473D01*
X121642Y114376D01*
X121663Y114280D01*
X121688Y114186D01*
X121717Y114092D01*
X121749Y113999D01*
X121786Y113908D01*
X121825Y113818D01*
X121869Y113730D01*
X121916Y113644D01*
X121966Y113559D01*
X122019Y113477D01*
X122076Y113397D01*
X122136Y113319D01*
X122199Y113244D01*
X122265Y113171D01*
X122334Y113101D01*
X122405Y113034D01*
X122479Y112969D01*
X122556Y112908D01*
X122635Y112849D01*
X122716Y112794D01*
X122799Y112742D01*
X122885Y112694D01*
X122972Y112649D01*
X123061Y112607D01*
X123151Y112569D01*
X123243Y112535D01*
X123336Y112504D01*
X123431Y112477D01*
X123526Y112454D01*
X123623Y112434D01*
X123719Y112419D01*
X123817Y112407D01*
X123915Y112399D01*
X124013Y112395D01*
X124111Y112395D01*
X124209Y112399D01*
X124307Y112407D01*
X124405Y112419D01*
X124501Y112434D01*
X124598Y112454D01*
X124693Y112477D01*
X124788Y112504D01*
X124881Y112535D01*
X124973Y112569D01*
X125063Y112607D01*
X125152Y112649D01*
X125239Y112694D01*
X125325Y112742D01*
X125408Y112794D01*
X125489Y112849D01*
X125568Y112908D01*
X125645Y112969D01*
X125719Y113034D01*
X125790Y113101D01*
X125859Y113171D01*
X125925Y113244D01*
X125988Y113319D01*
X126048Y113397D01*
X126105Y113477D01*
X126158Y113559D01*
X126208Y113644D01*
X126255Y113730D01*
X126299Y113818D01*
X126338Y113908D01*
X126375Y113999D01*
X126407Y114092D01*
X126436Y114186D01*
X126461Y114280D01*
X126482Y114376D01*
X126500Y114473D01*
X126513Y114570D01*
X126523Y114668D01*
X126529Y114766D01*
X126531Y114864D01*
X126532Y114864D02*
X126532Y121285D01*
X133758Y121286D02*
X133850Y121284D01*
X133942Y121278D01*
X134033Y121269D01*
X134124Y121256D01*
X134214Y121239D01*
X134304Y121218D01*
X134392Y121194D01*
X134480Y121166D01*
X134566Y121134D01*
X134651Y121099D01*
X134734Y121060D01*
X134816Y121018D01*
X134896Y120973D01*
X134974Y120924D01*
X135050Y120872D01*
X135123Y120817D01*
X135195Y120759D01*
X135264Y120699D01*
X135330Y120635D01*
X135394Y120569D01*
X135454Y120500D01*
X135512Y120428D01*
X135567Y120355D01*
X135619Y120279D01*
X135668Y120201D01*
X135713Y120121D01*
X135755Y120039D01*
X135794Y119956D01*
X135829Y119871D01*
X135861Y119785D01*
X135889Y119697D01*
X135913Y119609D01*
X135934Y119519D01*
X135951Y119429D01*
X135964Y119338D01*
X135973Y119247D01*
X135979Y119155D01*
X135981Y119063D01*
X133758Y121285D02*
X133652Y121283D01*
X133547Y121277D01*
X133442Y121267D01*
X133337Y121254D01*
X133233Y121236D01*
X133130Y121215D01*
X133027Y121190D01*
X132925Y121161D01*
X132825Y121128D01*
X132726Y121092D01*
X132628Y121052D01*
X132532Y121008D01*
X132437Y120961D01*
X132345Y120911D01*
X132254Y120857D01*
X132165Y120799D01*
X132079Y120739D01*
X131995Y120675D01*
X131913Y120609D01*
X131833Y120539D01*
X131757Y120466D01*
X131683Y120391D01*
X131612Y120313D01*
X131544Y120232D01*
X131478Y120149D01*
X131416Y120063D01*
X131358Y119976D01*
X131302Y119886D01*
X131250Y119794D01*
X131201Y119700D01*
X131156Y119605D01*
X131114Y119508D01*
X131076Y119409D01*
X131042Y119310D01*
X135240Y117334D02*
X135309Y117403D01*
X135375Y117473D01*
X135438Y117547D01*
X135497Y117623D01*
X135554Y117701D01*
X135608Y117781D01*
X135658Y117864D01*
X135705Y117948D01*
X135748Y118035D01*
X135788Y118123D01*
X135824Y118212D01*
X135857Y118303D01*
X135886Y118395D01*
X135911Y118489D01*
X135932Y118583D01*
X135950Y118678D01*
X135963Y118774D01*
X135973Y118870D01*
X135979Y118966D01*
X135981Y119063D01*
X135240Y117334D02*
X131042Y112395D01*
X135981Y112395D01*
X182150Y104200D02*
X184250Y104200D01*
X160750Y104200D02*
X158650Y104200D01*
X182150Y60900D02*
X184250Y60900D01*
X160750Y60900D02*
X158650Y60900D01*
X158650Y104200D01*
X184250Y104200D02*
X184250Y60900D01*
D15*
X157480Y109850D03*
D12*
X188345Y79415D02*
X197235Y79415D01*
X188345Y79415D02*
X188345Y81884D01*
X188347Y81981D01*
X188353Y82078D01*
X188362Y82174D01*
X188375Y82270D01*
X188392Y82366D01*
X188413Y82460D01*
X188438Y82554D01*
X188466Y82647D01*
X188498Y82739D01*
X188533Y82829D01*
X188572Y82918D01*
X188614Y83005D01*
X188660Y83090D01*
X188709Y83174D01*
X188761Y83256D01*
X188817Y83335D01*
X188875Y83413D01*
X188937Y83487D01*
X189001Y83560D01*
X189068Y83630D01*
X189138Y83697D01*
X189211Y83761D01*
X189285Y83823D01*
X189363Y83881D01*
X189442Y83937D01*
X189524Y83989D01*
X189608Y84038D01*
X189693Y84084D01*
X189780Y84126D01*
X189869Y84165D01*
X189959Y84200D01*
X190051Y84232D01*
X190144Y84260D01*
X190238Y84285D01*
X190332Y84306D01*
X190428Y84323D01*
X190524Y84336D01*
X190620Y84345D01*
X190717Y84351D01*
X190814Y84353D01*
X190814Y84354D02*
X194766Y84354D01*
X194766Y84353D02*
X194863Y84351D01*
X194960Y84345D01*
X195056Y84336D01*
X195152Y84323D01*
X195248Y84306D01*
X195342Y84285D01*
X195436Y84260D01*
X195529Y84232D01*
X195621Y84200D01*
X195711Y84165D01*
X195800Y84126D01*
X195887Y84084D01*
X195972Y84038D01*
X196056Y83989D01*
X196138Y83937D01*
X196217Y83881D01*
X196295Y83823D01*
X196369Y83761D01*
X196442Y83697D01*
X196512Y83630D01*
X196579Y83560D01*
X196643Y83487D01*
X196705Y83413D01*
X196763Y83335D01*
X196819Y83256D01*
X196871Y83174D01*
X196920Y83090D01*
X196966Y83005D01*
X197008Y82918D01*
X197047Y82829D01*
X197082Y82739D01*
X197114Y82647D01*
X197142Y82554D01*
X197167Y82460D01*
X197188Y82366D01*
X197205Y82270D01*
X197218Y82174D01*
X197227Y82078D01*
X197233Y81981D01*
X197235Y81884D01*
X197235Y79415D01*
X190321Y88864D02*
X188345Y91333D01*
X197235Y91333D01*
X197235Y88864D02*
X197235Y93803D01*
X136770Y47871D02*
X119770Y47871D01*
X119770Y63889D02*
X136770Y63889D01*
X142856Y60325D02*
X142856Y51435D01*
X142856Y60325D02*
X145326Y60325D01*
X145424Y60323D01*
X145522Y60317D01*
X145620Y60307D01*
X145717Y60294D01*
X145814Y60276D01*
X145910Y60255D01*
X146004Y60230D01*
X146098Y60201D01*
X146191Y60169D01*
X146282Y60132D01*
X146372Y60093D01*
X146460Y60049D01*
X146546Y60002D01*
X146631Y59952D01*
X146713Y59899D01*
X146793Y59842D01*
X146871Y59782D01*
X146946Y59719D01*
X147019Y59653D01*
X147089Y59584D01*
X147156Y59513D01*
X147221Y59439D01*
X147282Y59362D01*
X147341Y59283D01*
X147396Y59202D01*
X147448Y59119D01*
X147496Y59033D01*
X147541Y58946D01*
X147583Y58857D01*
X147621Y58767D01*
X147655Y58675D01*
X147686Y58582D01*
X147713Y58487D01*
X147736Y58392D01*
X147756Y58295D01*
X147771Y58199D01*
X147783Y58101D01*
X147791Y58003D01*
X147795Y57905D01*
X147795Y57807D01*
X147791Y57709D01*
X147783Y57611D01*
X147771Y57513D01*
X147756Y57417D01*
X147736Y57320D01*
X147713Y57225D01*
X147686Y57130D01*
X147655Y57037D01*
X147621Y56945D01*
X147583Y56855D01*
X147541Y56766D01*
X147496Y56679D01*
X147448Y56593D01*
X147396Y56510D01*
X147341Y56429D01*
X147282Y56350D01*
X147221Y56273D01*
X147156Y56199D01*
X147089Y56128D01*
X147019Y56059D01*
X146946Y55993D01*
X146871Y55930D01*
X146793Y55870D01*
X146713Y55813D01*
X146631Y55760D01*
X146546Y55710D01*
X146460Y55663D01*
X146372Y55619D01*
X146282Y55580D01*
X146191Y55543D01*
X146098Y55511D01*
X146004Y55482D01*
X145910Y55457D01*
X145814Y55436D01*
X145717Y55418D01*
X145620Y55405D01*
X145522Y55395D01*
X145424Y55389D01*
X145326Y55387D01*
X145326Y55386D02*
X142856Y55386D01*
X145820Y55386D02*
X147795Y51435D01*
X154641Y60326D02*
X154733Y60324D01*
X154825Y60318D01*
X154916Y60309D01*
X155007Y60296D01*
X155097Y60279D01*
X155187Y60258D01*
X155275Y60234D01*
X155363Y60206D01*
X155449Y60174D01*
X155534Y60139D01*
X155617Y60100D01*
X155699Y60058D01*
X155779Y60013D01*
X155857Y59964D01*
X155933Y59912D01*
X156006Y59857D01*
X156078Y59799D01*
X156147Y59739D01*
X156213Y59675D01*
X156277Y59609D01*
X156337Y59540D01*
X156395Y59468D01*
X156450Y59395D01*
X156502Y59319D01*
X156551Y59241D01*
X156596Y59161D01*
X156638Y59079D01*
X156677Y58996D01*
X156712Y58911D01*
X156744Y58825D01*
X156772Y58737D01*
X156796Y58649D01*
X156817Y58559D01*
X156834Y58469D01*
X156847Y58378D01*
X156856Y58287D01*
X156862Y58195D01*
X156864Y58103D01*
X154641Y60325D02*
X154535Y60323D01*
X154430Y60317D01*
X154325Y60307D01*
X154220Y60294D01*
X154116Y60276D01*
X154013Y60255D01*
X153910Y60230D01*
X153808Y60201D01*
X153708Y60168D01*
X153609Y60132D01*
X153511Y60092D01*
X153415Y60048D01*
X153320Y60001D01*
X153228Y59951D01*
X153137Y59897D01*
X153048Y59839D01*
X152962Y59779D01*
X152878Y59715D01*
X152796Y59649D01*
X152716Y59579D01*
X152640Y59506D01*
X152566Y59431D01*
X152495Y59353D01*
X152427Y59272D01*
X152361Y59189D01*
X152299Y59103D01*
X152241Y59016D01*
X152185Y58926D01*
X152133Y58834D01*
X152084Y58740D01*
X152039Y58645D01*
X151997Y58548D01*
X151959Y58449D01*
X151925Y58350D01*
X156123Y56374D02*
X156192Y56443D01*
X156258Y56513D01*
X156321Y56587D01*
X156380Y56663D01*
X156437Y56741D01*
X156491Y56821D01*
X156541Y56904D01*
X156588Y56988D01*
X156631Y57075D01*
X156671Y57163D01*
X156707Y57252D01*
X156740Y57343D01*
X156769Y57435D01*
X156794Y57529D01*
X156815Y57623D01*
X156833Y57718D01*
X156846Y57814D01*
X156856Y57910D01*
X156862Y58006D01*
X156864Y58103D01*
X156123Y56374D02*
X151925Y51435D01*
X156864Y51435D01*
X205369Y77610D02*
X205369Y95110D01*
X221351Y95110D02*
X221351Y77610D01*
X217805Y61155D02*
X217805Y59179D01*
X217803Y59090D01*
X217797Y59002D01*
X217787Y58914D01*
X217773Y58826D01*
X217755Y58739D01*
X217734Y58653D01*
X217708Y58568D01*
X217679Y58485D01*
X217646Y58402D01*
X217609Y58322D01*
X217569Y58243D01*
X217525Y58166D01*
X217478Y58090D01*
X217428Y58018D01*
X217374Y57947D01*
X217317Y57879D01*
X217257Y57813D01*
X217195Y57751D01*
X217129Y57691D01*
X217061Y57634D01*
X216990Y57580D01*
X216918Y57530D01*
X216843Y57483D01*
X216765Y57439D01*
X216686Y57399D01*
X216606Y57362D01*
X216523Y57329D01*
X216440Y57300D01*
X216355Y57274D01*
X216269Y57253D01*
X216182Y57235D01*
X216094Y57221D01*
X216006Y57211D01*
X215918Y57205D01*
X215829Y57203D01*
X215829Y57204D02*
X210891Y57204D01*
X210891Y57203D02*
X210802Y57205D01*
X210714Y57211D01*
X210626Y57221D01*
X210538Y57235D01*
X210451Y57253D01*
X210365Y57274D01*
X210280Y57300D01*
X210197Y57329D01*
X210114Y57362D01*
X210034Y57399D01*
X209955Y57439D01*
X209878Y57483D01*
X209802Y57530D01*
X209730Y57580D01*
X209659Y57634D01*
X209591Y57691D01*
X209525Y57751D01*
X209463Y57813D01*
X209403Y57879D01*
X209346Y57947D01*
X209292Y58018D01*
X209242Y58090D01*
X209195Y58165D01*
X209151Y58243D01*
X209111Y58322D01*
X209074Y58402D01*
X209041Y58485D01*
X209012Y58568D01*
X208986Y58653D01*
X208965Y58739D01*
X208947Y58826D01*
X208933Y58914D01*
X208923Y59002D01*
X208917Y59090D01*
X208915Y59179D01*
X208915Y61155D01*
X212866Y64858D02*
X212866Y67821D01*
X212868Y67907D01*
X212874Y67993D01*
X212883Y68079D01*
X212896Y68164D01*
X212913Y68249D01*
X212933Y68332D01*
X212957Y68415D01*
X212985Y68497D01*
X213016Y68577D01*
X213051Y68656D01*
X213089Y68733D01*
X213131Y68809D01*
X213175Y68883D01*
X213223Y68954D01*
X213274Y69024D01*
X213328Y69091D01*
X213385Y69156D01*
X213445Y69218D01*
X213507Y69278D01*
X213572Y69335D01*
X213639Y69389D01*
X213709Y69440D01*
X213780Y69488D01*
X213854Y69532D01*
X213930Y69574D01*
X214007Y69612D01*
X214086Y69647D01*
X214166Y69678D01*
X214248Y69706D01*
X214331Y69730D01*
X214414Y69750D01*
X214499Y69767D01*
X214584Y69780D01*
X214670Y69789D01*
X214756Y69795D01*
X214842Y69797D01*
X214842Y69796D02*
X215336Y69796D01*
X215434Y69794D01*
X215532Y69788D01*
X215630Y69778D01*
X215727Y69765D01*
X215824Y69747D01*
X215920Y69726D01*
X216014Y69701D01*
X216108Y69672D01*
X216201Y69640D01*
X216292Y69603D01*
X216382Y69564D01*
X216470Y69520D01*
X216556Y69473D01*
X216641Y69423D01*
X216723Y69370D01*
X216803Y69313D01*
X216881Y69253D01*
X216956Y69190D01*
X217029Y69124D01*
X217099Y69055D01*
X217166Y68984D01*
X217231Y68910D01*
X217292Y68833D01*
X217351Y68754D01*
X217406Y68673D01*
X217458Y68590D01*
X217506Y68504D01*
X217551Y68417D01*
X217593Y68328D01*
X217631Y68238D01*
X217665Y68146D01*
X217696Y68053D01*
X217723Y67958D01*
X217746Y67863D01*
X217766Y67766D01*
X217781Y67670D01*
X217793Y67572D01*
X217801Y67474D01*
X217805Y67376D01*
X217805Y67278D01*
X217801Y67180D01*
X217793Y67082D01*
X217781Y66984D01*
X217766Y66888D01*
X217746Y66791D01*
X217723Y66696D01*
X217696Y66601D01*
X217665Y66508D01*
X217631Y66416D01*
X217593Y66326D01*
X217551Y66237D01*
X217506Y66150D01*
X217458Y66064D01*
X217406Y65981D01*
X217351Y65900D01*
X217292Y65821D01*
X217231Y65744D01*
X217166Y65670D01*
X217099Y65599D01*
X217029Y65530D01*
X216956Y65464D01*
X216881Y65401D01*
X216803Y65341D01*
X216723Y65284D01*
X216641Y65231D01*
X216556Y65181D01*
X216470Y65134D01*
X216382Y65090D01*
X216292Y65051D01*
X216201Y65014D01*
X216108Y64982D01*
X216014Y64953D01*
X215920Y64928D01*
X215824Y64907D01*
X215727Y64889D01*
X215630Y64876D01*
X215532Y64866D01*
X215434Y64860D01*
X215336Y64858D01*
X212866Y64858D01*
X212742Y64860D01*
X212618Y64866D01*
X212494Y64876D01*
X212371Y64889D01*
X212248Y64907D01*
X212126Y64928D01*
X212004Y64953D01*
X211883Y64982D01*
X211764Y65015D01*
X211645Y65051D01*
X211528Y65092D01*
X211412Y65135D01*
X211297Y65183D01*
X211184Y65234D01*
X211072Y65289D01*
X210963Y65347D01*
X210855Y65408D01*
X210749Y65473D01*
X210645Y65541D01*
X210544Y65613D01*
X210444Y65687D01*
X210348Y65765D01*
X210253Y65845D01*
X210161Y65929D01*
X210072Y66015D01*
X209986Y66104D01*
X209902Y66196D01*
X209822Y66291D01*
X209744Y66387D01*
X209670Y66487D01*
X209598Y66588D01*
X209530Y66692D01*
X209465Y66798D01*
X209404Y66906D01*
X209346Y67015D01*
X209291Y67127D01*
X209240Y67240D01*
X209192Y67355D01*
X209149Y67471D01*
X209108Y67588D01*
X209072Y67707D01*
X209039Y67826D01*
X209010Y67947D01*
X208985Y68069D01*
X208964Y68191D01*
X208946Y68314D01*
X208933Y68437D01*
X208923Y68561D01*
X208917Y68685D01*
X208915Y68809D01*
X233291Y41520D02*
X233291Y24520D01*
X249309Y24520D02*
X249309Y41520D01*
X234296Y48895D02*
X234296Y57785D01*
X236766Y57785D01*
X236864Y57783D01*
X236962Y57777D01*
X237060Y57767D01*
X237157Y57754D01*
X237254Y57736D01*
X237350Y57715D01*
X237444Y57690D01*
X237538Y57661D01*
X237631Y57629D01*
X237722Y57592D01*
X237812Y57553D01*
X237900Y57509D01*
X237986Y57462D01*
X238071Y57412D01*
X238153Y57359D01*
X238233Y57302D01*
X238311Y57242D01*
X238386Y57179D01*
X238459Y57113D01*
X238529Y57044D01*
X238596Y56973D01*
X238661Y56899D01*
X238722Y56822D01*
X238781Y56743D01*
X238836Y56662D01*
X238888Y56579D01*
X238936Y56493D01*
X238981Y56406D01*
X239023Y56317D01*
X239061Y56227D01*
X239095Y56135D01*
X239126Y56042D01*
X239153Y55947D01*
X239176Y55852D01*
X239196Y55755D01*
X239211Y55659D01*
X239223Y55561D01*
X239231Y55463D01*
X239235Y55365D01*
X239235Y55267D01*
X239231Y55169D01*
X239223Y55071D01*
X239211Y54973D01*
X239196Y54877D01*
X239176Y54780D01*
X239153Y54685D01*
X239126Y54590D01*
X239095Y54497D01*
X239061Y54405D01*
X239023Y54315D01*
X238981Y54226D01*
X238936Y54139D01*
X238888Y54053D01*
X238836Y53970D01*
X238781Y53889D01*
X238722Y53810D01*
X238661Y53733D01*
X238596Y53659D01*
X238529Y53588D01*
X238459Y53519D01*
X238386Y53453D01*
X238311Y53390D01*
X238233Y53330D01*
X238153Y53273D01*
X238071Y53220D01*
X237986Y53170D01*
X237900Y53123D01*
X237812Y53079D01*
X237722Y53040D01*
X237631Y53003D01*
X237538Y52971D01*
X237444Y52942D01*
X237350Y52917D01*
X237254Y52896D01*
X237157Y52878D01*
X237060Y52865D01*
X236962Y52855D01*
X236864Y52849D01*
X236766Y52847D01*
X236766Y52846D02*
X234296Y52846D01*
X237260Y52846D02*
X239235Y48895D01*
X243365Y48895D02*
X245834Y48895D01*
X245932Y48897D01*
X246030Y48903D01*
X246128Y48913D01*
X246225Y48926D01*
X246322Y48944D01*
X246418Y48965D01*
X246512Y48990D01*
X246606Y49019D01*
X246699Y49051D01*
X246790Y49088D01*
X246880Y49127D01*
X246968Y49171D01*
X247054Y49218D01*
X247139Y49268D01*
X247221Y49321D01*
X247301Y49378D01*
X247379Y49438D01*
X247454Y49501D01*
X247527Y49567D01*
X247597Y49636D01*
X247664Y49707D01*
X247729Y49781D01*
X247790Y49858D01*
X247849Y49937D01*
X247904Y50018D01*
X247956Y50101D01*
X248004Y50187D01*
X248049Y50274D01*
X248091Y50363D01*
X248129Y50453D01*
X248163Y50545D01*
X248194Y50638D01*
X248221Y50733D01*
X248244Y50828D01*
X248264Y50925D01*
X248279Y51021D01*
X248291Y51119D01*
X248299Y51217D01*
X248303Y51315D01*
X248303Y51413D01*
X248299Y51511D01*
X248291Y51609D01*
X248279Y51707D01*
X248264Y51803D01*
X248244Y51900D01*
X248221Y51995D01*
X248194Y52090D01*
X248163Y52183D01*
X248129Y52275D01*
X248091Y52365D01*
X248049Y52454D01*
X248004Y52541D01*
X247956Y52627D01*
X247904Y52710D01*
X247849Y52791D01*
X247790Y52870D01*
X247729Y52947D01*
X247664Y53021D01*
X247597Y53092D01*
X247527Y53161D01*
X247454Y53227D01*
X247379Y53290D01*
X247301Y53350D01*
X247221Y53407D01*
X247139Y53460D01*
X247054Y53510D01*
X246968Y53557D01*
X246880Y53601D01*
X246790Y53640D01*
X246699Y53677D01*
X246606Y53709D01*
X246512Y53738D01*
X246418Y53763D01*
X246322Y53784D01*
X246225Y53802D01*
X246128Y53815D01*
X246030Y53825D01*
X245932Y53831D01*
X245834Y53833D01*
X246328Y57785D02*
X243365Y57785D01*
X246328Y57785D02*
X246415Y57783D01*
X246503Y57777D01*
X246590Y57768D01*
X246676Y57754D01*
X246762Y57737D01*
X246846Y57716D01*
X246930Y57691D01*
X247013Y57662D01*
X247094Y57630D01*
X247174Y57595D01*
X247252Y57556D01*
X247329Y57513D01*
X247403Y57467D01*
X247475Y57418D01*
X247545Y57366D01*
X247613Y57310D01*
X247678Y57252D01*
X247741Y57191D01*
X247800Y57127D01*
X247857Y57060D01*
X247911Y56992D01*
X247962Y56920D01*
X248009Y56847D01*
X248054Y56772D01*
X248095Y56694D01*
X248132Y56615D01*
X248166Y56535D01*
X248196Y56453D01*
X248223Y56370D01*
X248246Y56285D01*
X248265Y56200D01*
X248280Y56114D01*
X248292Y56027D01*
X248300Y55940D01*
X248304Y55853D01*
X248304Y55765D01*
X248300Y55678D01*
X248292Y55591D01*
X248280Y55504D01*
X248265Y55418D01*
X248246Y55333D01*
X248223Y55248D01*
X248196Y55165D01*
X248166Y55083D01*
X248132Y55003D01*
X248095Y54924D01*
X248054Y54846D01*
X248009Y54771D01*
X247962Y54698D01*
X247911Y54626D01*
X247857Y54558D01*
X247800Y54491D01*
X247741Y54427D01*
X247678Y54366D01*
X247613Y54308D01*
X247545Y54252D01*
X247475Y54200D01*
X247403Y54151D01*
X247329Y54105D01*
X247252Y54062D01*
X247174Y54023D01*
X247094Y53988D01*
X247013Y53956D01*
X246930Y53927D01*
X246846Y53902D01*
X246762Y53881D01*
X246676Y53864D01*
X246590Y53850D01*
X246503Y53841D01*
X246415Y53835D01*
X246328Y53833D01*
X246328Y53834D02*
X244353Y53834D01*
X298079Y41770D02*
X298079Y24270D01*
X314061Y24270D02*
X314061Y41770D01*
X303725Y47625D02*
X301749Y47625D01*
X301663Y47627D01*
X301577Y47633D01*
X301491Y47642D01*
X301406Y47655D01*
X301321Y47672D01*
X301238Y47692D01*
X301155Y47716D01*
X301073Y47744D01*
X300993Y47775D01*
X300914Y47810D01*
X300837Y47848D01*
X300761Y47890D01*
X300687Y47934D01*
X300616Y47982D01*
X300546Y48033D01*
X300479Y48087D01*
X300414Y48144D01*
X300352Y48204D01*
X300292Y48266D01*
X300235Y48331D01*
X300181Y48398D01*
X300130Y48468D01*
X300082Y48539D01*
X300038Y48613D01*
X299996Y48689D01*
X299958Y48766D01*
X299923Y48845D01*
X299892Y48925D01*
X299864Y49007D01*
X299840Y49090D01*
X299820Y49173D01*
X299803Y49258D01*
X299790Y49343D01*
X299781Y49429D01*
X299775Y49515D01*
X299773Y49601D01*
X299774Y49601D02*
X299774Y54539D01*
X299773Y54539D02*
X299775Y54628D01*
X299781Y54716D01*
X299791Y54804D01*
X299805Y54892D01*
X299823Y54979D01*
X299844Y55065D01*
X299870Y55150D01*
X299899Y55233D01*
X299932Y55316D01*
X299969Y55396D01*
X300009Y55475D01*
X300053Y55552D01*
X300100Y55628D01*
X300150Y55700D01*
X300204Y55771D01*
X300261Y55839D01*
X300321Y55905D01*
X300383Y55967D01*
X300449Y56027D01*
X300517Y56084D01*
X300588Y56138D01*
X300660Y56188D01*
X300735Y56235D01*
X300813Y56279D01*
X300892Y56319D01*
X300972Y56356D01*
X301055Y56389D01*
X301138Y56418D01*
X301223Y56444D01*
X301309Y56465D01*
X301396Y56483D01*
X301484Y56497D01*
X301572Y56507D01*
X301660Y56513D01*
X301749Y56515D01*
X303725Y56515D01*
X307428Y47625D02*
X310391Y47625D01*
X310480Y47627D01*
X310568Y47633D01*
X310656Y47643D01*
X310744Y47657D01*
X310831Y47675D01*
X310917Y47696D01*
X311002Y47722D01*
X311085Y47751D01*
X311168Y47784D01*
X311248Y47821D01*
X311327Y47861D01*
X311404Y47905D01*
X311480Y47952D01*
X311552Y48002D01*
X311623Y48056D01*
X311691Y48113D01*
X311757Y48173D01*
X311819Y48235D01*
X311879Y48301D01*
X311936Y48369D01*
X311990Y48440D01*
X312040Y48512D01*
X312087Y48587D01*
X312131Y48665D01*
X312171Y48744D01*
X312208Y48824D01*
X312241Y48907D01*
X312270Y48990D01*
X312296Y49075D01*
X312317Y49161D01*
X312335Y49248D01*
X312349Y49336D01*
X312359Y49424D01*
X312365Y49512D01*
X312367Y49601D01*
X312366Y49601D02*
X312366Y50588D01*
X312367Y50588D02*
X312365Y50674D01*
X312359Y50760D01*
X312350Y50846D01*
X312337Y50931D01*
X312320Y51016D01*
X312300Y51099D01*
X312276Y51182D01*
X312248Y51264D01*
X312217Y51344D01*
X312182Y51423D01*
X312144Y51500D01*
X312102Y51576D01*
X312058Y51650D01*
X312010Y51721D01*
X311959Y51791D01*
X311905Y51858D01*
X311848Y51923D01*
X311788Y51985D01*
X311726Y52045D01*
X311661Y52102D01*
X311594Y52156D01*
X311524Y52207D01*
X311453Y52255D01*
X311379Y52299D01*
X311303Y52341D01*
X311226Y52379D01*
X311147Y52414D01*
X311067Y52445D01*
X310985Y52473D01*
X310902Y52497D01*
X310819Y52517D01*
X310734Y52534D01*
X310649Y52547D01*
X310563Y52556D01*
X310477Y52562D01*
X310391Y52564D01*
X307428Y52564D01*
X307428Y56515D01*
X312366Y56515D01*
X148200Y145169D02*
X131200Y145169D01*
X131200Y129151D02*
X148200Y129151D01*
X107296Y132715D02*
X107296Y141605D01*
X109766Y141605D01*
X109864Y141603D01*
X109962Y141597D01*
X110060Y141587D01*
X110157Y141574D01*
X110254Y141556D01*
X110350Y141535D01*
X110444Y141510D01*
X110538Y141481D01*
X110631Y141449D01*
X110722Y141412D01*
X110812Y141373D01*
X110900Y141329D01*
X110986Y141282D01*
X111071Y141232D01*
X111153Y141179D01*
X111233Y141122D01*
X111311Y141062D01*
X111386Y140999D01*
X111459Y140933D01*
X111529Y140864D01*
X111596Y140793D01*
X111661Y140719D01*
X111722Y140642D01*
X111781Y140563D01*
X111836Y140482D01*
X111888Y140399D01*
X111936Y140313D01*
X111981Y140226D01*
X112023Y140137D01*
X112061Y140047D01*
X112095Y139955D01*
X112126Y139862D01*
X112153Y139767D01*
X112176Y139672D01*
X112196Y139575D01*
X112211Y139479D01*
X112223Y139381D01*
X112231Y139283D01*
X112235Y139185D01*
X112235Y139087D01*
X112231Y138989D01*
X112223Y138891D01*
X112211Y138793D01*
X112196Y138697D01*
X112176Y138600D01*
X112153Y138505D01*
X112126Y138410D01*
X112095Y138317D01*
X112061Y138225D01*
X112023Y138135D01*
X111981Y138046D01*
X111936Y137959D01*
X111888Y137873D01*
X111836Y137790D01*
X111781Y137709D01*
X111722Y137630D01*
X111661Y137553D01*
X111596Y137479D01*
X111529Y137408D01*
X111459Y137339D01*
X111386Y137273D01*
X111311Y137210D01*
X111233Y137150D01*
X111153Y137093D01*
X111071Y137040D01*
X110986Y136990D01*
X110900Y136943D01*
X110812Y136899D01*
X110722Y136860D01*
X110631Y136823D01*
X110538Y136791D01*
X110444Y136762D01*
X110350Y136737D01*
X110254Y136716D01*
X110157Y136698D01*
X110060Y136685D01*
X109962Y136675D01*
X109864Y136669D01*
X109766Y136667D01*
X109766Y136666D02*
X107296Y136666D01*
X110260Y136666D02*
X112235Y132715D01*
X116365Y140617D02*
X116365Y141605D01*
X121304Y141605D01*
X118834Y132715D01*
X131200Y199779D02*
X148200Y199779D01*
X148200Y183761D02*
X131200Y183761D01*
X107296Y187325D02*
X107296Y196215D01*
X109766Y196215D01*
X109864Y196213D01*
X109962Y196207D01*
X110060Y196197D01*
X110157Y196184D01*
X110254Y196166D01*
X110350Y196145D01*
X110444Y196120D01*
X110538Y196091D01*
X110631Y196059D01*
X110722Y196022D01*
X110812Y195983D01*
X110900Y195939D01*
X110986Y195892D01*
X111071Y195842D01*
X111153Y195789D01*
X111233Y195732D01*
X111311Y195672D01*
X111386Y195609D01*
X111459Y195543D01*
X111529Y195474D01*
X111596Y195403D01*
X111661Y195329D01*
X111722Y195252D01*
X111781Y195173D01*
X111836Y195092D01*
X111888Y195009D01*
X111936Y194923D01*
X111981Y194836D01*
X112023Y194747D01*
X112061Y194657D01*
X112095Y194565D01*
X112126Y194472D01*
X112153Y194377D01*
X112176Y194282D01*
X112196Y194185D01*
X112211Y194089D01*
X112223Y193991D01*
X112231Y193893D01*
X112235Y193795D01*
X112235Y193697D01*
X112231Y193599D01*
X112223Y193501D01*
X112211Y193403D01*
X112196Y193307D01*
X112176Y193210D01*
X112153Y193115D01*
X112126Y193020D01*
X112095Y192927D01*
X112061Y192835D01*
X112023Y192745D01*
X111981Y192656D01*
X111936Y192569D01*
X111888Y192483D01*
X111836Y192400D01*
X111781Y192319D01*
X111722Y192240D01*
X111661Y192163D01*
X111596Y192089D01*
X111529Y192018D01*
X111459Y191949D01*
X111386Y191883D01*
X111311Y191820D01*
X111233Y191760D01*
X111153Y191703D01*
X111071Y191650D01*
X110986Y191600D01*
X110900Y191553D01*
X110812Y191509D01*
X110722Y191470D01*
X110631Y191433D01*
X110538Y191401D01*
X110444Y191372D01*
X110350Y191347D01*
X110254Y191326D01*
X110157Y191308D01*
X110060Y191295D01*
X109962Y191285D01*
X109864Y191279D01*
X109766Y191277D01*
X109766Y191276D02*
X107296Y191276D01*
X110260Y191276D02*
X112235Y187325D01*
X116365Y189794D02*
X116367Y189892D01*
X116373Y189990D01*
X116383Y190088D01*
X116396Y190185D01*
X116414Y190282D01*
X116435Y190378D01*
X116460Y190472D01*
X116489Y190566D01*
X116521Y190659D01*
X116558Y190750D01*
X116597Y190840D01*
X116641Y190928D01*
X116688Y191014D01*
X116738Y191099D01*
X116791Y191181D01*
X116848Y191261D01*
X116908Y191339D01*
X116971Y191414D01*
X117037Y191487D01*
X117106Y191557D01*
X117177Y191624D01*
X117251Y191689D01*
X117328Y191750D01*
X117407Y191809D01*
X117488Y191864D01*
X117571Y191916D01*
X117657Y191964D01*
X117744Y192009D01*
X117833Y192051D01*
X117923Y192089D01*
X118015Y192123D01*
X118108Y192154D01*
X118203Y192181D01*
X118298Y192204D01*
X118395Y192224D01*
X118491Y192239D01*
X118589Y192251D01*
X118687Y192259D01*
X118785Y192263D01*
X118883Y192263D01*
X118981Y192259D01*
X119079Y192251D01*
X119177Y192239D01*
X119273Y192224D01*
X119370Y192204D01*
X119465Y192181D01*
X119560Y192154D01*
X119653Y192123D01*
X119745Y192089D01*
X119835Y192051D01*
X119924Y192009D01*
X120011Y191964D01*
X120097Y191916D01*
X120180Y191864D01*
X120261Y191809D01*
X120340Y191750D01*
X120417Y191689D01*
X120491Y191624D01*
X120562Y191557D01*
X120631Y191487D01*
X120697Y191414D01*
X120760Y191339D01*
X120820Y191261D01*
X120877Y191181D01*
X120930Y191099D01*
X120980Y191014D01*
X121027Y190928D01*
X121071Y190840D01*
X121110Y190750D01*
X121147Y190659D01*
X121179Y190566D01*
X121208Y190472D01*
X121233Y190378D01*
X121254Y190282D01*
X121272Y190185D01*
X121285Y190088D01*
X121295Y189990D01*
X121301Y189892D01*
X121303Y189794D01*
X121301Y189696D01*
X121295Y189598D01*
X121285Y189500D01*
X121272Y189403D01*
X121254Y189306D01*
X121233Y189210D01*
X121208Y189116D01*
X121179Y189022D01*
X121147Y188929D01*
X121110Y188838D01*
X121071Y188748D01*
X121027Y188660D01*
X120980Y188574D01*
X120930Y188489D01*
X120877Y188407D01*
X120820Y188327D01*
X120760Y188249D01*
X120697Y188174D01*
X120631Y188101D01*
X120562Y188031D01*
X120491Y187964D01*
X120417Y187899D01*
X120340Y187838D01*
X120261Y187779D01*
X120180Y187724D01*
X120097Y187672D01*
X120011Y187624D01*
X119924Y187579D01*
X119835Y187537D01*
X119745Y187499D01*
X119653Y187465D01*
X119560Y187434D01*
X119465Y187407D01*
X119370Y187384D01*
X119273Y187364D01*
X119177Y187349D01*
X119079Y187337D01*
X118981Y187329D01*
X118883Y187325D01*
X118785Y187325D01*
X118687Y187329D01*
X118589Y187337D01*
X118491Y187349D01*
X118395Y187364D01*
X118298Y187384D01*
X118203Y187407D01*
X118108Y187434D01*
X118015Y187465D01*
X117923Y187499D01*
X117833Y187537D01*
X117744Y187579D01*
X117657Y187624D01*
X117571Y187672D01*
X117488Y187724D01*
X117407Y187779D01*
X117328Y187838D01*
X117251Y187899D01*
X117177Y187964D01*
X117106Y188031D01*
X117037Y188101D01*
X116971Y188174D01*
X116908Y188249D01*
X116848Y188327D01*
X116791Y188407D01*
X116738Y188489D01*
X116688Y188574D01*
X116641Y188660D01*
X116597Y188748D01*
X116558Y188838D01*
X116521Y188929D01*
X116489Y189022D01*
X116460Y189116D01*
X116435Y189210D01*
X116414Y189306D01*
X116396Y189403D01*
X116383Y189500D01*
X116373Y189598D01*
X116367Y189696D01*
X116365Y189794D01*
X116858Y194239D02*
X116860Y194326D01*
X116866Y194414D01*
X116875Y194501D01*
X116889Y194587D01*
X116906Y194673D01*
X116927Y194757D01*
X116952Y194841D01*
X116981Y194924D01*
X117013Y195005D01*
X117048Y195085D01*
X117087Y195163D01*
X117130Y195240D01*
X117176Y195314D01*
X117225Y195386D01*
X117277Y195456D01*
X117333Y195524D01*
X117391Y195589D01*
X117452Y195652D01*
X117516Y195711D01*
X117583Y195768D01*
X117651Y195822D01*
X117723Y195873D01*
X117796Y195920D01*
X117871Y195965D01*
X117949Y196006D01*
X118028Y196043D01*
X118108Y196077D01*
X118190Y196107D01*
X118273Y196134D01*
X118358Y196157D01*
X118443Y196176D01*
X118529Y196191D01*
X118616Y196203D01*
X118703Y196211D01*
X118790Y196215D01*
X118878Y196215D01*
X118965Y196211D01*
X119052Y196203D01*
X119139Y196191D01*
X119225Y196176D01*
X119310Y196157D01*
X119395Y196134D01*
X119478Y196107D01*
X119560Y196077D01*
X119640Y196043D01*
X119719Y196006D01*
X119797Y195965D01*
X119872Y195920D01*
X119945Y195873D01*
X120017Y195822D01*
X120085Y195768D01*
X120152Y195711D01*
X120216Y195652D01*
X120277Y195589D01*
X120335Y195524D01*
X120391Y195456D01*
X120443Y195386D01*
X120492Y195314D01*
X120538Y195240D01*
X120581Y195163D01*
X120620Y195085D01*
X120655Y195005D01*
X120687Y194924D01*
X120716Y194841D01*
X120741Y194757D01*
X120762Y194673D01*
X120779Y194587D01*
X120793Y194501D01*
X120802Y194414D01*
X120808Y194326D01*
X120810Y194239D01*
X120808Y194152D01*
X120802Y194064D01*
X120793Y193977D01*
X120779Y193891D01*
X120762Y193805D01*
X120741Y193721D01*
X120716Y193637D01*
X120687Y193554D01*
X120655Y193473D01*
X120620Y193393D01*
X120581Y193315D01*
X120538Y193238D01*
X120492Y193164D01*
X120443Y193092D01*
X120391Y193022D01*
X120335Y192954D01*
X120277Y192889D01*
X120216Y192826D01*
X120152Y192767D01*
X120085Y192710D01*
X120017Y192656D01*
X119945Y192605D01*
X119872Y192558D01*
X119797Y192513D01*
X119719Y192472D01*
X119640Y192435D01*
X119560Y192401D01*
X119478Y192371D01*
X119395Y192344D01*
X119310Y192321D01*
X119225Y192302D01*
X119139Y192287D01*
X119052Y192275D01*
X118965Y192267D01*
X118878Y192263D01*
X118790Y192263D01*
X118703Y192267D01*
X118616Y192275D01*
X118529Y192287D01*
X118443Y192302D01*
X118358Y192321D01*
X118273Y192344D01*
X118190Y192371D01*
X118108Y192401D01*
X118028Y192435D01*
X117949Y192472D01*
X117871Y192513D01*
X117796Y192558D01*
X117723Y192605D01*
X117651Y192656D01*
X117583Y192710D01*
X117516Y192767D01*
X117452Y192826D01*
X117391Y192889D01*
X117333Y192954D01*
X117277Y193022D01*
X117225Y193092D01*
X117176Y193164D01*
X117130Y193238D01*
X117087Y193315D01*
X117048Y193393D01*
X117013Y193473D01*
X116981Y193554D01*
X116952Y193637D01*
X116927Y193721D01*
X116906Y193805D01*
X116889Y193891D01*
X116875Y193977D01*
X116866Y194064D01*
X116860Y194152D01*
X116858Y194239D01*
X151177Y173850D02*
X151177Y156350D01*
X135195Y156350D02*
X135195Y173850D01*
X163158Y159091D02*
X163158Y157116D01*
X163156Y157027D01*
X163150Y156939D01*
X163140Y156851D01*
X163126Y156763D01*
X163108Y156676D01*
X163087Y156590D01*
X163061Y156505D01*
X163032Y156422D01*
X162999Y156339D01*
X162962Y156259D01*
X162922Y156180D01*
X162878Y156103D01*
X162831Y156027D01*
X162781Y155955D01*
X162727Y155884D01*
X162670Y155816D01*
X162610Y155750D01*
X162548Y155688D01*
X162482Y155628D01*
X162414Y155571D01*
X162343Y155517D01*
X162271Y155467D01*
X162196Y155420D01*
X162118Y155376D01*
X162039Y155336D01*
X161959Y155299D01*
X161876Y155266D01*
X161793Y155237D01*
X161708Y155211D01*
X161622Y155190D01*
X161535Y155172D01*
X161447Y155158D01*
X161359Y155148D01*
X161271Y155142D01*
X161182Y155140D01*
X156244Y155140D01*
X156155Y155142D01*
X156067Y155148D01*
X155979Y155158D01*
X155891Y155172D01*
X155804Y155190D01*
X155718Y155211D01*
X155633Y155237D01*
X155550Y155266D01*
X155467Y155299D01*
X155387Y155336D01*
X155308Y155376D01*
X155231Y155420D01*
X155155Y155467D01*
X155083Y155517D01*
X155012Y155571D01*
X154944Y155628D01*
X154878Y155688D01*
X154816Y155750D01*
X154756Y155816D01*
X154699Y155884D01*
X154645Y155955D01*
X154595Y156027D01*
X154548Y156102D01*
X154504Y156180D01*
X154464Y156259D01*
X154427Y156339D01*
X154394Y156422D01*
X154365Y156505D01*
X154339Y156590D01*
X154318Y156676D01*
X154300Y156763D01*
X154286Y156851D01*
X154276Y156939D01*
X154270Y157027D01*
X154268Y157116D01*
X154268Y159091D01*
X156244Y162794D02*
X154268Y165264D01*
X163158Y165264D01*
X163158Y167733D02*
X163158Y162794D01*
X156244Y171938D02*
X154268Y174408D01*
X163158Y174408D01*
X163158Y176877D02*
X163158Y171938D01*
X132451Y173850D02*
X132451Y156350D01*
X116469Y156350D02*
X116469Y173850D01*
X111125Y158183D02*
X111125Y156207D01*
X111123Y156118D01*
X111117Y156030D01*
X111107Y155942D01*
X111093Y155854D01*
X111075Y155767D01*
X111054Y155681D01*
X111028Y155596D01*
X110999Y155513D01*
X110966Y155430D01*
X110929Y155350D01*
X110889Y155271D01*
X110845Y155194D01*
X110798Y155118D01*
X110748Y155046D01*
X110694Y154975D01*
X110637Y154907D01*
X110577Y154841D01*
X110515Y154779D01*
X110449Y154719D01*
X110381Y154662D01*
X110310Y154608D01*
X110238Y154558D01*
X110163Y154511D01*
X110085Y154467D01*
X110006Y154427D01*
X109926Y154390D01*
X109843Y154357D01*
X109760Y154328D01*
X109675Y154302D01*
X109589Y154281D01*
X109502Y154263D01*
X109414Y154249D01*
X109326Y154239D01*
X109238Y154233D01*
X109149Y154231D01*
X109149Y154232D02*
X104211Y154232D01*
X104211Y154231D02*
X104122Y154233D01*
X104034Y154239D01*
X103946Y154249D01*
X103858Y154263D01*
X103771Y154281D01*
X103685Y154302D01*
X103600Y154328D01*
X103517Y154357D01*
X103434Y154390D01*
X103354Y154427D01*
X103275Y154467D01*
X103198Y154511D01*
X103122Y154558D01*
X103050Y154608D01*
X102979Y154662D01*
X102911Y154719D01*
X102845Y154779D01*
X102783Y154841D01*
X102723Y154907D01*
X102666Y154975D01*
X102612Y155046D01*
X102562Y155118D01*
X102515Y155193D01*
X102471Y155271D01*
X102431Y155350D01*
X102394Y155430D01*
X102361Y155513D01*
X102332Y155596D01*
X102306Y155681D01*
X102285Y155767D01*
X102267Y155854D01*
X102253Y155942D01*
X102243Y156030D01*
X102237Y156118D01*
X102235Y156207D01*
X102235Y158183D01*
X104211Y161886D02*
X102235Y164355D01*
X111125Y164355D01*
X111125Y161886D02*
X111125Y166824D01*
X102235Y173746D02*
X102237Y173838D01*
X102243Y173930D01*
X102252Y174021D01*
X102265Y174112D01*
X102282Y174202D01*
X102303Y174292D01*
X102327Y174380D01*
X102355Y174468D01*
X102387Y174554D01*
X102422Y174639D01*
X102461Y174722D01*
X102503Y174804D01*
X102548Y174884D01*
X102597Y174962D01*
X102649Y175038D01*
X102704Y175111D01*
X102762Y175183D01*
X102822Y175252D01*
X102886Y175318D01*
X102952Y175382D01*
X103021Y175442D01*
X103093Y175500D01*
X103166Y175555D01*
X103242Y175607D01*
X103320Y175656D01*
X103400Y175701D01*
X103482Y175743D01*
X103565Y175782D01*
X103650Y175817D01*
X103736Y175849D01*
X103824Y175877D01*
X103912Y175901D01*
X104002Y175922D01*
X104092Y175939D01*
X104183Y175952D01*
X104274Y175961D01*
X104366Y175967D01*
X104458Y175969D01*
X102235Y173746D02*
X102237Y173640D01*
X102243Y173535D01*
X102253Y173430D01*
X102266Y173325D01*
X102284Y173221D01*
X102305Y173118D01*
X102330Y173015D01*
X102359Y172913D01*
X102392Y172813D01*
X102428Y172714D01*
X102468Y172616D01*
X102512Y172520D01*
X102559Y172425D01*
X102609Y172333D01*
X102663Y172242D01*
X102721Y172153D01*
X102781Y172067D01*
X102845Y171983D01*
X102911Y171901D01*
X102981Y171821D01*
X103054Y171745D01*
X103129Y171671D01*
X103207Y171600D01*
X103288Y171532D01*
X103371Y171466D01*
X103457Y171404D01*
X103544Y171346D01*
X103634Y171290D01*
X103726Y171238D01*
X103820Y171189D01*
X103915Y171144D01*
X104012Y171102D01*
X104111Y171064D01*
X104210Y171030D01*
X106187Y175227D02*
X106118Y175296D01*
X106048Y175362D01*
X105974Y175425D01*
X105898Y175484D01*
X105820Y175541D01*
X105740Y175595D01*
X105657Y175645D01*
X105573Y175692D01*
X105486Y175735D01*
X105398Y175775D01*
X105309Y175811D01*
X105218Y175844D01*
X105126Y175873D01*
X105032Y175898D01*
X104938Y175919D01*
X104843Y175937D01*
X104747Y175950D01*
X104651Y175960D01*
X104555Y175966D01*
X104458Y175968D01*
X106186Y175228D02*
X111125Y171030D01*
X111125Y175968D01*
X340731Y41770D02*
X340731Y24270D01*
X324749Y24270D02*
X324749Y41770D01*
X328419Y47625D02*
X330395Y47625D01*
X328419Y47625D02*
X328333Y47627D01*
X328247Y47633D01*
X328161Y47642D01*
X328076Y47655D01*
X327991Y47672D01*
X327908Y47692D01*
X327825Y47716D01*
X327743Y47744D01*
X327663Y47775D01*
X327584Y47810D01*
X327507Y47848D01*
X327431Y47890D01*
X327357Y47934D01*
X327286Y47982D01*
X327216Y48033D01*
X327149Y48087D01*
X327084Y48144D01*
X327022Y48204D01*
X326962Y48266D01*
X326905Y48331D01*
X326851Y48398D01*
X326800Y48468D01*
X326752Y48539D01*
X326708Y48613D01*
X326666Y48689D01*
X326628Y48766D01*
X326593Y48845D01*
X326562Y48925D01*
X326534Y49007D01*
X326510Y49090D01*
X326490Y49173D01*
X326473Y49258D01*
X326460Y49343D01*
X326451Y49429D01*
X326445Y49515D01*
X326443Y49601D01*
X326444Y49601D02*
X326444Y54539D01*
X326443Y54539D02*
X326445Y54628D01*
X326451Y54716D01*
X326461Y54804D01*
X326475Y54892D01*
X326493Y54979D01*
X326514Y55065D01*
X326540Y55150D01*
X326569Y55233D01*
X326602Y55316D01*
X326639Y55396D01*
X326679Y55475D01*
X326723Y55552D01*
X326770Y55628D01*
X326820Y55700D01*
X326874Y55771D01*
X326931Y55839D01*
X326991Y55905D01*
X327053Y55967D01*
X327119Y56027D01*
X327187Y56084D01*
X327258Y56138D01*
X327330Y56188D01*
X327405Y56235D01*
X327483Y56279D01*
X327562Y56319D01*
X327642Y56356D01*
X327725Y56389D01*
X327808Y56418D01*
X327893Y56444D01*
X327979Y56465D01*
X328066Y56483D01*
X328154Y56497D01*
X328242Y56507D01*
X328330Y56513D01*
X328419Y56515D01*
X330395Y56515D01*
X334098Y56515D02*
X334098Y55527D01*
X334098Y56515D02*
X339036Y56515D01*
X336567Y47625D01*
X382510Y126680D02*
X412510Y126680D01*
X412510Y86680D02*
X382510Y86680D01*
X412510Y86680D02*
X412510Y126680D01*
X382510Y126680D02*
X382510Y86680D01*
X377825Y96984D02*
X368935Y96984D01*
X368935Y99453D01*
X368937Y99551D01*
X368943Y99649D01*
X368953Y99747D01*
X368966Y99844D01*
X368984Y99941D01*
X369005Y100037D01*
X369030Y100131D01*
X369059Y100225D01*
X369091Y100318D01*
X369128Y100409D01*
X369167Y100499D01*
X369211Y100587D01*
X369258Y100673D01*
X369308Y100758D01*
X369361Y100840D01*
X369418Y100920D01*
X369478Y100998D01*
X369541Y101073D01*
X369607Y101146D01*
X369676Y101216D01*
X369747Y101283D01*
X369821Y101348D01*
X369898Y101409D01*
X369977Y101468D01*
X370058Y101523D01*
X370141Y101575D01*
X370227Y101623D01*
X370314Y101668D01*
X370403Y101710D01*
X370493Y101748D01*
X370585Y101782D01*
X370678Y101813D01*
X370773Y101840D01*
X370868Y101863D01*
X370965Y101883D01*
X371061Y101898D01*
X371159Y101910D01*
X371257Y101918D01*
X371355Y101922D01*
X371453Y101922D01*
X371551Y101918D01*
X371649Y101910D01*
X371747Y101898D01*
X371843Y101883D01*
X371940Y101863D01*
X372035Y101840D01*
X372130Y101813D01*
X372223Y101782D01*
X372315Y101748D01*
X372405Y101710D01*
X372494Y101668D01*
X372581Y101623D01*
X372667Y101575D01*
X372750Y101523D01*
X372831Y101468D01*
X372910Y101409D01*
X372987Y101348D01*
X373061Y101283D01*
X373132Y101216D01*
X373201Y101146D01*
X373267Y101073D01*
X373330Y100998D01*
X373390Y100920D01*
X373447Y100840D01*
X373500Y100758D01*
X373550Y100673D01*
X373597Y100587D01*
X373641Y100499D01*
X373680Y100409D01*
X373717Y100318D01*
X373749Y100225D01*
X373778Y100131D01*
X373803Y100037D01*
X373824Y99941D01*
X373842Y99844D01*
X373855Y99747D01*
X373865Y99649D01*
X373871Y99551D01*
X373873Y99453D01*
X373874Y99453D02*
X373874Y96984D01*
X373874Y99947D02*
X377825Y101923D01*
X377825Y108711D02*
X377823Y108797D01*
X377817Y108883D01*
X377808Y108969D01*
X377795Y109054D01*
X377778Y109139D01*
X377758Y109222D01*
X377734Y109305D01*
X377706Y109387D01*
X377675Y109467D01*
X377640Y109546D01*
X377602Y109623D01*
X377560Y109699D01*
X377516Y109773D01*
X377468Y109844D01*
X377417Y109914D01*
X377363Y109981D01*
X377306Y110046D01*
X377246Y110108D01*
X377184Y110168D01*
X377119Y110225D01*
X377052Y110279D01*
X376982Y110330D01*
X376911Y110378D01*
X376837Y110422D01*
X376761Y110464D01*
X376684Y110502D01*
X376605Y110537D01*
X376525Y110568D01*
X376443Y110596D01*
X376360Y110620D01*
X376277Y110640D01*
X376192Y110657D01*
X376107Y110670D01*
X376021Y110679D01*
X375935Y110685D01*
X375849Y110687D01*
X377826Y108711D02*
X377824Y108584D01*
X377818Y108458D01*
X377809Y108331D01*
X377795Y108205D01*
X377778Y108080D01*
X377757Y107955D01*
X377732Y107830D01*
X377703Y107707D01*
X377671Y107584D01*
X377635Y107463D01*
X377595Y107342D01*
X377552Y107223D01*
X377505Y107106D01*
X377454Y106989D01*
X377400Y106875D01*
X377343Y106762D01*
X377282Y106651D01*
X377218Y106541D01*
X377150Y106434D01*
X377080Y106329D01*
X377006Y106226D01*
X376929Y106125D01*
X376849Y106027D01*
X376766Y105931D01*
X376680Y105838D01*
X376591Y105747D01*
X370911Y105994D02*
X370825Y105996D01*
X370739Y106002D01*
X370653Y106011D01*
X370568Y106024D01*
X370483Y106041D01*
X370400Y106061D01*
X370317Y106085D01*
X370235Y106113D01*
X370155Y106144D01*
X370076Y106179D01*
X369999Y106217D01*
X369923Y106259D01*
X369849Y106303D01*
X369778Y106351D01*
X369708Y106402D01*
X369641Y106456D01*
X369576Y106513D01*
X369514Y106573D01*
X369454Y106635D01*
X369397Y106700D01*
X369343Y106767D01*
X369292Y106837D01*
X369244Y106908D01*
X369200Y106982D01*
X369158Y107058D01*
X369120Y107135D01*
X369085Y107214D01*
X369054Y107294D01*
X369026Y107376D01*
X369002Y107459D01*
X368982Y107542D01*
X368965Y107627D01*
X368952Y107712D01*
X368943Y107798D01*
X368937Y107884D01*
X368935Y107970D01*
X368937Y108089D01*
X368943Y108208D01*
X368952Y108327D01*
X368966Y108445D01*
X368983Y108563D01*
X369004Y108681D01*
X369029Y108797D01*
X369057Y108913D01*
X369089Y109028D01*
X369125Y109141D01*
X369165Y109254D01*
X369208Y109365D01*
X369254Y109475D01*
X369304Y109583D01*
X369358Y109689D01*
X369415Y109794D01*
X369475Y109896D01*
X369539Y109997D01*
X369606Y110096D01*
X369676Y110192D01*
X372639Y106983D02*
X372594Y106909D01*
X372545Y106837D01*
X372493Y106767D01*
X372438Y106700D01*
X372380Y106635D01*
X372320Y106573D01*
X372257Y106514D01*
X372191Y106457D01*
X372123Y106403D01*
X372053Y106352D01*
X371981Y106304D01*
X371906Y106259D01*
X371830Y106218D01*
X371752Y106180D01*
X371672Y106145D01*
X371591Y106114D01*
X371509Y106086D01*
X371426Y106062D01*
X371342Y106042D01*
X371256Y106025D01*
X371171Y106012D01*
X371084Y106003D01*
X370998Y105997D01*
X370911Y105995D01*
X374121Y109698D02*
X374166Y109772D01*
X374215Y109844D01*
X374267Y109914D01*
X374322Y109981D01*
X374380Y110046D01*
X374440Y110108D01*
X374503Y110168D01*
X374569Y110224D01*
X374637Y110278D01*
X374707Y110329D01*
X374779Y110377D01*
X374854Y110422D01*
X374930Y110463D01*
X375008Y110501D01*
X375088Y110536D01*
X375169Y110567D01*
X375251Y110595D01*
X375334Y110619D01*
X375418Y110639D01*
X375504Y110656D01*
X375589Y110669D01*
X375676Y110678D01*
X375762Y110684D01*
X375849Y110686D01*
X374121Y109699D02*
X372639Y106982D01*
X368935Y116447D02*
X377825Y116447D01*
X368935Y113977D02*
X368935Y118916D01*
D17*
X172450Y15510D02*
X119650Y15510D01*
X119650Y42910D01*
X172450Y42910D01*
X172450Y15510D01*
D12*
X111689Y21419D02*
X104775Y21419D01*
X111689Y21420D02*
X111775Y21418D01*
X111861Y21412D01*
X111947Y21403D01*
X112032Y21390D01*
X112117Y21373D01*
X112200Y21353D01*
X112283Y21329D01*
X112365Y21301D01*
X112445Y21270D01*
X112524Y21235D01*
X112601Y21197D01*
X112677Y21155D01*
X112751Y21111D01*
X112822Y21063D01*
X112892Y21012D01*
X112959Y20958D01*
X113024Y20901D01*
X113086Y20841D01*
X113146Y20779D01*
X113203Y20714D01*
X113257Y20647D01*
X113308Y20577D01*
X113356Y20506D01*
X113400Y20432D01*
X113442Y20356D01*
X113480Y20279D01*
X113515Y20200D01*
X113546Y20120D01*
X113574Y20038D01*
X113598Y19955D01*
X113618Y19872D01*
X113635Y19787D01*
X113648Y19702D01*
X113657Y19616D01*
X113663Y19530D01*
X113665Y19444D01*
X113665Y18456D01*
X113665Y26360D02*
X104775Y26360D01*
X104775Y28829D01*
X104777Y28927D01*
X104783Y29025D01*
X104793Y29123D01*
X104806Y29220D01*
X104824Y29317D01*
X104845Y29413D01*
X104870Y29507D01*
X104899Y29601D01*
X104931Y29694D01*
X104968Y29785D01*
X105007Y29875D01*
X105051Y29963D01*
X105098Y30049D01*
X105148Y30134D01*
X105201Y30216D01*
X105258Y30296D01*
X105318Y30374D01*
X105381Y30449D01*
X105447Y30522D01*
X105516Y30592D01*
X105587Y30659D01*
X105661Y30724D01*
X105738Y30785D01*
X105817Y30844D01*
X105898Y30899D01*
X105981Y30951D01*
X106067Y30999D01*
X106154Y31044D01*
X106243Y31086D01*
X106333Y31124D01*
X106425Y31158D01*
X106518Y31189D01*
X106613Y31216D01*
X106708Y31239D01*
X106805Y31259D01*
X106901Y31274D01*
X106999Y31286D01*
X107097Y31294D01*
X107195Y31298D01*
X107293Y31298D01*
X107391Y31294D01*
X107489Y31286D01*
X107587Y31274D01*
X107683Y31259D01*
X107780Y31239D01*
X107875Y31216D01*
X107970Y31189D01*
X108063Y31158D01*
X108155Y31124D01*
X108245Y31086D01*
X108334Y31044D01*
X108421Y30999D01*
X108507Y30951D01*
X108590Y30899D01*
X108671Y30844D01*
X108750Y30785D01*
X108827Y30724D01*
X108901Y30659D01*
X108972Y30592D01*
X109041Y30522D01*
X109107Y30449D01*
X109170Y30374D01*
X109230Y30296D01*
X109287Y30216D01*
X109340Y30134D01*
X109390Y30049D01*
X109437Y29963D01*
X109481Y29875D01*
X109520Y29785D01*
X109557Y29694D01*
X109589Y29601D01*
X109618Y29507D01*
X109643Y29413D01*
X109664Y29317D01*
X109682Y29220D01*
X109695Y29123D01*
X109705Y29025D01*
X109711Y28927D01*
X109713Y28829D01*
X109714Y28829D02*
X109714Y26360D01*
X106751Y35025D02*
X104775Y37495D01*
X113665Y37495D01*
X113665Y39964D02*
X113665Y35025D01*
X223720Y106320D02*
X248720Y106320D01*
X223720Y106320D02*
X223720Y61320D01*
X248720Y61320D01*
X248720Y106320D01*
X253365Y57500D02*
X260279Y57500D01*
X260279Y57501D02*
X260365Y57499D01*
X260451Y57493D01*
X260537Y57484D01*
X260622Y57471D01*
X260707Y57454D01*
X260790Y57434D01*
X260873Y57410D01*
X260955Y57382D01*
X261035Y57351D01*
X261114Y57316D01*
X261191Y57278D01*
X261267Y57236D01*
X261341Y57192D01*
X261412Y57144D01*
X261482Y57093D01*
X261549Y57039D01*
X261614Y56982D01*
X261676Y56922D01*
X261736Y56860D01*
X261793Y56795D01*
X261847Y56728D01*
X261898Y56658D01*
X261946Y56587D01*
X261990Y56513D01*
X262032Y56437D01*
X262070Y56360D01*
X262105Y56281D01*
X262136Y56201D01*
X262164Y56119D01*
X262188Y56036D01*
X262208Y55953D01*
X262225Y55868D01*
X262238Y55783D01*
X262247Y55697D01*
X262253Y55611D01*
X262255Y55525D01*
X262255Y54537D01*
X262255Y62441D02*
X253365Y62441D01*
X253365Y64910D01*
X253367Y65008D01*
X253373Y65106D01*
X253383Y65204D01*
X253396Y65301D01*
X253414Y65398D01*
X253435Y65494D01*
X253460Y65588D01*
X253489Y65682D01*
X253521Y65775D01*
X253558Y65866D01*
X253597Y65956D01*
X253641Y66044D01*
X253688Y66130D01*
X253738Y66215D01*
X253791Y66297D01*
X253848Y66377D01*
X253908Y66455D01*
X253971Y66530D01*
X254037Y66603D01*
X254106Y66673D01*
X254177Y66740D01*
X254251Y66805D01*
X254328Y66866D01*
X254407Y66925D01*
X254488Y66980D01*
X254571Y67032D01*
X254657Y67080D01*
X254744Y67125D01*
X254833Y67167D01*
X254923Y67205D01*
X255015Y67239D01*
X255108Y67270D01*
X255203Y67297D01*
X255298Y67320D01*
X255395Y67340D01*
X255491Y67355D01*
X255589Y67367D01*
X255687Y67375D01*
X255785Y67379D01*
X255883Y67379D01*
X255981Y67375D01*
X256079Y67367D01*
X256177Y67355D01*
X256273Y67340D01*
X256370Y67320D01*
X256465Y67297D01*
X256560Y67270D01*
X256653Y67239D01*
X256745Y67205D01*
X256835Y67167D01*
X256924Y67125D01*
X257011Y67080D01*
X257097Y67032D01*
X257180Y66980D01*
X257261Y66925D01*
X257340Y66866D01*
X257417Y66805D01*
X257491Y66740D01*
X257562Y66673D01*
X257631Y66603D01*
X257697Y66530D01*
X257760Y66455D01*
X257820Y66377D01*
X257877Y66297D01*
X257930Y66215D01*
X257980Y66130D01*
X258027Y66044D01*
X258071Y65956D01*
X258110Y65866D01*
X258147Y65775D01*
X258179Y65682D01*
X258208Y65588D01*
X258233Y65494D01*
X258254Y65398D01*
X258272Y65301D01*
X258285Y65204D01*
X258295Y65106D01*
X258301Y65008D01*
X258303Y64910D01*
X258304Y64910D02*
X258304Y62441D01*
X263243Y70686D02*
X263243Y74637D01*
X262255Y80363D02*
X262255Y82339D01*
X262255Y80363D02*
X262253Y80274D01*
X262247Y80186D01*
X262237Y80098D01*
X262223Y80010D01*
X262205Y79923D01*
X262184Y79837D01*
X262158Y79752D01*
X262129Y79669D01*
X262096Y79586D01*
X262059Y79506D01*
X262019Y79427D01*
X261975Y79350D01*
X261928Y79274D01*
X261878Y79202D01*
X261824Y79131D01*
X261767Y79063D01*
X261707Y78997D01*
X261645Y78935D01*
X261579Y78875D01*
X261511Y78818D01*
X261440Y78764D01*
X261368Y78714D01*
X261293Y78667D01*
X261215Y78623D01*
X261136Y78583D01*
X261056Y78546D01*
X260973Y78513D01*
X260890Y78484D01*
X260805Y78458D01*
X260719Y78437D01*
X260632Y78419D01*
X260544Y78405D01*
X260456Y78395D01*
X260368Y78389D01*
X260279Y78387D01*
X260279Y78388D02*
X255341Y78388D01*
X255341Y78387D02*
X255252Y78389D01*
X255164Y78395D01*
X255076Y78405D01*
X254988Y78419D01*
X254901Y78437D01*
X254815Y78458D01*
X254730Y78484D01*
X254647Y78513D01*
X254564Y78546D01*
X254484Y78583D01*
X254405Y78623D01*
X254328Y78667D01*
X254252Y78714D01*
X254180Y78764D01*
X254109Y78818D01*
X254041Y78875D01*
X253975Y78935D01*
X253913Y78997D01*
X253853Y79063D01*
X253796Y79131D01*
X253742Y79202D01*
X253692Y79274D01*
X253645Y79349D01*
X253601Y79427D01*
X253561Y79506D01*
X253524Y79586D01*
X253491Y79669D01*
X253462Y79752D01*
X253436Y79837D01*
X253415Y79923D01*
X253397Y80010D01*
X253383Y80098D01*
X253373Y80186D01*
X253367Y80274D01*
X253365Y80363D01*
X253365Y82339D01*
X253365Y86346D02*
X259786Y86346D01*
X259786Y86347D02*
X259884Y86349D01*
X259982Y86355D01*
X260080Y86365D01*
X260177Y86378D01*
X260274Y86396D01*
X260370Y86417D01*
X260464Y86442D01*
X260558Y86471D01*
X260651Y86503D01*
X260742Y86540D01*
X260832Y86579D01*
X260920Y86623D01*
X261006Y86670D01*
X261091Y86720D01*
X261173Y86773D01*
X261253Y86830D01*
X261331Y86890D01*
X261406Y86953D01*
X261479Y87019D01*
X261549Y87088D01*
X261616Y87159D01*
X261681Y87233D01*
X261742Y87310D01*
X261801Y87389D01*
X261856Y87470D01*
X261908Y87553D01*
X261956Y87639D01*
X262001Y87726D01*
X262043Y87815D01*
X262081Y87905D01*
X262115Y87997D01*
X262146Y88090D01*
X262173Y88185D01*
X262196Y88280D01*
X262216Y88377D01*
X262231Y88473D01*
X262243Y88571D01*
X262251Y88669D01*
X262255Y88767D01*
X262255Y88865D01*
X262251Y88963D01*
X262243Y89061D01*
X262231Y89159D01*
X262216Y89255D01*
X262196Y89352D01*
X262173Y89447D01*
X262146Y89542D01*
X262115Y89635D01*
X262081Y89727D01*
X262043Y89817D01*
X262001Y89906D01*
X261956Y89993D01*
X261908Y90079D01*
X261856Y90162D01*
X261801Y90243D01*
X261742Y90322D01*
X261681Y90399D01*
X261616Y90473D01*
X261549Y90544D01*
X261479Y90613D01*
X261406Y90679D01*
X261331Y90742D01*
X261253Y90802D01*
X261173Y90859D01*
X261091Y90912D01*
X261006Y90962D01*
X260920Y91009D01*
X260832Y91053D01*
X260742Y91092D01*
X260651Y91129D01*
X260558Y91161D01*
X260464Y91190D01*
X260370Y91215D01*
X260274Y91236D01*
X260177Y91254D01*
X260080Y91267D01*
X259982Y91277D01*
X259884Y91283D01*
X259786Y91285D01*
X253365Y91285D01*
X253365Y96175D02*
X262255Y96175D01*
X253365Y96175D02*
X253365Y98645D01*
X253367Y98743D01*
X253373Y98841D01*
X253383Y98939D01*
X253396Y99036D01*
X253414Y99133D01*
X253435Y99229D01*
X253460Y99323D01*
X253489Y99417D01*
X253521Y99510D01*
X253558Y99601D01*
X253597Y99691D01*
X253641Y99779D01*
X253688Y99865D01*
X253738Y99950D01*
X253791Y100032D01*
X253848Y100112D01*
X253908Y100190D01*
X253971Y100265D01*
X254037Y100338D01*
X254106Y100408D01*
X254177Y100475D01*
X254251Y100540D01*
X254328Y100601D01*
X254407Y100660D01*
X254488Y100715D01*
X254571Y100767D01*
X254657Y100815D01*
X254744Y100860D01*
X254833Y100902D01*
X254923Y100940D01*
X255015Y100974D01*
X255108Y101005D01*
X255203Y101032D01*
X255298Y101055D01*
X255395Y101075D01*
X255491Y101090D01*
X255589Y101102D01*
X255687Y101110D01*
X255785Y101114D01*
X255883Y101114D01*
X255981Y101110D01*
X256079Y101102D01*
X256177Y101090D01*
X256273Y101075D01*
X256370Y101055D01*
X256465Y101032D01*
X256560Y101005D01*
X256653Y100974D01*
X256745Y100940D01*
X256835Y100902D01*
X256924Y100860D01*
X257011Y100815D01*
X257097Y100767D01*
X257180Y100715D01*
X257261Y100660D01*
X257340Y100601D01*
X257417Y100540D01*
X257491Y100475D01*
X257562Y100408D01*
X257631Y100338D01*
X257697Y100265D01*
X257760Y100190D01*
X257820Y100112D01*
X257877Y100032D01*
X257930Y99950D01*
X257980Y99865D01*
X258027Y99779D01*
X258071Y99691D01*
X258110Y99601D01*
X258147Y99510D01*
X258179Y99417D01*
X258208Y99323D01*
X258233Y99229D01*
X258254Y99133D01*
X258272Y99036D01*
X258285Y98939D01*
X258295Y98841D01*
X258301Y98743D01*
X258303Y98645D01*
X258304Y98645D02*
X258304Y96175D01*
X258304Y99139D02*
X262255Y101114D01*
X262255Y105624D02*
X253365Y105624D01*
X253365Y108094D01*
X253367Y108192D01*
X253373Y108290D01*
X253383Y108388D01*
X253396Y108485D01*
X253414Y108582D01*
X253435Y108678D01*
X253460Y108772D01*
X253489Y108866D01*
X253521Y108959D01*
X253558Y109050D01*
X253597Y109140D01*
X253641Y109228D01*
X253688Y109314D01*
X253738Y109399D01*
X253791Y109481D01*
X253848Y109561D01*
X253908Y109639D01*
X253971Y109714D01*
X254037Y109787D01*
X254106Y109857D01*
X254177Y109924D01*
X254251Y109989D01*
X254328Y110050D01*
X254407Y110109D01*
X254488Y110164D01*
X254571Y110216D01*
X254657Y110264D01*
X254744Y110309D01*
X254833Y110351D01*
X254923Y110389D01*
X255015Y110423D01*
X255108Y110454D01*
X255203Y110481D01*
X255298Y110504D01*
X255395Y110524D01*
X255491Y110539D01*
X255589Y110551D01*
X255687Y110559D01*
X255785Y110563D01*
X255883Y110563D01*
X255981Y110559D01*
X256079Y110551D01*
X256177Y110539D01*
X256273Y110524D01*
X256370Y110504D01*
X256465Y110481D01*
X256560Y110454D01*
X256653Y110423D01*
X256745Y110389D01*
X256835Y110351D01*
X256924Y110309D01*
X257011Y110264D01*
X257097Y110216D01*
X257180Y110164D01*
X257261Y110109D01*
X257340Y110050D01*
X257417Y109989D01*
X257491Y109924D01*
X257562Y109857D01*
X257631Y109787D01*
X257697Y109714D01*
X257760Y109639D01*
X257820Y109561D01*
X257877Y109481D01*
X257930Y109399D01*
X257980Y109314D01*
X258027Y109228D01*
X258071Y109140D01*
X258110Y109050D01*
X258147Y108959D01*
X258179Y108866D01*
X258208Y108772D01*
X258233Y108678D01*
X258254Y108582D01*
X258272Y108485D01*
X258285Y108388D01*
X258295Y108290D01*
X258301Y108192D01*
X258303Y108094D01*
X258304Y108094D02*
X258304Y105624D01*
X258304Y108588D02*
X262255Y110563D01*
D13*
X-5296Y118590D02*
X-5296Y220190D01*
X-5296Y118590D02*
X73190Y118590D01*
X73190Y220190D01*
X-5296Y220190D01*
D12*
X16126Y226131D02*
X16126Y233045D01*
X16127Y226131D02*
X16125Y226045D01*
X16119Y225959D01*
X16110Y225873D01*
X16097Y225788D01*
X16080Y225703D01*
X16060Y225620D01*
X16036Y225537D01*
X16008Y225455D01*
X15977Y225375D01*
X15942Y225296D01*
X15904Y225219D01*
X15862Y225143D01*
X15818Y225069D01*
X15770Y224998D01*
X15719Y224928D01*
X15665Y224861D01*
X15608Y224796D01*
X15548Y224734D01*
X15486Y224674D01*
X15421Y224617D01*
X15354Y224563D01*
X15284Y224512D01*
X15213Y224464D01*
X15139Y224420D01*
X15063Y224378D01*
X14986Y224340D01*
X14907Y224305D01*
X14827Y224274D01*
X14745Y224246D01*
X14662Y224222D01*
X14579Y224202D01*
X14494Y224185D01*
X14409Y224172D01*
X14323Y224163D01*
X14237Y224157D01*
X14151Y224155D01*
X13163Y224155D01*
X20589Y224155D02*
X23058Y224155D01*
X23156Y224157D01*
X23254Y224163D01*
X23352Y224173D01*
X23449Y224186D01*
X23546Y224204D01*
X23642Y224225D01*
X23736Y224250D01*
X23830Y224279D01*
X23923Y224311D01*
X24014Y224348D01*
X24104Y224387D01*
X24192Y224431D01*
X24278Y224478D01*
X24363Y224528D01*
X24445Y224581D01*
X24525Y224638D01*
X24603Y224698D01*
X24678Y224761D01*
X24751Y224827D01*
X24821Y224896D01*
X24888Y224967D01*
X24953Y225041D01*
X25014Y225118D01*
X25073Y225197D01*
X25128Y225278D01*
X25180Y225361D01*
X25228Y225447D01*
X25273Y225534D01*
X25315Y225623D01*
X25353Y225713D01*
X25387Y225805D01*
X25418Y225898D01*
X25445Y225993D01*
X25468Y226088D01*
X25488Y226185D01*
X25503Y226281D01*
X25515Y226379D01*
X25523Y226477D01*
X25527Y226575D01*
X25527Y226673D01*
X25523Y226771D01*
X25515Y226869D01*
X25503Y226967D01*
X25488Y227063D01*
X25468Y227160D01*
X25445Y227255D01*
X25418Y227350D01*
X25387Y227443D01*
X25353Y227535D01*
X25315Y227625D01*
X25273Y227714D01*
X25228Y227801D01*
X25180Y227887D01*
X25128Y227970D01*
X25073Y228051D01*
X25014Y228130D01*
X24953Y228207D01*
X24888Y228281D01*
X24821Y228352D01*
X24751Y228421D01*
X24678Y228487D01*
X24603Y228550D01*
X24525Y228610D01*
X24445Y228667D01*
X24363Y228720D01*
X24278Y228770D01*
X24192Y228817D01*
X24104Y228861D01*
X24014Y228900D01*
X23923Y228937D01*
X23830Y228969D01*
X23736Y228998D01*
X23642Y229023D01*
X23546Y229044D01*
X23449Y229062D01*
X23352Y229075D01*
X23254Y229085D01*
X23156Y229091D01*
X23058Y229093D01*
X23552Y233045D02*
X20589Y233045D01*
X23552Y233045D02*
X23639Y233043D01*
X23727Y233037D01*
X23814Y233028D01*
X23900Y233014D01*
X23986Y232997D01*
X24070Y232976D01*
X24154Y232951D01*
X24237Y232922D01*
X24318Y232890D01*
X24398Y232855D01*
X24476Y232816D01*
X24553Y232773D01*
X24627Y232727D01*
X24699Y232678D01*
X24769Y232626D01*
X24837Y232570D01*
X24902Y232512D01*
X24965Y232451D01*
X25024Y232387D01*
X25081Y232320D01*
X25135Y232252D01*
X25186Y232180D01*
X25233Y232107D01*
X25278Y232032D01*
X25319Y231954D01*
X25356Y231875D01*
X25390Y231795D01*
X25420Y231713D01*
X25447Y231630D01*
X25470Y231545D01*
X25489Y231460D01*
X25504Y231374D01*
X25516Y231287D01*
X25524Y231200D01*
X25528Y231113D01*
X25528Y231025D01*
X25524Y230938D01*
X25516Y230851D01*
X25504Y230764D01*
X25489Y230678D01*
X25470Y230593D01*
X25447Y230508D01*
X25420Y230425D01*
X25390Y230343D01*
X25356Y230263D01*
X25319Y230184D01*
X25278Y230106D01*
X25233Y230031D01*
X25186Y229958D01*
X25135Y229886D01*
X25081Y229818D01*
X25024Y229751D01*
X24965Y229687D01*
X24902Y229626D01*
X24837Y229568D01*
X24769Y229512D01*
X24699Y229460D01*
X24627Y229411D01*
X24553Y229365D01*
X24476Y229322D01*
X24398Y229283D01*
X24318Y229248D01*
X24237Y229216D01*
X24154Y229187D01*
X24070Y229162D01*
X23986Y229141D01*
X23900Y229124D01*
X23814Y229110D01*
X23727Y229101D01*
X23639Y229095D01*
X23552Y229093D01*
X23552Y229094D02*
X21576Y229094D01*
M02*
