G04 EAGLE Gerber RS-274X export*
G75*
%MOMM*%
%FSLAX34Y34*%
%LPD*%
%INSolderpaste Top*%
%IPPOS*%
%AMOC8*
5,1,8,0,0,1.08239X$1,22.5*%
G01*
G04 Define Apertures*
%ADD10R,0.798700X0.973900*%
%ADD11R,2.794000X0.762000*%
%ADD12R,0.970200X0.920900*%
%ADD13R,3.400000X1.500000*%
%ADD14R,3.500000X1.000000*%
%ADD15C,0.273600*%
%ADD16R,1.200000X0.800000*%
%ADD17R,0.973900X0.798700*%
%ADD18R,0.355600X1.676400*%
%ADD19R,1.465300X1.164600*%
%ADD20R,0.400000X1.400000*%
%ADD21R,0.800000X1.400000*%
%ADD22R,1.400000X0.400000*%
%ADD23R,0.400000X1.000000*%
%ADD24R,0.970200X0.900000*%
%ADD25R,0.970200X0.932600*%
%ADD26R,1.803400X0.990600*%
%ADD27R,0.920900X0.970200*%
%ADD28C,0.063500*%
%ADD29R,0.254000X0.304800*%
%ADD30R,0.304800X0.254000*%
%ADD31R,1.100000X0.600000*%
%ADD32R,1.320800X0.558800*%
%ADD33R,1.500000X2.120000*%
%ADD34C,1.270000*%
%ADD35R,2.000000X1.050000*%
D10*
X507121Y35560D03*
X523425Y35560D03*
D11*
X369570Y213360D03*
X410210Y213360D03*
X369570Y200660D03*
X410210Y200660D03*
X369570Y187960D03*
X410210Y187960D03*
X369570Y175260D03*
X410210Y175260D03*
X369570Y162560D03*
X410210Y162560D03*
D12*
X434111Y153544D03*
X434111Y169036D03*
D13*
X20810Y13850D03*
X20810Y80850D03*
D14*
X76310Y57350D03*
X76310Y37350D03*
D15*
X350640Y23626D02*
X350640Y19460D01*
X355640Y19460D02*
X355640Y23626D01*
X360640Y23626D02*
X360640Y19460D01*
X365640Y19460D02*
X365640Y23626D01*
X365640Y39874D02*
X365640Y44040D01*
X360640Y44040D02*
X360640Y39874D01*
X355640Y39874D02*
X355640Y44040D01*
X350640Y44040D02*
X350640Y39874D01*
D16*
X358140Y31750D03*
D17*
X383540Y23598D03*
X383540Y39902D03*
D18*
X218240Y193065D03*
X211740Y193065D03*
X205240Y193065D03*
X198740Y193065D03*
X192240Y193065D03*
X185740Y193065D03*
X179240Y193065D03*
X172740Y193065D03*
X172740Y136677D03*
X179240Y136677D03*
X185740Y136677D03*
X192240Y136677D03*
X198740Y136677D03*
X205240Y136677D03*
X211740Y136677D03*
X218240Y136677D03*
D19*
X237490Y191634D03*
X237490Y174126D03*
D12*
X237490Y142114D03*
X237490Y157606D03*
D20*
X499980Y159830D03*
D21*
X592980Y159830D03*
D20*
X506980Y159830D03*
X513980Y159830D03*
X520980Y159830D03*
X527980Y159830D03*
X534980Y159830D03*
X541980Y159830D03*
X548980Y159830D03*
X555980Y159830D03*
X562980Y159830D03*
D22*
X478980Y155830D03*
X478980Y148830D03*
X478980Y141830D03*
X478980Y134830D03*
X478980Y127830D03*
X478980Y120830D03*
X478980Y113830D03*
X478980Y106830D03*
X478980Y99830D03*
X478980Y92830D03*
X478980Y85830D03*
X478980Y78830D03*
X478980Y71830D03*
D20*
X492980Y67830D03*
X499980Y67830D03*
X506980Y67830D03*
X513980Y67830D03*
X520980Y67830D03*
X527980Y67830D03*
X534980Y67830D03*
X541980Y67830D03*
X548980Y67830D03*
X555980Y67830D03*
X562980Y67830D03*
X569980Y67830D03*
X576980Y67830D03*
X583980Y67830D03*
D21*
X592980Y67830D03*
D23*
X587480Y84830D03*
X573480Y84830D03*
D24*
X499110Y202161D03*
D25*
X499110Y186622D03*
D24*
X516890Y186459D03*
D25*
X516890Y201998D03*
D19*
X480060Y203064D03*
X480060Y185556D03*
D26*
X449580Y96720D03*
X449580Y121720D03*
D27*
X441834Y83820D03*
X457326Y83820D03*
X441834Y140970D03*
X457326Y140970D03*
D28*
X334804Y147892D02*
X332898Y147892D01*
X334804Y147892D02*
X334804Y145478D01*
X332898Y145478D01*
X332898Y147892D01*
X332898Y146081D02*
X334804Y146081D01*
X334804Y146684D02*
X332898Y146684D01*
X332898Y147287D02*
X334804Y147287D01*
X334804Y147890D02*
X332898Y147890D01*
D29*
X329851Y146685D03*
X325850Y146685D03*
X321850Y146685D03*
X317849Y146685D03*
D28*
X314802Y147892D02*
X312896Y147892D01*
X314802Y147892D02*
X314802Y145478D01*
X312896Y145478D01*
X312896Y147892D01*
X312896Y146081D02*
X314802Y146081D01*
X314802Y146684D02*
X312896Y146684D01*
X312896Y147287D02*
X314802Y147287D01*
X314802Y147890D02*
X312896Y147890D01*
X309308Y144304D02*
X309308Y142398D01*
X309308Y144304D02*
X311722Y144304D01*
X311722Y142398D01*
X309308Y142398D01*
X309308Y143001D02*
X311722Y143001D01*
X311722Y143604D02*
X309308Y143604D01*
X309308Y144207D02*
X311722Y144207D01*
D30*
X310515Y139351D03*
X310515Y135350D03*
X310515Y131350D03*
X310515Y127349D03*
D28*
X309308Y124302D02*
X309308Y122396D01*
X309308Y124302D02*
X311722Y124302D01*
X311722Y122396D01*
X309308Y122396D01*
X309308Y122999D02*
X311722Y122999D01*
X311722Y123602D02*
X309308Y123602D01*
X309308Y124205D02*
X311722Y124205D01*
X312896Y118808D02*
X314802Y118808D01*
X312896Y118808D02*
X312896Y121222D01*
X314802Y121222D01*
X314802Y118808D01*
X314802Y119411D02*
X312896Y119411D01*
X312896Y120014D02*
X314802Y120014D01*
X314802Y120617D02*
X312896Y120617D01*
X312896Y121220D02*
X314802Y121220D01*
D29*
X317849Y120015D03*
X321850Y120015D03*
X325850Y120015D03*
X329851Y120015D03*
D28*
X332898Y118808D02*
X334804Y118808D01*
X332898Y118808D02*
X332898Y121222D01*
X334804Y121222D01*
X334804Y118808D01*
X334804Y119411D02*
X332898Y119411D01*
X332898Y120014D02*
X334804Y120014D01*
X334804Y120617D02*
X332898Y120617D01*
X332898Y121220D02*
X334804Y121220D01*
X338392Y122396D02*
X338392Y124302D01*
X338392Y122396D02*
X335978Y122396D01*
X335978Y124302D01*
X338392Y124302D01*
X338392Y122999D02*
X335978Y122999D01*
X335978Y123602D02*
X338392Y123602D01*
X338392Y124205D02*
X335978Y124205D01*
D30*
X337185Y127349D03*
X337185Y131350D03*
X337185Y135350D03*
X337185Y139351D03*
D28*
X338392Y142398D02*
X338392Y144304D01*
X338392Y142398D02*
X335978Y142398D01*
X335978Y144304D01*
X338392Y144304D01*
X338392Y143001D02*
X335978Y143001D01*
X335978Y143604D02*
X338392Y143604D01*
X338392Y144207D02*
X335978Y144207D01*
D12*
X288290Y139826D03*
X288290Y124334D03*
D17*
X411480Y39902D03*
X411480Y23598D03*
X433070Y39902D03*
X433070Y23598D03*
D27*
X307466Y99060D03*
X291974Y99060D03*
X319914Y99060D03*
X335406Y99060D03*
D31*
X262590Y42520D03*
X262590Y33020D03*
X262590Y23520D03*
X288590Y23520D03*
X288590Y42520D03*
D32*
X140208Y80645D03*
X140208Y99695D03*
X116332Y90170D03*
D33*
X171450Y103700D03*
X171450Y61400D03*
D10*
X136422Y55880D03*
X120118Y55880D03*
D12*
X213360Y78614D03*
X213360Y94106D03*
D17*
X241300Y24868D03*
X241300Y41172D03*
D12*
X306070Y25274D03*
X306070Y40766D03*
D10*
X131548Y137160D03*
X147852Y137160D03*
X131548Y191770D03*
X147852Y191770D03*
D12*
X143186Y172846D03*
X143186Y157354D03*
X124460Y172846D03*
X124460Y157354D03*
D34*
X450850Y21590D03*
X450850Y40640D03*
D12*
X332740Y40766D03*
X332740Y25274D03*
D35*
X397510Y128930D03*
X397510Y84430D03*
D34*
X307340Y68580D03*
X326390Y68580D03*
M02*
