M48
;GenerationSoftware,Autodesk,EAGLE,9.7.0*%
;CreationDate,2026-06-09T05:31:59Z*%
FMAT,2
ICI,OFF
METRIC,TZ,000.000
T6C0.300
T5C0.350
T4C0.762
T3C0.800
T2C1.016
T1C2.800
%
G90
M71
T1
X20320Y2540
X55880Y21590
X29210Y21590
X55880Y2540
T2
X15875Y2921
X13335Y2921
T3
X23622Y9382
X23622Y7382
T4
X5842Y13939
X5842Y19939
X5842Y17939
X5842Y15939
T5
X16510Y19431
X20320Y7874
X16510Y13462
X31877Y2540
X29972Y11684
X52705Y8890
X53316Y9628
T6
X38989Y20066
X5334Y3810
X10160Y3810
X27559Y3302
X33401Y4953
X14351Y6530
X19177Y20828
X19939Y20828
X34417Y2159
X36576Y1397
X28829Y11557
X29210Y10922
X30607Y1651
X24892Y14224
X57785Y4699
X45974Y16510
X47625Y6271
X48387Y6271
X43180Y8890
X36895Y4838
X23749Y20368
X35941Y12954
X33274Y10922
X34722Y9449
X30734Y6858
X12446Y18161
X12319Y20955
X39751Y6858
X47625Y5636
X48387Y5636
X43434Y18161
X43815Y19812
X51374Y13815
X34925Y21336
X24892Y15748
X25654Y17780
X38354Y1397
X42418Y2413
X26924Y14224
X32385Y10922
X45720Y19050
X46482Y19050
X46482Y18288
X45720Y18288
X50927Y13081
X31958Y4110
X32639Y6858
X12446Y14732
X12319Y12065
X40120Y3036
X49784Y3810
X10160Y5715
X41021Y14351
X45085Y2159
X35941Y7239
X38354Y7620
X55361Y14425
X41148Y5636
X45085Y4064
X42545Y8255
X37846Y8354
X43815Y20955
X22860Y13335
X49911Y10414
X50673Y10795
X22098Y17478
X21717Y12192
X49276Y9906
X39751Y4191
X52070Y5715
X21209Y18034
X51308Y11176
X50800Y14605
X45212Y15748
X54746Y14806
X45974Y15748
X45212Y16510
X57531Y16129
X58293Y16129
X58293Y15367
X57531Y15367
X46355Y20320
X43307Y14097
X58928Y5334
X58166Y5334
X58547Y4699
X38989Y18796
X36576Y12319
M30